<?xml version="1.0" encoding="UTF-8" standalone="no"?>
<!-- Created with Inkscape (http://www.inkscape.org/) -->

<svg
   xmlns:dc="http://purl.org/dc/elements/1.1/"
   xmlns:cc="http://creativecommons.org/ns#"
   xmlns:rdf="http://www.w3.org/1999/02/22-rdf-syntax-ns#"
   xmlns:svg="http://www.w3.org/2000/svg"
   xmlns="http://www.w3.org/2000/svg"
   xmlns:sodipodi="http://sodipodi.sourceforge.net/DTD/sodipodi-0.dtd"
   xmlns:inkscape="http://www.inkscape.org/namespaces/inkscape"
   width="24.077999"
   height="24.078001"
   id="svg19793"
   version="1.1"
   inkscape:version="0.91 r13725"
   sodipodi:docname="bike.svg">
  <defs
     id="defs19795">
    <clipPath
       clipPathUnits="userSpaceOnUse"
       id="clipPath1734">
      <path
         d="M 0,792 1008,792 1008,0 0,0 0,792 Z"
         id="path1736"
         inkscape:connector-curvature="0" />
    </clipPath>
  </defs>
  <sodipodi:namedview
     id="base"
     pagecolor="#ffffff"
     bordercolor="#666666"
     borderopacity="1.0"
     inkscape:pageopacity="0.0"
     inkscape:pageshadow="2"
     inkscape:zoom="11.2"
     inkscape:cx="-0.88003143"
     inkscape:cy="11.359621"
     inkscape:document-units="px"
     inkscape:current-layer="layer1"
     showgrid="false"
     fit-margin-top="0"
     fit-margin-left="0"
     fit-margin-right="0"
     fit-margin-bottom="0"
     inkscape:window-width="1169"
     inkscape:window-height="480"
     inkscape:window-x="297"
     inkscape:window-y="200"
     inkscape:window-maximized="0" />
  <metadata
     id="metadata19798">
    <rdf:RDF>
      <cc:Work
         rdf:about="">
        <dc:format>image/svg+xml</dc:format>
        <dc:type
           rdf:resource="http://purl.org/dc/dcmitype/StillImage" />
        <dc:title></dc:title>
      </cc:Work>
    </rdf:RDF>
  </metadata>
  <g
     inkscape:label="Layer 1"
     inkscape:groupmode="layer"
     id="layer1"
     transform="translate(-368.96677,-514.49395)">
    <g
       transform="matrix(2.4358118,0,0,-2.4363048,-1772.759,2159.4258)"
       id="g20999">
      <path
         d="m 880.4472,674.9745 c -0.542,0 -0.981,-0.44 -0.981,-0.98 l 0,-7.523 c 0,-0.54 0.439,-0.979 0.981,-0.979 l 7.522,0 c 0.541,0 0.981,0.439 0.981,0.979 l 0,7.523 c 0,0.54 -0.44,0.98 -0.981,0.98 l -7.522,0 z"
         style="fill:#ffffff;fill-opacity:1;fill-rule:nonzero;stroke:none"
         id="path10324"
         inkscape:connector-curvature="0" />
      <path
         d="m 887.9687,665.2919 c 0.652,0 1.182,0.527 1.182,1.18 l 0,7.522 c 0,0.652 -0.53,1.181 -1.182,1.181 l -7.522,0 c -0.652,0 -1.181,-0.529 -1.181,-1.181 l 0,-7.522 c 0,-0.653 0.529,-1.18 1.181,-1.18 l 7.522,0 z"
         style="fill:#373535;fill-opacity:1;fill-rule:nonzero;stroke:none"
         id="path10328"
         inkscape:connector-curvature="0" />
      <path
         d="m 879.8604,668.4892 c 0,0.972 0.789,1.759 1.759,1.759 0.972,0 1.761,-0.787 1.761,-1.759 0,-0.973 -0.789,-1.759 -1.761,-1.759 -0.97,0 -1.759,0.786 -1.759,1.759 m 1.759,-1.435 c 0.792,0 1.434,0.642 1.434,1.435 0,0.792 -0.642,1.434 -1.434,1.434 -0.79,0 -1.433,-0.642 -1.433,-1.434 0,-0.793 0.643,-1.435 1.433,-1.435"
         style="fill:#ffffff;fill-opacity:1;fill-rule:nonzero;stroke:none"
         id="path10332"
         inkscape:connector-curvature="0" />
      <path
         d="m 885.0381,668.4716 c 0,0.973 0.789,1.759 1.761,1.759 0.969,0 1.758,-0.786 1.758,-1.759 0,-0.972 -0.789,-1.759 -1.758,-1.759 -0.972,0 -1.761,0.787 -1.761,1.759 m 1.761,-1.434 c 0.79,0 1.432,0.642 1.432,1.434 0,0.792 -0.642,1.435 -1.432,1.435 -0.792,0 -1.435,-0.643 -1.435,-1.435 0,-0.792 0.643,-1.434 1.435,-1.434"
         style="fill:#ffffff;fill-opacity:1;fill-rule:nonzero;stroke:none"
         id="path10336"
         inkscape:connector-curvature="0" />
      <path
         d="m 885.0429,672.7651 c 0.365,0 0.662,0.295 0.662,0.66 0,0.365 -0.297,0.662 -0.662,0.662 -0.365,0 -0.662,-0.297 -0.662,-0.662 0,-0.365 0.297,-0.66 0.662,-0.66"
         style="fill:#ffffff;fill-opacity:1;fill-rule:nonzero;stroke:none"
         id="path10340"
         inkscape:connector-curvature="0" />
      <path
         d="m 885.0703,671.1595 c -0.096,-0.002 -0.199,0.046 -0.275,0.166 l -0.43,0.672 -0.887,-0.878 0.823,-0.433 c 0.337,-0.162 0.287,-0.459 0.287,-0.459 l 0,-1.861 c 0,-0.211 -0.17,-0.383 -0.381,-0.383 -0.211,0 -0.381,0.172 -0.381,0.383 l 0,1.49 -1.426,0.792 c -0.17,0.095 -0.285,0.277 -0.285,0.484 0,0.142 0.053,0.273 0.142,0.371 l 1.399,1.401 c 0.174,0.196 0.416,0.165 0.416,0.165 0.293,0 0.447,-0.256 0.447,-0.256 l 0.727,-1.138 1.103,0.002 c 0.397,0 0.397,-0.518 0,-0.518 l -1.279,0 z"
         style="fill:#ffffff;fill-opacity:1;fill-rule:nonzero;stroke:none"
         id="path10344"
         inkscape:connector-curvature="0" />
    </g>
  </g>
</svg>
