<?xml version="1.0" encoding="utf-8"?>
<!-- Generator: Adobe Illustrator 16.0.0, SVG Export Plug-In . SVG Version: 6.00 Build 0)  -->
<!DOCTYPE svg PUBLIC "-//W3C//DTD SVG 1.1//EN" "http://www.w3.org/Graphics/SVG/1.1/DTD/svg11.dtd">
<svg version="1.1"
	 id="svg19793" sodipodi:docname="horse.svg" inkscape:version="0.91 r13725" xmlns:dc="http://purl.org/dc/elements/1.1/" xmlns:cc="http://creativecommons.org/ns#" xmlns:rdf="http://www.w3.org/1999/02/22-rdf-syntax-ns#" xmlns:svg="http://www.w3.org/2000/svg" xmlns:sodipodi="http://sodipodi.sourceforge.net/DTD/sodipodi-0.dtd" xmlns:inkscape="http://www.inkscape.org/namespaces/inkscape"
	 xmlns="http://www.w3.org/2000/svg" xmlns:xlink="http://www.w3.org/1999/xlink" x="0px" y="0px" width="24.708px"
	 height="24.708px" viewBox="0 0 24.708 24.708" enable-background="new 0 0 24.708 24.708" xml:space="preserve">
<defs>
	
	
		<sodipodi:namedview  inkscape:window-maximized="1" inkscape:window-y="-4" inkscape:window-x="-4" inkscape:window-height="1033" inkscape:window-width="1920" inkscape:current-layer="Layer_1" inkscape:pageshadow="2" inkscape:pageopacity="0" showgrid="false" inkscape:cy="11.88" inkscape:cx="7.2858364" inkscape:zoom="35.479798" borderopacity="1" bordercolor="#666666" pagecolor="#ffffff" id="namedview4042" objecttolerance="10" gridtolerance="10" guidetolerance="10">
		</sodipodi:namedview>
	
		<sodipodi:namedview  inkscape:window-maximized="1" inkscape:window-y="-4" inkscape:window-x="-4" inkscape:window-height="1033" inkscape:window-width="1920" inkscape:current-layer="Layer_1" inkscape:pageshadow="2" inkscape:pageopacity="0" showgrid="false" inkscape:cy="11.88" inkscape:cx="7.2858364" inkscape:zoom="35.479798" borderopacity="1" bordercolor="#666666" pagecolor="#ffffff" id="namedview4662" objecttolerance="10" gridtolerance="10" guidetolerance="10">
		</sodipodi:namedview>
</defs>
<sodipodi:namedview  inkscape:window-maximized="1" inkscape:window-y="-8" inkscape:window-x="-8" inkscape:window-height="1018" inkscape:window-width="1920" fit-margin-bottom="0" inkscape:current-layer="layer1" inkscape:pageshadow="2" inkscape:document-units="px" inkscape:pageopacity="0.0" fit-margin-right="0" fit-margin-left="0" fit-margin-top="0" showgrid="false" inkscape:cy="6.8990046" inkscape:cx="-5.0910002" inkscape:zoom="11.2" borderopacity="1.0" bordercolor="#666666" pagecolor="#ffffff" id="base" showguides="false">
	</sodipodi:namedview>
<g id="layer1" transform="translate(-370.15551,-514.90273)" inkscape:label="Layer 1" inkscape:groupmode="layer">
	<g id="g3556" transform="matrix(1.9996358,0,0,2.0000421,-370.0207,-539.63343)">
		<path id="path6702" inkscape:connector-curvature="0" fill="#FFFFFF" d="M371.632,527.508c-0.677,0-1.226,0.551-1.226,1.228v9.403
			c0,0.674,0.549,1.223,1.226,1.223h9.401c0.677,0,1.228-0.549,1.228-1.223v-9.403c0-0.676-0.55-1.228-1.228-1.228H371.632z"/>
		<path id="path6706" inkscape:connector-curvature="0" fill="#6AB03E" d="M381.034,539.61c0.815,0,1.477-0.658,1.477-1.475v-9.401
			c0-0.816-0.662-1.478-1.477-1.478h-9.401c-0.816,0-1.478,0.661-1.478,1.478v9.401c0,0.816,0.661,1.475,1.478,1.475H381.034z"/>
		<path id="path4660" inkscape:connector-curvature="0" fill="#FFFFFF" d="M379.005,532.417l-1.015,2.073v2.846
			c0,0.242-0.2,0.442-0.444,0.442c-0.244,0-0.443-0.198-0.443-0.442v-2.909h-2.24l-0.401,0.686l0.839,1.997
			c0.121,0.215,0.046,0.484-0.166,0.604c-0.214,0.121-0.484,0.045-0.606-0.168l-0.978-2.305v-0.732l-0.438,0.687v2.141
			c0,0.243-0.198,0.443-0.443,0.443c-0.244,0-0.444-0.199-0.444-0.443v-2.472l0.367-0.572v-1.942l-0.364,0.557v1.616h-0.7v-1.634
			c0-0.544,0.441-0.985,0.983-0.985h4.411l2.722-2.816l-0.08,0.732l1.34,0.891c0.221,0.127,0.303,0.413,0.175,0.636
			c-0.099,0.176-0.297,0.261-0.484,0.226l-0.108-0.02l-0.246-0.046l-0.709-0.136l-0.414,0.82L379.005,532.417L379.005,532.417z"/>
	</g>
</g>
</svg>
