<?xml version="1.0" encoding="UTF-8" standalone="no"?>
<!-- Generator: Adobe Illustrator 16.0.3, SVG Export Plug-In . SVG Version: 6.00 Build 0)  -->

<svg
   xmlns:dc="http://purl.org/dc/elements/1.1/"
   xmlns:cc="http://creativecommons.org/ns#"
   xmlns:rdf="http://www.w3.org/1999/02/22-rdf-syntax-ns#"
   xmlns:svg="http://www.w3.org/2000/svg"
   xmlns="http://www.w3.org/2000/svg"
   xmlns:sodipodi="http://sodipodi.sourceforge.net/DTD/sodipodi-0.dtd"
   xmlns:inkscape="http://www.inkscape.org/namespaces/inkscape"
   version="1.1"
   id="svg19793"
   sodipodi:docname="visitorcenter.svg"
   inkscape:version="0.91 r13725"
   x="0px"
   y="0px"
   width="24.708002"
   height="24.708"
   viewBox="0 0 24.708003 24.708"
   enable-background="new 0 0 12.355 12.354"
   xml:space="preserve"><metadata
     id="metadata17"><rdf:RDF><cc:Work
         rdf:about=""><dc:format>image/svg+xml</dc:format><dc:type
           rdf:resource="http://purl.org/dc/dcmitype/StillImage" /><dc:title></dc:title></cc:Work></rdf:RDF></metadata><defs
     id="defs15" /><sodipodi:namedview
     id="base"
     inkscape:document-units="px"
     fit-margin-right="0"
     fit-margin-bottom="0"
     fit-margin-left="0"
     fit-margin-top="0"
     inkscape:window-maximized="0"
     inkscape:window-y="90"
     inkscape:window-height="752"
     inkscape:pageshadow="2"
     inkscape:current-layer="layer1"
     inkscape:window-width="1090"
     inkscape:window-x="344"
     inkscape:pageopacity="0.0"
     showgrid="false"
     bordercolor="#666666"
     borderopacity="1.0"
     inkscape:zoom="7.919596"
     inkscape:cx="1.6630487"
     pagecolor="#ffffff"
     inkscape:cy="11.86437"
     showguides="false" /><g
     id="layer1"
     transform="translate(-373.63105,-518.57921)"
     inkscape:label="Layer 1"
     inkscape:groupmode="layer"><g
       id="g7279"
       transform="matrix(1.9996764,0,0,2,-373.51004,-543.03479)"><path
         style="fill:#373535"
         d="m 384.51,543.161 c 0.815,0 1.477,-0.659 1.477,-1.475 l 0,-9.401 c 0,-0.816 -0.661,-1.478 -1.477,-1.478 l -9.402,0 c -0.815,0 -1.477,0.661 -1.477,1.478 l 0,9.401 c 0,0.815 0.661,1.475 1.477,1.475 l 9.402,0 z"
         inkscape:connector-curvature="0"
         id="path6578" /><path
         id="path18257"
         inkscape:connector-curvature="0"
         d="m 379.69538,536.74265 c 0.63822,0.0155 1.16762,-0.48439 1.18563,-1.12098 0.0213,-0.63659 -0.48195,-1.16681 -1.1169,-1.18644 -0.63904,-0.018 -1.16926,0.48193 -1.18808,1.11934 -0.018,0.63658 0.48195,1.16762 1.11935,1.18808 l 0,0 z"
         style="fill:#ffffff" /><path
         id="path18259"
         inkscape:connector-curvature="0"
         d="m 377.54097,536.24435 c 0.21192,-0.004 0.8796,0.10393 1.3239,0.44348 0.44103,0.33793 0.7356,0.72577 0.85342,0.92541 0.0376,0.0597 0.0786,0.12759 0.0909,0.20866 0.0164,-0.0811 0.0433,-0.15792 0.0728,-0.19802 0.0801,-0.12849 0.44348,-0.59976 0.62513,-0.75522 0.3322,-0.28393 0.69796,-0.56131 1.59311,-0.64068 l -0.005,1.21262 c -0.16119,0.006 -0.50894,0.10225 -0.8076,0.35103 -0.30438,0.2561 -0.64149,0.7495 -0.74624,1.10297 -0.10638,0.35103 -0.12267,0.64396 -0.12927,0.85179 l -0.0164,2.35816 -1.13816,0.006 -0.004,-2.3516 c -0.004,-0.22257 -0.0482,-0.67505 -0.16692,-0.89843 -0.11866,-0.22338 -0.3772,-0.84032 -0.8395,-1.13899 -0.14238,-0.0909 -0.35675,-0.27737 -0.70287,-0.27983 l -0.004,-1.19789 0,0 0,0 z"
         style="fill:#ffffff" /><path
         id="path18261"
         inkscape:connector-curvature="0"
         d="m 379.80176,533.27742 c 0.0295,0.0361 0.0818,0.0924 0.13337,0.12849 0.0688,0.0467 0.92378,0.5924 1.77721,1.44663 0.26919,0.26921 0.99087,1.13899 0.99579,2.21415 0.004,0.9598 -0.53922,1.64957 -0.60468,1.7183 -0.20292,0.22992 -0.94261,0.81823 -1.37218,0.87469 l -0.006,1.24699 c 0.53431,-0.1047 1.43437,-0.4533 1.94414,-0.96797 0.51221,-0.51631 0.93687,-1.13571 1.12589,-1.92039 0.21846,-0.89843 0.0605,-1.92368 -0.2193,-2.51527 -0.36984,-0.79368 -1.0097,-1.54483 -1.81156,-2.1855 l -1.96705,-1.46054 -1.96131,1.46791 c -0.79941,0.64558 -1.43109,1.39917 -1.80011,2.19368 -0.27656,0.59486 -0.43203,1.62011 -0.20702,2.51771 0.19474,0.78142 0.62187,1.40083 1.13408,1.91468 0.51385,0.51221 1.41555,0.85587 1.94903,0.95815 l -0.0116,-1.24699 c -0.42957,-0.0516 -1.17253,-0.63986 -1.37628,-0.8657 -0.0654,-0.0679 -0.60876,-0.75604 -0.60876,-1.71583 -0.003,-1.07434 0.71759,-1.94822 0.98188,-2.21824 0.84933,-0.8616 1.70275,-1.409 1.77148,-1.45728 0.0531,-0.0327 0.10393,-0.0916 0.13338,-0.12758 l 0,0 z"
         style="fill:#ffffff" /></g></g></svg>