<?xml version="1.0" encoding="UTF-8" standalone="no"?>
<!-- Created with Inkscape (http://www.inkscape.org/) -->

<svg
   xmlns:dc="http://purl.org/dc/elements/1.1/"
   xmlns:cc="http://creativecommons.org/ns#"
   xmlns:rdf="http://www.w3.org/1999/02/22-rdf-syntax-ns#"
   xmlns:svg="http://www.w3.org/2000/svg"
   xmlns="http://www.w3.org/2000/svg"
   xmlns:sodipodi="http://sodipodi.sourceforge.net/DTD/sodipodi-0.dtd"
   xmlns:inkscape="http://www.inkscape.org/namespaces/inkscape"
   width="24.078001"
   height="24.078001"
   id="svg19793"
   version="1.1"
   inkscape:version="0.91 r13725"
   sodipodi:docname="snowshoe.svg">
  <defs
     id="defs19795">
    <clipPath
       clipPathUnits="userSpaceOnUse"
       id="clipPath1734">
      <path
         d="M 0,792 1008,792 1008,0 0,0 0,792 Z"
         id="path1736"
         inkscape:connector-curvature="0" />
    </clipPath>
  </defs>
  <sodipodi:namedview
     id="base"
     pagecolor="#ffffff"
     bordercolor="#666666"
     borderopacity="1.0"
     inkscape:pageopacity="0.0"
     inkscape:pageshadow="2"
     inkscape:zoom="11.2"
     inkscape:cx="-0.73578028"
     inkscape:cy="11.326718"
     inkscape:document-units="px"
     inkscape:current-layer="layer1"
     showgrid="false"
     fit-margin-top="0"
     fit-margin-left="0"
     fit-margin-right="0"
     fit-margin-bottom="0"
     inkscape:window-width="1169"
     inkscape:window-height="480"
     inkscape:window-x="297"
     inkscape:window-y="200"
     inkscape:window-maximized="0" />
  <metadata
     id="metadata19798">
    <rdf:RDF>
      <cc:Work
         rdf:about="">
        <dc:format>image/svg+xml</dc:format>
        <dc:type
           rdf:resource="http://purl.org/dc/dcmitype/StillImage" />
        <dc:title></dc:title>
      </cc:Work>
    </rdf:RDF>
  </metadata>
  <g
     inkscape:label="Layer 1"
     inkscape:groupmode="layer"
     id="layer1"
     transform="translate(-368.82251,-514.46105)">
    <g
       transform="matrix(2.4365513,0,0,-2.4363048,-1373.552,1973.573)"
       id="g1730">
      <g
         id="g1732"
         clip-path="url(#clipPath1734)">
        <g
           id="g1738"
           transform="translate(716.3085,598.66)">
          <path
             d="m 0,0 c -0.54,0 -0.979,-0.44 -0.979,-0.981 l 0,-7.522 c 0,-0.54 0.439,-0.979 0.979,-0.979 l 7.522,0 c 0.541,0 0.98,0.439 0.98,0.979 l 0,7.522 C 8.502,-0.44 8.063,0 7.522,0 L 0,0 Z"
             style="fill:#ffffff;fill-opacity:1;fill-rule:nonzero;stroke:none"
             id="path1740"
             inkscape:connector-curvature="0" />
        </g>
        <g
           id="g1742"
           transform="translate(723.8309,588.9774)">
          <path
             d="m 0,0 c 0.652,0 1.18,0.527 1.18,1.18 l 0,7.521 C 1.18,9.354 0.652,9.883 0,9.883 l -7.522,0 c -0.651,0 -1.18,-0.529 -1.18,-1.182 l 0,-7.521 C -8.702,0.527 -8.173,0 -7.522,0 L 0,0 Z"
             style="fill:#373535;fill-opacity:1;fill-rule:nonzero;stroke:none"
             id="path1744"
             inkscape:connector-curvature="0" />
        </g>
        <g
           id="g1746"
           transform="translate(721.5165,596.7587)">
          <path
             d="M 0,0 C 0.365,0 0.66,0.297 0.66,0.662 0.66,1.027 0.365,1.324 0,1.324 -0.365,1.324 -0.662,1.027 -0.662,0.662 -0.662,0.297 -0.365,0 0,0"
             style="fill:#ffffff;fill-opacity:1;fill-rule:nonzero;stroke:none"
             id="path1748"
             inkscape:connector-curvature="0" />
        </g>
        <g
           id="g1750"
           transform="translate(718.6747,590.2762)">
          <path
             d="M 0,0 C 0.016,-0.008 0.031,-0.012 0.049,-0.016 0.256,-0.065 0.461,0.062 0.51,0.268 0.547,0.424 0.482,0.58 0.359,0.668 L 0.203,0.486 C 0.07,0.334 -0.16,0.316 -0.312,0.449 c -0.09,0.078 -0.125,0.19 -0.12,0.299 L -1.595,0.768 0,0 Z M 3.563,-0.096 C 3.58,-0.098 3.598,-0.1 3.615,-0.1 c 0.211,0 0.383,0.172 0.383,0.383 0,0.211 -0.172,0.383 -0.383,0.383 l 0,-0.08 C 3.615,0.385 3.451,0.221 3.25,0.221 3.072,0.221 2.932,0.35 2.898,0.518 L 1.836,0.283 3.563,-0.096 Z M 4.617,3.957 C 4.502,3.691 4.256,3.771 4.256,3.771 L 3.221,4.162 C 3.117,4.199 3.037,4.285 3.01,4.391 L 2.775,5.074 2.41,4.068 3.492,2.941 C 3.627,2.705 3.615,2.531 3.615,2.531 l 0,-1.554 c 0.383,0 0.694,-0.311 0.694,-0.694 0,-0.383 -0.311,-0.693 -0.694,-0.693 -0.054,0 -0.109,0.006 -0.162,0.019 l -2.275,0.506 0,0.336 1.707,0.379 0,1.416 L 1.736,3.393 1.561,2.191 C 1.531,2.039 1.422,1.896 1.359,1.826 L 0.562,0.902 C 0.551,0.912 0.535,0.912 0.519,0.91 L 0.562,0.902 C 0.769,0.74 0.877,0.469 0.812,0.197 0.725,-0.176 0.35,-0.406 -0.022,-0.318 c -0.054,0.013 -0.105,0.031 -0.154,0.054 L -2.272,0.756 -2.194,1.082 -0.272,1.055 0.643,2.111 0.926,4.189 1.519,5.762 0.697,5.289 0.207,4.328 C 0.059,4.023 -0.209,4.184 -0.209,4.184 -0.451,4.322 -0.357,4.557 -0.357,4.557 L 0.144,5.572 C 0.279,5.83 0.387,5.869 0.387,5.869 L 1.561,6.512 C 1.816,6.687 2.113,6.551 2.113,6.551 L 2.789,6.295 C 3.127,6.174 3.141,5.984 3.141,5.984 l 0.418,-1.338 0.9,-0.318 c 0,0 0.242,-0.103 0.158,-0.371"
             style="fill:#ffffff;fill-opacity:1;fill-rule:nonzero;stroke:none"
             id="path1752"
             inkscape:connector-curvature="0" />
        </g>
      </g>
    </g>
  </g>
</svg>
