<?xml version="1.0" encoding="utf-8"?>
<!-- Generator: Adobe Illustrator 16.0.0, SVG Export Plug-In . SVG Version: 6.00 Build 0)  -->
<!DOCTYPE svg PUBLIC "-//W3C//DTD SVG 1.1//EN" "http://www.w3.org/Graphics/SVG/1.1/DTD/svg11.dtd">
<svg version="1.1" id="Layer_1" xmlns="http://www.w3.org/2000/svg" xmlns:xlink="http://www.w3.org/1999/xlink" x="0px" y="0px"
	 width="350.625px" height="350.625px" viewBox="0 0 350.625 350.625" enable-background="new 0 0 350.625 350.625"
	 xml:space="preserve">
<g id="XMLID_2_">
	<path id="XMLID_9_" fill="#00609B" d="M233.963,175.312c0,15.938-5.738,29.963-17.213,41.438s-25.5,17.213-41.438,17.213
		s-29.962-5.738-41.438-17.213s-17.212-25.5-17.212-41.438s5.737-29.962,17.212-41.438s25.5-17.212,41.438-17.212
		s29.963,5.737,41.438,17.212S233.963,159.375,233.963,175.312z M263.287,175.312c0-24.225-8.287-44.625-25.5-61.837
		c-17.212-17.212-37.612-25.5-61.837-25.5c-24.225,0-44.625,8.288-61.838,25.5c-17.212,17.212-25.5,37.612-25.5,61.837
		c0,24.225,8.288,44.625,25.5,61.838c17.213,17.212,37.613,25.5,61.838,25.5c24.225,0,44.625-8.288,61.837-25.5
		C255,219.938,263.287,199.537,263.287,175.312z M291.975,175.312c0,32.513-11.475,59.925-34.425,82.875
		s-50.362,34.425-82.875,34.425c-32.512,0-59.925-11.475-82.875-34.425c-22.95-22.95-34.425-50.362-34.425-82.875
		S68.85,115.388,91.8,92.438c22.95-22.95,50.363-34.425,82.875-34.425c32.513,0,59.925,11.475,82.875,34.425
		S291.975,142.8,291.975,175.312z M321.3,175.312c0-19.763-3.825-38.888-11.475-56.737c-7.65-17.85-17.851-33.788-31.237-46.538
		C265.838,59.288,249.9,48.45,232.05,40.8c-17.85-7.65-36.975-11.475-56.737-11.475S136.425,33.15,118.575,40.8
		c-17.85,7.65-33.788,17.85-46.538,31.238C59.288,85.425,48.45,100.725,40.8,118.575c-7.65,17.85-11.475,36.975-11.475,56.737
		S33.15,214.2,40.8,232.05c7.65,17.851,17.85,33.788,31.238,46.538c12.75,12.75,28.688,23.587,46.538,31.237
		c17.85,7.649,36.975,11.475,56.737,11.475s38.888-3.825,56.737-11.475c17.851-7.65,33.788-17.851,46.538-31.237
		c12.75-12.75,23.587-28.688,31.237-46.538C317.475,214.2,321.3,195.075,321.3,175.312z M350.625,175.312
		c0,31.875-7.65,61.2-23.588,87.975c-15.938,26.775-36.975,47.812-63.75,63.75c-26.774,15.938-56.1,23.588-87.975,23.588
		s-61.2-7.65-87.975-23.588s-47.812-36.975-63.75-63.75C7.65,236.513,0,207.188,0,175.312s7.65-61.2,23.587-87.975
		s36.975-47.812,63.75-63.75S143.438,0,175.312,0s61.2,7.65,87.975,23.587c26.775,15.938,47.812,36.975,63.75,63.75
		S350.625,143.438,350.625,175.312z"/>
</g>
</svg>
