<?xml version="1.0" encoding="utf-8"?>
<!-- Generator: Adobe Illustrator 16.0.0, SVG Export Plug-In . SVG Version: 6.00 Build 0)  -->
<!DOCTYPE svg PUBLIC "-//W3C//DTD SVG 1.1//EN" "http://www.w3.org/Graphics/SVG/1.1/DTD/svg11.dtd">
<svg version="1.1" id="Layer_1" xmlns="http://www.w3.org/2000/svg" xmlns:xlink="http://www.w3.org/1999/xlink" x="0px" y="0px"
	 width="50px" height="50px" viewBox="0 0 50 50" enable-background="new 0 0 50 50" xml:space="preserve">
<g>
	<path fill="none" stroke="#000000" stroke-width="2.31" d="M45.087,39.756c0,3.035-2.46,5.492-5.492,5.492H10.534
		c-3.034,0-5.492-2.457-5.492-5.492V10.691c0-3.031,2.458-5.488,5.492-5.488h29.062c3.032,0,5.492,2.457,5.492,5.488V39.756z"/>
</g>
<path d="M35.284,31.755h2.063v-7.333c0,0-0.004,0-1.46-1.588l-3.691-7.08h-14.2L14.28,22.81l-1.498,1.612v7.333H14.8v2.337v0.003
	c0,0.972,0.785,1.757,1.755,1.757c0.969,0,1.754-0.785,1.754-1.757v-0.003v-2.337h13.466v2.337v0.003
	c0,0.972,0.786,1.757,1.755,1.757c0.97,0,1.754-0.785,1.754-1.757v-0.003V31.755z M19.188,17.724H31l2.527,4.849H16.634
	L19.188,17.724z M18.057,28.489c-0.968,0-1.754-0.788-1.754-1.756c0-0.969,0.786-1.754,1.754-1.754c0.969,0,1.755,0.785,1.755,1.754
	C19.812,27.701,19.026,28.489,18.057,28.489z M32.099,28.489c-0.968,0-1.754-0.788-1.754-1.756c0-0.969,0.786-1.754,1.754-1.754
	c0.97,0,1.755,0.785,1.755,1.754C33.854,27.701,33.069,28.489,32.099,28.489z"/>
</svg>
