<?xml version="1.0" encoding="utf-8"?>
<!-- Generator: Adobe Illustrator 16.0.0, SVG Export Plug-In . SVG Version: 6.00 Build 0)  -->
<!DOCTYPE svg PUBLIC "-//W3C//DTD SVG 1.1//EN" "http://www.w3.org/Graphics/SVG/1.1/DTD/svg11.dtd">
<svg version="1.1" id="Layer_1" xmlns="http://www.w3.org/2000/svg" xmlns:xlink="http://www.w3.org/1999/xlink" x="0px" y="0px"
	 width="50px" height="50px" viewBox="0 0 50 50" enable-background="new 0 0 50 50" xml:space="preserve">
<g>
	<path fill="none" stroke="#000000" stroke-width="2.31" d="M45.151,39.322c0,3.035-2.46,5.492-5.492,5.492H10.597
		c-3.035,0-5.492-2.457-5.492-5.492V10.26c0-3.032,2.457-5.489,5.492-5.489h29.062c3.032,0,5.492,2.457,5.492,5.489V39.322z"/>
	<g>
		<path fill="#010101" d="M23.152,14.042c1.095,0,1.979-0.886,1.979-1.975c0-1.094-0.885-1.978-1.979-1.978
			c-1.089,0-1.976,0.884-1.976,1.978C21.176,13.156,22.063,14.042,23.152,14.042"/>
		<path fill="#010101" d="M37.84,19.737l-2.095-0.402l-1.218,2.422c0.196,0.05,0.401,0.069,0.611,0.069
			C36.441,21.826,37.53,20.941,37.84,19.737 M12.101,23.826c0-1.604,1.3-2.913,2.905-2.913h6.131V16.51
			c0-1.095,0.884-1.978,1.98-1.978c1.093,0,1.979,0.883,1.979,1.978v0.683l2.921,0.748c0.51,0.117,0.836,0.626,0.721,1.136
			c-0.114,0.519-0.626,0.836-1.144,0.72l-2.498-0.585v1.701h2.94l8.043-8.321l-0.239,2.164l3.96,2.635
			c0.652,0.375,0.894,1.219,0.518,1.876c-0.292,0.519-0.879,0.77-1.429,0.666l-0.319-0.061c-0.382,1.545-1.777,2.681-3.431,2.681
			c-0.326,0-0.645-0.044-0.945-0.13l-3.002,6.13v8.411c0,0.718-0.59,1.306-1.312,1.306c-0.721,0-1.307-0.588-1.307-1.306v-8.601
			h-6.622l-1.182,2.029l2.476,5.905c0.36,0.635,0.137,1.427-0.489,1.779c-0.633,0.363-1.43,0.139-1.791-0.496l-2.891-6.808v-2.17
			l-1.293,2.035v6.326c0,0.718-0.585,1.306-1.306,1.306c-0.722,0-1.314-0.588-1.314-1.306V29.66l1.083-1.695v-5.737l-1.075,1.646
			v4.776h-2.068V23.826z"/>
	</g>
</g>
</svg>
