<?xml version="1.0" standalone="no"?>
<!DOCTYPE svg PUBLIC "-//W3C//DTD SVG 1.1//EN" "http://www.w3.org/Graphics/SVG/1.1/DTD/svg11.dtd" >
<svg xmlns="http://www.w3.org/2000/svg">
<metadata>Generated by IcoMoon</metadata>
<defs>
<font id="cm-maps-icons" horiz-adv-x="1024">
<font-face units-per-em="1024" ascent="960" descent="-64" />
<missing-glyph horiz-adv-x="1024" />
<glyph unicode="&#x20;" horiz-adv-x="512" d="" />
<glyph unicode="&#xe900;" glyph-name="walk" d="M386.31 595.15l-131.154-657.96h98.366l85.25 373.79 96.18-93.994v-279.796h93.994v349.746l-98.366 93.994 28.416 139.898c61.206-69.95 153.014-115.854 255.752-115.854v91.808c-89.622 0-161.758 48.090-198.918 113.668l-48.090 74.323c-19.674 28.416-45.904 45.904-78.692 45.904-13.116 0-24.043-4.372-37.16-4.372l-242.636-102.738v-218.592h93.994v157.386l83.064 32.788zM558.998 754.722c-50.276 0-93.994 41.532-93.994 91.808s43.718 93.994 93.994 93.994 93.994-43.718 93.994-93.994-43.718-91.808-93.994-91.808z" />
<glyph unicode="&#xe901;" glyph-name="cm-logo" d="M927.692 407.408c-2.321-15.478-4.037-31.076-7.064-46.412-15.144-76.686-54.368-140.093-108.047-195.633-47.224-48.863-106.708-75.65-170.047-95.637-11.726-3.703-23.804-6.268-36.41-9.54 0 41.465 0 81.297 0 121.52 39.132 9.42 70.723 31.998 102.573 54.49 50.117 35.394 77.254 85.32 91.34 143.175 18.595 76.37-1.105 145.677-41.939 210.425-16.836 26.695-36.772 50.895-59.775 72.602-56.603 53.413-118.468 100.152-182.429 144.225-2.266 1.561-7.575 1.411-9.892-0.204-63.486-44.187-125.093-90.808-180.922-144.541-49.856-47.983-86.708-104.208-101.799-172.464-18.102-81.869 1.574-156.599 54.925-219.374 35.077-41.278 81.344-70.654 134.319-87.136 2.583-0.804 6.142-4.342 6.166-6.633 0.381-38.285 0.273-76.574 0.273-116.14-9.664 2.347-20.008 4.479-30.132 7.382-53.881 15.429-105.936 35.885-149.076 72.242-72.73 61.295-122.432 137.356-138.582 232.816-1.96 11.553-3.263 23.224-4.868 34.84 0 16.378 0 32.758 0 49.136 0.721 4.475 1.694 8.927 2.125 13.432 4.163 43.582 13.257 85.861 33.073 125.294 40.455 80.511 99.059 146.261 169.583 200.863 65.412 50.646 133.472 97.87 200.319 146.664 2.785 2.032 5.106 4.703 7.644 7.076 0.654 0 1.311 0 1.965 0 2.82-2.209 5.554-4.524 8.463-6.61 59.51-42.715 119.15-85.261 178.542-128.142 53.635-38.725 101.154-83.942 141.713-136.265 39.737-51.261 70.752-106.75 80.904-171.957 2.606-16.746 4.715-33.566 7.058-50.353-0.002-16.38-0.002-32.76-0.002-49.138zM452.053-72.162c0.14 22.913 0.057 45.832 0.464 68.742 0.875 49.117 2.738 98.231 2.708 147.346-0.014 23.114 0.136 47.234-6.024 69.15-19.582 69.654-55.823 128.318-122.744 162.525-13.363 6.834-28.859 9.497-44.382 14.403 0 36.437 0 74.331 0 114.961 14.605-2.087 28.967-3.693 43.159-6.244 62.256-11.189 109.601-45.887 147.731-94.721 13.428-17.202 26.363-34.783 38.963-51.454 14.263 19.487 28.751 39.679 43.651 59.569 38.582 51.487 91.038 79.318 153.734 89.371 11.238 1.8 22.561 3.033 34.283 4.583 0.405-3.021 0.884-4.902 0.877-6.783-0.122-34.061-0.344-68.123-0.417-102.184-0.014-5.708-0.601-9.731-7.85-10.871-36.64-5.745-66.645-23.839-92.25-50.188-48.030-49.425-71.863-108.723-71.413-177.356 0.507-76.951 2.17-153.897 3.329-230.842-41.271-0.008-82.545-0.008-123.819-0.008zM503.127 470.098c-64.966 0.244-116.254 50.38-116.025 113.418 0.23 62.545 52.481 112.691 117.223 112.5 64.29-0.189 116.628-51.328 116.363-113.692-0.267-62.348-52.772-112.469-117.561-112.227z" />
<glyph unicode="&#xe902;" d="M121.947 930.481c-55.996 0-101.622-45.73-101.622-101.83v-780.003c0-55.891 45.626-101.415 101.622-101.415h780.003c56.099 0 101.726 45.523 101.726 101.415v780.003c0 56.1-45.627 101.83-101.726 101.83h-780.003z" />
<glyph unicode="&#xe903;" d="M902.001-73.557c67.61 0 122.465 54.648 122.465 122.361v779.899c0 67.714-54.855 122.569-122.465 122.569h-780.003c-67.61 0-122.465-54.855-122.465-122.569v-779.899c0-67.714 54.855-122.361 122.465-122.361h780.003z" />
<glyph unicode="&#xe904;" d="M909.683 561.99c-2.024 33.129-12.038 40.351-48.923 65.293 4.048 8.238 6.496 17.481 6.496 27.158 0 36.307-31.973 65.632-71.266 65.632-26.483 0-49.548-13.291-61.828-33.129-7.508 4.961-12.76 9.674-14.348 14.398-6.205 20.993-27.495 34.428-50.705 34.332-9.193 24.751-33.754 42.471-62.646 42.471-23.546 0-44.396-11.942-56.145-29.903-7.184-1.734-14.734-3.857-21.861-6.562-31.588 4.961-51.186 4.538-63.224 5.152-24.173-17.189-98.954-87.925-98.954-87.925s-31.249-38.329-29.276-48.44c-18.106-8.105-184.76-129.339-200.939-149.465 0 0-57.542-41.41 14.157-115.229 71.65-73.672 140.364-83.736 166.606-52.438 26.292 31.252 131.312 183.75 132.276 205.948 16.179 15.119 26.243 29.276 26.243 29.276l59.612-6.114 18.202 17.238c0 0 14.108-18.201 39.34-12.132 19.213-17.192 47.479-43.435 47.479-43.435l60.624-32.358c0 0-149.513-160.539-163.621-193.86-14.157-33.274 9.048-98.954 95.87-137.379 86.915-38.378 128.374-21.139 148.31 28.266 0 0 56.723 147.491 68.906 221.114 33.321 78.007 61.635 158.807 59.612 192.079v0zM302.147 338.082c-60.769 0-111.522 45.455-124.523 106.369 21.283-4.247 46.804-16.469 70.975-35.392 28.458-22.344 48.346-48.826 55.28-70.977-0.415 0-1.062 0-1.734 0v0zM712.933 170.272c-57.974 0-106.993 41.41-122.595 98.229 25.423 2.887 58.89-4.911 91.103-23.064 33.755-19.117 58.169-45.216 67.894-69.436-11.556-3.708-23.787-5.724-36.403-5.724z" />
<glyph unicode="&#xe905;" d="M126.924 930.926c-59.003 0-106.911-48.011-106.911-107.118v-769.944c0-59.003 47.908-107.014 106.911-107.014h770.048c59.003 0 107.014 48.011 107.014 107.014v769.944c0 59.107-48.011 107.118-107.014 107.118h-770.048z" />
<glyph unicode="&#xe906;" d="M126.924 951.686c-70.41 0-127.65-57.551-127.65-127.857v-769.944c0-70.513 57.24-127.857 127.65-127.857h770.048c70.41 0 127.754 57.344 127.754 127.857v769.944c0 70.306-57.344 127.857-127.754 127.857h-770.048z" />
<glyph unicode="&#xe907;" d="M448.952 734.67c-37.020 0-66.988-29.553-66.988-66.054s29.968-66.054 66.988-66.054c36.812 0 66.884 29.553 66.884 66.054s-30.072 66.054-66.884 66.054z" />
<glyph unicode="&#xe908;" d="M788.495 604.034c-2.489 14.31-14.206 22.398-14.829 22.917l-393.527 259.344-36.501-52.989c-6.74-10.473-3.837-24.265 6.637-31.109 10.37-6.844 24.265-4.044 31.005 6.429l21.361 30.59 319.488-210.918-261.729-47.078c-18.562-3.111-31.938-21.673-27.791-39.819l56.929-220.147-184.164-276.454c-11.095-18.769-4.355-43.034 14.621-53.818 19.287-10.992 43.656-4.252 54.752 14.621 0 0 192.149 289.001 192.875 290.764 0 0 9.955-40.13 9.955-40.234l-28.931-216.829c-3.629-21.569 11.095-41.79 32.872-45.419s42.412 10.888 46.041 32.353l29.761 222.947c0.933 5.703-0.207 18.251-1.452 23.746l-65.743 261.107 170.891 30.798c18.354 3.215 30.694 20.843 27.479 39.197z" />
<glyph unicode="&#xe909;" d="M121.999 930.481c-56.1 0-101.623-45.523-101.623-101.622v-780.004c0-56.099 45.523-101.622 101.623-101.622h779.899c56.099 0 101.726 45.523 101.726 101.622v780.004c0 56.1-45.627 101.622-101.726 101.622h-779.899z" />
<glyph unicode="&#xe90a;" d="M901.95-73.558c67.61 0 122.465 54.855 122.465 122.569v779.899c0 67.61-54.855 122.362-122.465 122.362h-779.899c-67.714 0-122.465-54.752-122.465-122.362v-779.899c0-67.714 54.752-122.569 122.465-122.569h779.899z" />
<glyph unicode="&#xe90b;" d="M101.75 391.644v-357.854h758.041c0 0-21.794 34.181-77.874 42.386-70.714 10.192-112.682 22.944-173.413 53.257-69.146 34.442-121.515 31.411-137.978 68.309l-57.386-10.923c0 0-31.254-8.153-77.090 34.129s-58.17 51.585-58.17 51.585l-53.257 29.634-36.846 43.014c0 0-16.411 11.498-28.693 19.39-12.282 7.944-21.846 31.15-27.282 27.073-5.488-4.077-30.052 0-30.052 0z" />
<glyph unicode="&#xe90c;" d="M819.505 784.741c-0.176-32.502-27.836-58.701-61.781-58.518s-61.321 26.68-61.145 59.182c0.176 32.502 27.836 58.701 61.781 58.518s61.321-26.68 61.145-59.182z" />
<glyph unicode="&#xe90d;" d="M352.096 600.701c-92.299 0.523-167.612-72.125-168.134-162.228-0.523-90.051 74.006-163.483 166.305-164.005 92.403-0.523 167.612 72.125 168.134 162.176 0.47 90.104-73.954 163.535-166.305 164.058zM350.476 315.234c-69.198 0.418-125.068 55.505-124.703 123.030 0.366 67.578 56.811 122.089 126.009 121.671 69.302-0.366 125.173-55.557 124.807-123.082-0.366-67.578-56.811-121.985-126.114-121.619z" />
<glyph unicode="&#xe90e;" d="M755.995 425.093c-92.351 0.523-167.612-72.072-168.134-162.228-0.523-90.051 73.954-163.535 166.305-164.058s167.559 72.177 168.082 162.228c0.47 90.104-73.902 163.535-166.253 164.058zM754.427 139.626c-69.25 0.418-125.121 55.557-124.755 123.030 0.366 67.578 56.811 121.985 126.062 121.619 69.198-0.418 125.121-55.505 124.755-123.030s-56.864-122.037-126.062-121.619z" />
<glyph unicode="&#xe90f;" d="M820.907 560.928c-0.732 0.157-1.359 0-2.038 0 6.272-13.746 4.965-28.38-4.547-35.487-8.676-6.585-21.533-4.913-32.508 2.979l-280.816 25.975c-0.575 0.052-1.15-0.052-1.829-0.052-1.516 0.209-3.136 0-4.286-0.941l-145.87-108.344-1.672 0.105c-1.568 0.105-3.084-1.882-3.868-4.652-1.568-1.829-1.725-4.652-0.575-7.369 0.523-3.293 1.882-5.645 3.659-5.697l123.291-5.331c0.679 0 1.15 0.261 1.829 0.732 0.941 0.052 1.829 0.052 2.875 0.418l315.52 87.020c2.143 0.575 4.913 0 4.913 0l-49.86-233.778c-1.307-6.272 3.449-12.543 10.923-14.164 7.422-1.568 14.425 2.091 15.784 8.415l59.895 275.903c1.411 6.272-3.449 12.648-10.819 14.268zM645.612 487.34l-173.883-47.979c-0.418 0.209-0.732 0.418-1.098 0.47l-95.8 4.129 126.584 94.076 23.153-2.195 222.489-20.54-101.445-27.961z" />
<glyph unicode="&#xe910;" d="M525.875 344.188c-7.003-19.495 1.62-40.348 19.233-46.672 17.561-6.376 37.421 4.338 44.477 23.728l53.362 148.431-79.912-22.056-37.16-103.431z" />
<glyph unicode="&#xe911;" d="M635.264 518.49l-6.899 7.735-103.849 9.617 50.017-56.236-4.808-13.171 75.836 20.906c-0.052 1.098 0.052 2.195-0.052 3.24 0.366 9.669-2.979 19.704-10.244 27.909z" />
<glyph unicode="&#xe912;" d="M818.869 560.928c-1.463 3.136-3.136 6.115-5.279 9.094l-132.856 176.34c-11.916 15.888-30.993 21.742-42.543 12.962-5.279-4.024-44.581-25.871-63.24-36.951l-49.442-29.32c-29.373-17.352-49.338-41.393-55.557-63.292-5.54-12.752-3.188-28.954 7.422-40.818l31.359-35.331 103.849-9.512-44.529 49.912c4.181 1.986 8.31 3.972 12.282 6.324l49.494 29.373c18.763 11.080 33.554 25.035 43.536 39.25l98.414-130.608c3.031-3.92 6.376-7.369 10.035-9.93 10.976-7.84 23.833-9.564 32.508-2.979 9.512 7.108 10.819 21.742 4.547 35.487z" />
<glyph unicode="&#xe913;" d="M121.957 930.595c-55.996 0-101.622-45.73-101.622-101.83v-780.003c0-55.892 45.626-101.415 101.622-101.415h780.003c56.1 0 101.726 45.523 101.726 101.415v780.003c0 56.1-45.626 101.83-101.726 101.83h-780.003z" />
<glyph unicode="&#xe914;" d="M902.001-73.558c67.61 0 122.465 54.648 122.465 122.362v779.899c0 67.714-54.855 122.569-122.465 122.569h-780.003c-67.61 0-122.465-54.855-122.465-122.569v-779.899c0-67.714 54.855-122.362 122.465-122.362h780.003z" />
<glyph unicode="&#xe915;" d="M236.178 656.578v75.491h548.657v-75.491h-138.538l82.542-204.385h204.385v-75.491h-173.587l96.541-237.983h-93.741l-96.541 237.983h-312.126l-95.919-237.983h-93.741l95.815 237.983h-172.136v75.491h202.933l82.646 204.385h-137.19zM376.168 452.192h250.53l-82.542 204.385h-85.446l-82.542-204.385z" />
<glyph unicode="&#xe916;" d="M122.361 930.481c-55.996 0-101.622-45.73-101.622-101.83v-780.21c0-56.1 45.626-101.726 101.622-101.726h779.899c56.203 0 101.83 45.626 101.83 101.726v780.21c0 56.1-45.626 101.83-101.83 101.83h-779.899z" />
<glyph unicode="&#xe917;" d="M902.312-74.128c67.61 0 122.569 54.855 122.569 122.569v780.21c0 67.61-54.959 122.362-122.569 122.362h-779.899c-67.714 0-122.465-54.752-122.465-122.362v-780.21c0-67.714 54.752-122.569 122.465-122.569h779.899z" />
<glyph unicode="&#xe918;" d="M822.31 304c44.693 0 80.779 36.294 80.779 80.987 0 44.797-36.086 80.779-80.779 80.779s-80.779-35.983-80.779-80.779c0-44.693 36.086-80.987 80.779-80.987z" />
<glyph unicode="&#xe919;" d="M880.131 123.341c3.526-1.244 7.362-1.867 11.407-1.867 20.739 0 37.538 16.799 37.538 37.538 0 15.554-9.644 29.139-23.332 34.635l-111.785 43.552-81.298 144.553c0 0-6.74 15.969-30.279 24.68l-266.81 107.222-158.759 268.781c-9.229 15.347-26.131 25.924-45.523 25.924-29.346 0-53.092-23.954-53.092-53.3 0-9.333 2.385-18.043 6.637-25.717l197.023-334.213-124.85 49.982-31.42-18.976 498.779-196.297 20.324-32.353c0 0 8.088-17.421 32.353-26.961l61.803-24.058c-40.338-40.338-96.749-22.917-96.749-22.917l-609.111 244.619-33.701-20.013 636.073-251.567c73.935-26.961 134.39 37.642 134.39 37.642v-0.207l30.383-10.681z" />
<glyph unicode="&#xe91a;" d="M121.999 930.594c-56.203 0-101.726-45.73-101.726-101.83v-780.003c0-55.892 45.523-101.415 101.726-101.415h779.899c56.203 0 101.83 45.523 101.83 101.415v780.003c0 56.1-45.626 101.83-101.83 101.83h-779.899z" />
<glyph unicode="&#xe91b;" d="M901.95-73.558c67.61 0 122.569 54.648 122.569 122.362v779.899c0 67.714-54.959 122.569-122.569 122.569h-779.899c-67.714 0-122.569-54.855-122.569-122.569v-779.899c0-67.714 54.855-122.362 122.569-122.362h779.899z" />
<glyph unicode="&#xe91c;" d="M926.049 105.888c-17.836 0-34.842 4.044-49.982 10.888-15.658 7.155-33.286 11.407-51.641 11.407-18.458 0-36.086-4.252-51.744-11.407-15.14-6.844-32.146-10.888-49.982-10.888s-34.842 4.044-49.982 10.888c-15.866 7.155-33.494 11.407-51.641 11.407-18.458 0-36.086-4.252-51.641-11.407-15.243-6.844-32.457-10.888-50.085-10.888-17.836 0-34.842 4.044-50.189 10.888-15.658 7.155-33.286 11.407-51.433 11.407-18.458 0-36.086-4.252-51.641-11.407-15.243-6.844-32.457-10.888-50.293-10.888-17.628 0-34.842 4.044-49.982 10.888-15.658 7.155-33.183 11.407-51.641 11.407-18.251 0-35.879-4.252-51.433-11.407-15.451-6.844-32.457-10.888-50.293-10.888v75.18c17.836 0 34.842 4.044 50.293 10.681 15.554 7.259 33.183 11.51 51.433 11.51 18.458 0 35.983-4.252 51.641-11.51 15.14-6.637 32.353-10.681 49.982-10.681 17.836 0 35.049 4.044 50.293 10.681 15.554 7.259 33.183 11.51 51.641 11.51 18.147 0 35.775-4.252 51.433-11.51 15.347-6.637 32.353-10.681 50.189-10.681 17.628 0 34.842 4.044 50.085 10.681 15.554 7.259 33.183 11.51 51.641 11.51 18.147 0 35.775-4.252 51.641-11.51 15.14-6.637 32.146-10.681 49.982-10.681s34.842 4.044 49.982 10.681c15.658 7.259 33.286 11.51 51.744 11.51 18.354 0 35.983-4.252 51.641-11.51 15.14-6.637 32.146-10.681 49.982-10.681v-75.18z" />
<glyph unicode="&#xe91d;" d="M808.178 318.341c53.507 0 96.852 43.552 96.852 97.060 0 53.404-43.345 96.749-96.852 96.749s-96.852-43.345-96.852-96.749c0-53.507 39.508-97.060 96.852-97.060z" />
<glyph unicode="&#xe91e;" d="M244.527 263.859c7.466-1.763 14.621-4.459 21.258-7.466 15.243-6.948 32.457-10.992 49.982-10.992 17.836 0 35.049 4.044 50.293 10.992 15.554 7.051 33.183 11.51 51.641 11.51 18.251 0 35.879-4.459 51.433-11.51 15.347-6.948 32.457-10.992 50.189-10.992 17.628 0 34.842 4.044 50.085 10.992 15.554 7.051 33.183 11.51 51.641 11.51 18.251 0 35.879-4.459 51.641-11.51 15.14-6.948 32.146-10.992 49.982-10.992 12.962 0 25.509 2.281 37.331 5.911l-161.455 291.49 187.794 34.22c27.479 5.185 47.597 26.857 47.597 54.648 0 30.59-24.991 55.063-55.374 55.063-2.178 0-4.252 0-6.222-0.207l-290.038-52.885c-20.428-4.563-47.389-34.427-32.042-71.032 0.83-2.074 1.659-3.837 2.489-5.911l75.698-136.672-283.92-156.166z" />
<glyph unicode="&#xe91f;" d="M902.041-73.609c67.617 0 122.478 54.653 122.478 122.373v779.978c0 67.72-54.861 122.581-122.478 122.581h-780.082c-67.617 0-122.477-54.861-122.477-122.581v-779.978c0-67.72 54.86-122.373 122.477-122.373h780.082z" />
<glyph unicode="&#xe920;" d="M506.433 431.663c30.985-0.84 56.77 23.527 57.663 54.46 0.945 30.985-23.475 56.77-54.355 57.716-31.037 0.893-56.875-23.422-57.768-54.407s23.475-56.823 54.46-57.768v0z" />
<glyph unicode="&#xe921;" d="M401.61 455.873c10.293 0.158 42.801-5.042 64.333-21.532 21.479-16.438 35.816-35.291 41.593-45.007 1.786-2.888 3.834-6.197 4.411-10.136 0.788 3.886 2.048 7.615 3.519 9.663 3.939 6.197 21.584 29.147 30.407 36.709 16.123 13.759 33.978 27.256 77.514 31.142l-0.315-58.976c-7.877-0.315-24.683-4.989-39.23-17.068-14.81-12.499-31.142-36.499-36.289-53.619s-5.987-31.352-6.302-41.541l-0.84-114.644-55.3-0.263-0.21 114.381c-0.158 10.766-2.311 32.77-8.088 43.641-5.724 10.923-18.276 40.91-40.805 55.405-6.932 4.411-17.383 13.549-34.188 13.602l-0.21 58.241z" />
<glyph unicode="&#xe922;" d="M511.632 600.188c1.418-1.786 3.939-4.569 6.46-6.302 3.309-2.258 44.954-28.779 86.442-70.372 13.024-13.077 48.21-55.405 48.42-107.659 0.158-46.687-26.206-80.193-29.409-83.659-9.873-11.081-45.847-39.755-66.749-42.381l-0.315-60.709c25.996 5.147 69.794 22.004 94.635 47.055 24.84 25.155 45.479 55.3 54.722 93.374 10.661 43.746 2.888 93.584-10.661 122.364-18.066 38.6-49.155 75.151-88.123 106.241l-95.685 71.055-95.37-71.422c-38.862-31.405-69.637-68.061-87.598-106.714-13.444-28.884-21.007-78.775-10.031-122.469 9.453-38.022 30.197-68.114 55.142-93.059 24.998-24.998 68.849-41.646 94.845-46.635l-0.578 60.657c-20.902 2.468-57.033 31.090-66.906 42.118-3.256 3.309-29.724 36.762-29.724 83.449-0.053 52.254 34.923 94.74 47.843 107.869 41.278 41.908 82.766 68.534 86.127 70.845 2.573 1.733 4.989 4.569 6.512 6.355v0z" />
<glyph unicode="&#xe923;" d="M841.541 86.524h-659.082v513.454h32.298v-481.209h594.645v481.209h32.14z" />
<glyph unicode="&#xe924;" d="M512.053 791.191l425.121-224.928-15.020-28.516-410.102 216.998-410.154-216.998-15.072 28.516z" />
<glyph unicode="&#xe925;" d="M121.999 930.49c-55.996 0-101.622-45.626-101.622-101.726v-780.003c0-55.996 45.626-101.519 101.622-101.519h779.899c56.1 0 101.726 45.523 101.726 101.519v780.003c0 56.1-45.626 101.726-101.726 101.726h-779.899z" />
<glyph unicode="&#xe926;" d="M901.95-73.558c67.61 0 122.465 54.752 122.465 122.362v780.003c0 67.61-54.855 122.465-122.465 122.465h-779.899c-67.714 0-122.465-54.855-122.465-122.465v-780.003c0-67.61 54.752-122.362 122.465-122.362h779.899z" />
<glyph unicode="&#xe927;" d="M467.411 590.688c0-27.065-24.576-55.892-56.514-55.892v-456.471c0-64.706-88.349-64.706-88.349 0v456.471c-31.109 0-58.174 23.954-58.174 59.936v251.152c0 21.88 31.627 22.813 31.627-0.83v-185.72h54.544v187.172c0 20.947 29.553 21.776 29.553-0.83v-186.342h56.514v187.172c0 20.636 30.798 21.465 30.798-0.83v-254.989z" />
<glyph unicode="&#xe928;" d="M744.373 787.452v-708.867c0-63.358-88.557-62.529-88.557 0v281.12h-47.182v427.747c0 99.445 135.738 99.445 135.738 0z" />
<glyph unicode="&#xe929;" d="M121.999 930.542c-56.203 0-101.726-45.626-101.726-101.726v-779.899c0-56.1 45.523-101.726 101.726-101.726h779.899c56.203 0 101.83 45.626 101.83 101.726v779.899c0 56.1-45.626 101.726-101.83 101.726h-779.899z" />
<glyph unicode="&#xe92a;" d="M901.95-73.558c67.61 0 122.569 54.752 122.569 122.465v779.899c0 67.61-54.959 122.465-122.569 122.465h-779.899c-67.714 0-122.569-54.855-122.569-122.465v-779.899c0-67.714 54.855-122.465 122.569-122.465h779.899z" />
<glyph unicode="&#xe92b;" d="M920.18 70.040c-197.438-2.903-403.897 34.738-561.826 161.662-1.037 1.037-1.452 2.178-1.452 3.629 0 2.903 2.489 5.289 5.289 5.289l155.752-0.207c7.466 0 13.792 6.222 13.792 13.792 0 5.703-2.592 9.644-8.71 12.651l-140.716 67.195c-2.696 1.659-4.459 4.563-4.459 7.881 0 2.592 0.933 4.874 2.592 6.533 0 0 171.514 151.604 539.739 148.286v-426.71zM590.011 310.2c18.458 0 33.286 14.932 33.286 33.39 0 18.354-14.829 33.286-33.286 33.286-18.354 0-33.39-14.932-33.39-33.286 0-18.458 15.036-33.39 33.39-33.39z" />
<glyph unicode="&#xe92c;" d="M844.99 825.882c-122.050-1.348-241.405-53.404-375.277-163.218-4.977 1.452-15.969 4.355-15.969 4.355-21.258 0-38.575-17.214-38.575-38.471 0 0 1.555-7.155 2.385-11.614-4.044-3.837-108.155-101.519-108.155-101.519l-91.979-86.69c-8.71-7.881-19.806-11.821-31.524-11.303-11.614 0.518-22.295 5.6-30.072 14.206-7.57 8.296-11.199 18.769-11.199 29.346 0 11.821 4.77 23.643 14.103 32.146 0 0 6.948 3.837 12.132 6.844 1.141-7.881 4.459-31.938 4.459-31.938l74.972 95.608-82.75-28.205c-21.88-7.466-30.798-18.458-31.109-18.976-30.383-27.376-32.768-75.491-4.666-106.6 28.102-31.005 76.32-33.286 107.326-5.081l0.83 0.933 87.209 83.061c0 0 107.74 101.933 111.266 105.252 5.185-1.348 15.347-3.94 15.347-3.94 21.154 0 38.368 17.214 38.368 38.471 0 0-1.037 5.6-1.763 9.644 129.517 106.6 242.753 157.1 356.196 158.448 23.228 0.207 41.893-2.903 72.484-9.333l6.325-1.452v30.383l-4.148 0.83c-31.524 6.74-52.263 9.125-76.217 8.814z" />
<glyph unicode="&#xe92d;" d="M122.011 930.592c-56.209 0-101.736-45.631-101.736-101.736v-780.082c0-56.002 45.527-101.633 101.736-101.633h779.978c56.105 0 101.736 45.631 101.736 101.633v780.082c0 56.105-45.631 101.736-101.736 101.736h-779.978z" />
<glyph unicode="&#xe92e;" d="M902.041-73.61c67.617 0 122.478 54.757 122.478 122.478v779.978c0 67.617-54.861 122.478-122.478 122.478h-779.978c-67.72 0-122.581-54.861-122.581-122.478v-779.978c0-67.72 54.861-122.478 122.581-122.478h779.978z" />
<glyph unicode="&#xe92f;" d="M224.504 745.040l172.568-46.979 95.825 66.372 33.29-7.985-94.892-66.58 522.993-143.426-38.268-140.419-524.963 143.012c-203.369 60.461-166.242 196.109-166.242 196.109z" />
<glyph unicode="&#xe930;" d="M678.117 385.925c-0.622 11.719-2.8 22.919-6.637 33.497l236.659-65.854-7.571-29.142-222.451 61.498z" />
<glyph unicode="&#xe931;" d="M463.216 445.276c6.326 9.334 14 17.734 22.608 24.89l-394.811 108.996v-31.319l372.203-102.566z" />
<glyph unicode="&#xe932;" d="M946.199 105.699c-18.771 0-36.608 4.252-52.476 11.408-16.489 7.674-34.949 12.030-54.239 12.030s-37.853-4.356-54.135-12.030c-16.075-7.156-33.912-11.408-52.683-11.408-18.667 0-36.505 4.252-52.579 11.408-16.489 7.674-34.845 12.030-54.135 12.030s-37.749-4.356-54.239-12.030c-15.971-7.156-34.016-11.408-52.579-11.408-18.667 0-36.608 4.252-52.579 11.408-16.489 7.674-35.053 12.030-54.239 12.030-19.289 0-37.853-4.356-54.135-12.030-15.971-7.156-34.016-11.408-52.683-11.408-18.563 0-36.505 4.252-52.683 11.408-16.282 7.674-34.742 12.030-54.031 12.030s-37.749-4.356-54.239-12.030c-15.971-7.156-34.016-11.408-52.476-11.408l-1.244 313.402 431.731-118.952c-29.764 14.415-50.401 44.594-50.401 79.647 0 49.053 39.616 88.773 88.669 88.773 48.95 0 88.773-39.72 88.773-88.773 0-48.846-39.823-88.669-88.773-88.669-2.904 0-5.911 0.622-8.711 0.933l393.463-108.477 0.622-77.884zM560.825 341.424c21.26 0 38.475 17.112 38.475 38.371 0 21.364-17.215 38.579-38.475 38.579s-38.475-17.215-38.475-38.579c0-21.26 17.215-38.371 38.475-38.371z" />
<glyph unicode="&#xe933;" glyph-name="baseball" d="M614.204 710.993c0-56.362-45.687-102.050-102.050-102.050s-102.049 45.687-102.049 102.050c0 56.362 45.687 102.050 102.049 102.050s102.050-45.688 102.050-102.050zM410.105 930.054c0 10.519-8.534 19.052-19.052 19.052 0 0 0 0 0 0-6.657-1.781-12.604-5.588-17.011-10.888l-168.045-301.384c-0.426-2.934-0.426-5.913 0-8.847 0-10.519 8.533-19.052 19.052-19.052 6.903 1.649 13.099 5.466 17.685 10.888l167.362 301.384c0.426 2.934 0.426 5.913 0 8.847zM811.506-16.969v0l-197.293 531.342c-3.228 15.46-16.855 26.538-32.656 26.533h-340.163c-18.779 0-34.013-15.234-34.013-34.013s15.234-34.013 34.013-34.013h168.72l98.651-170.761-290.505-313.63c-7.765-6.336-12.257-15.829-12.245-25.849 0-18.779 15.234-34.013 34.013-34.013 8.331 0.044 16.334 3.198 22.451 8.847v0l302.751 282.341 187.772-272.136c6.085-10.833 17.515-17.583 29.932-17.686 19.020-0.012 34.641 15.011 35.38 34.013-0.245 6.891-2.654 13.536-6.806 19.052z" />
<glyph unicode="&#xe934;" glyph-name="basketball" d="M679.613 735.341c0-57.084-46.276-103.363-103.363-103.363s-103.363 46.276-103.363 103.363c0 57.084 46.276 103.363 103.363 103.363s103.363-46.276 103.363-103.363zM984.259 213.094l-195.843 54.4-59.839 81.601-27.201 174.081c32.641-10.879 70.722-32.641 70.722-81.601 0-27.201 21.762-43.52 48.96-43.52 0 0 0 0 5.44 0 27.201 0 43.52 21.762 43.52 48.96-5.44 119.682-119.682 168.642-184.964 179.524 0 0-103.363 0-174.081 0-38.081 0-65.282 10.879-81.601 32.641-38.081 38.081-38.081 103.363-38.081 125.121 5.44 27.201-16.319 48.96-43.52 54.4 0 0 0 0 0 0 0 5.44 5.44 16.319 5.44 27.201 0 43.52-38.081 81.601-87.041 81.601s-87.041-38.081-87.041-87.041c0-48.96 38.081-87.041 87.041-87.041 10.879 0 21.762 0 32.641 5.44 0-32.641 0-119.682 54.4-184.964 38.081-43.52 87.041-65.282 152.323-65.282v0l32.641-223.044 5.44-157.762c0-10.879 5.44-21.762 10.879-32.641l141.443-168.642c10.879-10.879 21.762-16.319 38.081-16.319 10.879 0 21.762 5.44 32.641 10.879 21.762 16.319 21.762 48.96 5.44 65.282l-130.561 157.762 5.44 141.443 87.041-114.242c5.44-5.44 16.319-16.319 21.762-16.319l206.722-59.839c5.44 0 10.879 0 10.879 0 21.762 0 38.081 10.879 43.52 32.641 10.879 27.201-5.44 54.4-32.641 65.282zM16.584 749.303l-12.22-6.162 119.747-239.279 12.113 6.055zM70.983 749.303l-12.22-6.162 119.747-239.279 12.113 6.055zM125.386 749.303l-12.22-6.162 81.601-163.202 12.22 6.162zM179.786 749.303l-12.22-6.162 43.563-87.021 12.113 6.055zM189.35 553.375l-21.781-43.455 12.22-6.055 21.781 43.455zM232.912 749.303l-119.747-239.386 12.22-6.055 119.639 239.279zM178.51 749.303l-119.747-239.386 12.22-6.055 119.639 239.279zM124.11 749.303l-81.601-163.202 12.113-6.162 81.601 163.202zM69.71 749.303l-43.563-87.125 12.22-6.055 43.455 87.021zM9.145 765.241c-7.218-0.377-12.926-6.324-12.926-13.601 0-7.522 6.096-13.617 13.617-13.617 0.245 0 0.485 0.005 0.724 0.018l-0.032-0.001h228.442c0.057-0.001 0.125-0.001 0.193-0.001 7.512 0 13.602 6.090 13.602 13.602s-6.090 13.602-13.602 13.602c-0.068 0-0.136 0-0.204-0.001h-228.431c-0.207 0.012-0.447 0.017-0.692 0.017s-0.485-0.005-0.724-0.018l0.032 0.001z" />
<glyph unicode="&#xe942;" glyph-name="boat_rental" d="M845.285 259.55c-20.207 0-35.357-5.047-55.563-10.103-15.15-5.047-35.357-10.103-50.507-10.103-20.207 0-35.357 5.047-50.507 10.103s-35.357 10.103-55.563 10.103c-20.207 0-35.357-5.047-55.563-10.103-15.15-5.047-35.357-10.103-50.507-10.103s-35.357 5.047-50.507 10.103c-15.15 5.047-35.357 10.103-55.563 10.103s-35.357-5.047-55.563-10.103c-15.15-5.047-35.357-10.103-50.507-10.103-20.207 0-35.357 5.047-50.507 10.103s-35.357 10.103-55.563 10.103c-20.207 0-35.357-5.047-55.563-10.103-15.15-5.047-35.357-10.103-50.507-10.103v-75.76c20.207 0 35.357 5.047 50.507 10.103s35.357 10.103 55.563 10.103c20.207 0 35.357-5.047 55.563-10.103 15.15-5.047 30.31-10.103 45.46-10.103l-65.667-65.667c-20.207 15.15-45.46 10.103-65.667-5.047l-75.76-75.76c-20.207-20.207-20.207-55.563 0-75.76s55.563-20.207 75.76 0l75.76 75.76c15.15 15.15 20.207 40.403 10.103 60.61l90.92 90.92c5.047 0 10.103 5.047 15.15 5.047 15.15 5.047 35.357 10.103 55.563 10.103s35.357-5.047 55.563-10.103c15.15-5.047 35.357-10.103 50.507-10.103s35.357 5.047 50.507 10.103c15.15 5.047 35.357 10.103 55.563 10.103s35.357-5.047 55.563-10.103c15.15-5.047 35.357-10.103 50.507-10.103 20.207 0 35.357 5.047 50.507 10.103s35.357 10.103 55.563 10.103c20.207 0 35.357-5.047 55.563-10.103 15.15-5.047 35.357-10.103 50.507-10.103v75.76c-20.207 0-35.357 5.047-50.507 10.103-20.207 5.047-40.403 10.103-60.61 10.103zM880.641 638.37l75.76 75.76c20.207 20.207 20.207 55.563 0 75.76s-55.563 20.207-75.76 0l-75.76-75.76c-20.207-20.207-20.207-45.46-5.047-65.667l-90.92-90.92-181.84 65.667c-5.047 5.047-10.103 5.047-15.15 5.047-40.403 10.103-80.817-10.103-95.967-50.507l-55.563-186.887c0 0 0-5.047 0-5.047h-247.497v-101.023c15.15 0 25.253 5.047 40.403 10.103 20.207 10.103 40.403 15.15 65.667 15.15 20.207 0 45.46-5.047 65.667-15.15 15.15-5.047 25.253-10.103 40.403-10.103s25.253 5.047 40.403 10.103c20.207 10.103 40.403 15.15 65.667 15.15 20.207 0 45.46-5.047 65.667-15.15 15.15-5.047 25.253-10.103 40.403-10.103s25.253 5.047 40.403 10.103c20.207 10.103 40.403 15.15 65.667 15.15 20.207 0 45.46-5.047 65.667-15.15 15.15-5.047 25.253-10.103 40.403-10.103s25.253 5.047 40.403 10.103c20.207 10.103 40.403 15.15 65.667 15.15 5.047 0 20.207 0 35.357 10.103 25.253 10.103 35.357 20.207 60.61 30.31 20.207 10.103 35.357 35.357-5.047 35.357-10.103 0-358.623 0-358.623 0l106.070 106.070 15.15-5.047c20.207-5.047 40.403 5.047 45.46 20.207s0 25.253-10.103 35.357l85.863 85.863c10.103-10.103 35.357-5.047 50.507 10.103zM537.178 385.817h-20.207l45.46 151.53 90.92-35.357zM537.178 724.234l-10.103-20.207c-5.047-15.15-20.207-20.207-35.357-20.207h-20.207c15.15-20.207 35.357-30.31 60.61-30.31 40.403 0 70.713 30.31 70.713 70.713v5.047l-65.667-5.047c5.047 0 0 0 0 0zM496.775 698.98c10.103 0 15.15 5.047 20.207 10.103l10.103 20.207c5.047 10.103 10.103 15.15 20.207 15.15h75.76c-10.103 35.357-45.46 65.667-85.863 65.667-50.507 0-85.863-40.403-85.863-85.863 0-10.103 0-15.15 5.047-25.253zM188.658 744.44c-15.15 5.047-25.253 10.103-30.31 15.15-10.103 10.103-20.207 20.207-20.207 40.403 0 15.15 5.047 25.253 10.103 35.357 10.103 10.103 20.207 15.15 35.357 15.15v-106.070zM218.968 653.52c15.15-5.047 25.253-10.103 35.357-15.15 10.103-10.103 15.15-25.253 15.15-40.403 0-20.207-5.047-35.357-20.207-45.46-5.047-5.047-20.207-10.103-35.357-10.103v111.117zM264.428 784.854h75.76c0 45.46-20.207 80.817-50.507 101.023-20.207 15.15-45.46 20.207-75.76 25.253v40.403h-30.31v-40.403c-20.207 0-35.357-5.047-45.46-5.047-15.15-5.047-30.31-15.15-45.46-30.31-10.103-10.103-20.207-25.253-25.253-40.403s-10.103-30.31-10.103-50.507c0-25.253 10.103-50.507 25.253-70.713s40.403-35.357 80.817-45.46l25.253-5.047v-126.277c-20.207 5.047-35.357 10.103-45.46 25.253-5.047 10.103-10.103 25.253-10.103 50.507h-80.817c0-55.563 15.15-90.92 50.507-116.173 20.207-10.103 45.46-20.207 85.863-25.253v-60.61h30.31v60.61c30.31 0 55.563 10.103 80.817 25.253 35.357 20.207 55.563 55.563 55.563 106.070 0 35.357-15.15 65.667-40.403 85.863-15.15 10.103-45.46 25.253-90.92 40.403v111.117c20.207 0 30.31-10.103 40.403-25.253-5.047 0 0-15.15 0-30.31z" />
<glyph unicode="&#xe943;" glyph-name="drink" d="M606.449 947.021c135.926 23.14 161.397-179.511 40.684-203.426-139.603-27.454-173.851 180.642-40.684 203.426zM430.263 612.62c-59.153-25.898-123.259-66.511-185.313-97.15 0-140.806 0-270.506 0-413.509 0-44.226 7.357-99.272-6.791-131.042-19.953-44.93-100.973-61.489-133.306-11.251-20.378 31.629-13.515 109.814-13.515 167.127 0 117.246 0 231.449 0 356.971 0 57.737-7.218 139.18 11.251 173.993 21.228 39.836 101.325 69.483 144.699 92.693 57.455 30.639 103.237 66.866 155.808 81.3 46.276 12.665 109.814-27.101 121.987-70.049 15.494-53.918-12.098-154.748 2.335-214.607 6.226-25.969 42.101-49.672 58.73-67.785 18.398-20.025 49.53-45.78 49.672-74.579 0.142-29.080-24.624-49.672-49.672-49.672-37.149 0-62.268 44.507-83.635 67.714-23.634 25.685-62.407 56.747-70.049 81.371-9.764 31.486 2.687 69.344-2.193 108.472zM784.971 768.496c45.426 9.835-9.055-61.065-13.515-15.85-1.203 12.028 3.254 13.657 13.515 15.85zM762.326 745.926c-11.889-13.159-28.87-4.385-27.172 8.987 2.335 16.202 31.558 17.9 27.172-8.987zM728.504 750.454c4.741-8.774 0.424-17.196-4.457-22.57-7.785-0.989-12.736 0.85-18.114 2.193-10.4 17.263 9.339 33.113 22.57 20.378zM814.335 750.454c0.989 5.023 11.109 0.919 15.85 2.193 35.732-36.157-50.308-37.715-15.85-2.193zM771.384 705.242c-25.332-5.093-25.543 23.279-11.322 27.101 14.294 3.823 25.471-14.718 11.322-27.101zM678.833 702.975c-11.393 25.685 22.431 29.789 24.837 11.322 1.417-11.461-13.373-19.317-24.837-11.322zM864.007 721.021c22.784-22.57-20.236-45.001-27.101-20.236-3.751 13.301 7.855 28.728 27.101 20.236zM812.14 716.49c-0.424-2.62 0.424-4.032 2.193-4.457-7.785-57.032-60.851 24.553-2.193 4.457zM744.283 700.782c-2.122-0.142-1.698-2.759-2.193-4.528-48.963-14.504-4.032 53.351 2.193 4.528zM821.126 691.727c25.261 6.51 23.987-35.38 0-31.629-16.344 2.478-19.883 26.464 0 31.629zM690.084 684.861c1.275-8.987 1.275-6.791 0-15.779-29.364-21.367-29.508 37.572 0 15.779zM723.977 682.669c1.203-9.055 1.203-6.863 0-15.85-29.364-21.367-29.508 37.572 0 15.85zM690.084 641.984c-1.417-9.197-6.582-14.504-15.85-15.85-4.318 3.254-8.066 7.005-11.322 11.322-1.275 16.344 23.702 17.477 27.172 4.528zM723.977 639.649c-1.417-9.197-6.724-14.434-15.921-15.85-24.482 9.764 6.226 40.473 15.921 15.85zM934.055 612.62c0-98.638 0-197.272 0-295.977-43.656 10.543-113.918-13.796-160.478 0-18.538 5.521-39.836 42.243-56.466 60.922-40.969 46.557-71.608 76.772-110.665 119.791-14.718 16.202-44.649 46.841-45.215 69.978-1.275 55.968 57.737 45.215 117.527 45.215 83.354 0.072 170.242 0.072 255.293 0.072z" />
<glyph unicode="&#xe944;" glyph-name="gifts" d="M537.848 354.85h193.861v-342.488h-193.861zM298.753 354.85h193.861v-342.488h-193.861zM492.614 400.085h-193.861v232.633h193.861zM725.247 400.085h-193.861v232.633h193.861zM757.558 697.338h-129.241l103.392 38.772c12.924 6.462 19.386 19.386 12.924 25.848-6.462 12.924-19.386 19.386-25.848 12.924 0 0-58.158-25.848-116.317-45.234 45.234 45.234 96.93 96.93 96.93 96.93 6.462 6.462 6.462 12.924 6.462 12.924 0 6.462 0 12.924-6.462 12.924-6.462 6.462-19.386 6.462-32.31 0l-135.702-129.241v187.399c0 12.924-6.462 19.386-19.386 19.386v0c-12.924 0-19.386-6.462-19.386-19.386 0 0 0-122.779 0-187.399-45.234 45.234-122.779 122.779-122.779 122.779-6.462 6.462-19.386 6.462-32.31 0-6.462-6.462-6.462-19.386 0-32.31l84.007-84.007-122.779 45.234c-12.924 6.462-25.848 0-25.848-12.924-6.462-12.924 0-25.848 12.924-25.848l103.392-38.772h-122.779c-19.386 0-32.31-12.924-32.31-32.31v-684.976c0-19.386 12.924-32.31 32.31-32.31h491.114c19.386 0 32.31 12.924 32.31 32.31v684.976c0 19.386-12.924 32.31-32.31 32.31z" />
<glyph unicode="&#xe945;" glyph-name="playground" d="M128.13 314.503c62.172 0 112.59 48.658 112.59 108.659 0 59.865-50.418 108.385-112.59 108.385-62.030 0-112.308-48.52-112.308-108.385 0-60.002 50.276-108.659 112.308-108.659zM758.636 127.937c5.24 3.417 12.18 2.461 16.004-2.461l20.818-27.745c3.54-4.783 2.408-11.754-2.55-15.444l-152.67-107.019c-4.956-3.553-12.18-2.461-16.004 2.323l-20.818 27.883c-3.54 4.783-2.408 11.754 2.55 15.444zM585.998 265.983l-60.614 102.509-31.724-22.415 60.474-103.054zM444.658 505.441l-235.52 399.1-45.036-0.274 248.408-421.515zM666.44 294.276c13.312 9.295 28.608 16.539 46.028 16.539l218.808-0.272c42.486 0 76.902-33.35 76.902-74.217 0-41.141-34.414-74.217-76.902-74.217l-182.694 0.272-233.112-158.819c-82.142-57.13-131.992 5.604-131.992 5.604l-182.978 176.724c-30.59 35.537-24.076 103.054 12.746 132.851l253.222 174.127c25.208 20.228 62.598 17.084 83.84-6.97 21.102-24.328 17.702-60.548-7.506-80.913l-162.016-114.399 116.414-111.119z" />
<glyph unicode="&#xe946;" glyph-name="restroom" d="M512 859.428h93.46v-841.143h-93.46v841.143zM932.571 672.507h-186.921v-46.731h-46.731v-280.381h46.731v233.65h46.731v-560.762h46.731v280.381h46.731v-280.381h46.731v560.762h46.731v-233.65h46.731v280.381h-46.731v46.731zM138.159 672.507l-93.46-46.731v-46.731l-46.731-186.921h46.731l46.731 186.921h46.731v-46.731l-93.46-280.381h93.46v-233.65h46.731v233.65h46.731v-233.65h46.731v233.65h93.46l-93.46 280.381v46.731h46.731l46.731-186.921h46.731l-46.731 186.921v46.731l-93.46 46.731zM278.35 789.333c0-38.712-31.383-70.095-70.095-70.095s-70.095 31.383-70.095 70.095c0 38.712 31.383 70.095 70.095 70.095s70.095-31.383 70.095-70.095zM932.571 789.333c0-38.712-31.383-70.095-70.095-70.095s-70.095 31.383-70.095 70.095c0 38.712 31.383 70.095 70.095 70.095s70.095-31.383 70.095-70.095z" />
<glyph unicode="&#xe947;" glyph-name="volleyball" d="M452.879 852.706c14.78 14.78 36.952 14.78 51.732 14.78 66.512 0 133.024-22.172 192.145-59.12-81.292-44.34-147.805-118.244-184.757-206.925-22.172-44.34-36.952-103.464-36.952-147.805-29.56-22.172-73.9-29.56-103.464-29.56s-59.12 0-88.68 0c0 59.12 7.392 125.632 29.56 184.757 29.56 96.072 73.9 184.757 140.412 243.877zM896.289 372.344c-36.952 88.68-81.292 177.365-147.805 236.485-29.56 36.952-66.512 66.512-103.464 88.68 29.56 29.56 66.512 59.12 110.852 81.292 0 0 7.392 0 7.392 0 88.68-81.292 140.412-206.925 140.412-332.557-7.392-29.56-7.392-51.732-7.392-73.9zM238.563 446.249c-36.952 14.78-81.292 36.952-110.852 59.12 0 0 0 7.392 0 14.78 22.172 155.193 118.244 273.437 251.265 325.169-59.12-73.9-96.072-162.585-118.244-258.657-14.78-44.34-22.172-96.072-22.172-140.412zM704.144 69.347c0 96.072-22.172 192.145-73.9 273.437-29.56 44.34-59.12 81.292-96.072 118.244 0 0 0 0 0 0 7.392 66.512 29.56 140.412 66.512 192.145v0c44.34-29.56 88.68-66.512 125.632-103.464 66.512-73.9 110.852-162.585 133.024-258.657v-14.78c-22.172-88.68-81.292-162.585-155.193-206.925zM260.735 106.299c81.292-14.78 155.193-7.392 229.097 14.78 51.732 14.78 103.464 36.952 155.193 66.512 7.392-44.34 14.78-81.292 7.392-125.632 0-7.392 0-7.392-7.392-14.78 0 0-7.392-7.392-7.392-7.392-44.34-14.78-81.292-22.172-125.632-22.172-96.072-7.392-184.757 22.172-251.265 88.68zM622.852 239.32c-14.78-7.392-29.56-22.172-44.34-29.56-29.56-14.78-66.512-29.56-96.072-36.952-88.68-22.172-184.757-22.172-273.437 14.78-7.392 0-29.56 29.56-36.952 36.952-36.952 66.512-51.732 133.024-51.732 214.317v0c22.172-14.78 44.34-22.172 66.512-29.56 103.464-51.732 221.705-44.34 325.169 7.392 44.34-51.732 88.68-103.464 110.852-177.365z" />
<glyph unicode="&#xf002;" glyph-name="search" horiz-adv-x="951" d="M658.286 475.428c0 141.143-114.857 256-256 256s-256-114.857-256-256 114.857-256 256-256 256 114.857 256 256zM950.857 0c0-40-33.143-73.143-73.143-73.143-19.429 0-38.286 8-51.429 21.714l-196 195.429c-66.857-46.286-146.857-70.857-228-70.857-222.286 0-402.286 180-402.286 402.286s180 402.286 402.286 402.286 402.286-180 402.286-402.286c0-81.143-24.571-161.143-70.857-228l196-196c13.143-13.143 21.143-32 21.143-51.429z" />
<glyph unicode="&#xf005;" glyph-name="star" horiz-adv-x="951" d="M950.857 581.143c0-10.286-7.429-20-14.857-27.429l-207.429-202.286 49.143-285.714c0.571-4 0.571-7.429 0.571-11.429 0-14.857-6.857-28.571-23.429-28.571-8 0-16 2.857-22.857 6.857l-256.571 134.857-256.571-134.857c-7.429-4-14.857-6.857-22.857-6.857-16.571 0-24 13.714-24 28.571 0 4 0.571 7.429 1.143 11.429l49.143 285.714-208 202.286c-6.857 7.429-14.286 17.143-14.286 27.429 0 17.143 17.714 24 32 26.286l286.857 41.714 128.571 260c5.143 10.857 14.857 23.429 28 23.429s22.857-12.571 28-23.429l128.571-260 286.857-41.714c13.714-2.286 32-9.143 32-26.286z" />
<glyph unicode="&#xf013;" glyph-name="cog, gear" horiz-adv-x="878" d="M585.143 438.857c0 80.571-65.714 146.286-146.286 146.286s-146.286-65.714-146.286-146.286 65.714-146.286 146.286-146.286 146.286 65.714 146.286 146.286zM877.714 501.143v-126.857c0-8.571-6.857-18.857-16-20.571l-105.714-16c-6.286-18.286-13.143-35.429-22.286-52 19.429-28 40-53.143 61.143-78.857 3.429-4 5.714-9.143 5.714-14.286s-1.714-9.143-5.143-13.143c-13.714-18.286-90.857-102.286-110.286-102.286-5.143 0-10.286 2.286-14.857 5.143l-78.857 61.714c-16.571-8.571-34.286-16-52-21.714-4-34.857-7.429-72-16.571-106.286-2.286-9.143-10.286-16-20.571-16h-126.857c-10.286 0-19.429 7.429-20.571 17.143l-16 105.143c-17.714 5.714-34.857 12.571-51.429 21.143l-80.571-61.143c-4-3.429-9.143-5.143-14.286-5.143s-10.286 2.286-14.286 6.286c-30.286 27.429-70.286 62.857-94.286 96-2.857 4-4 8.571-4 13.143 0 5.143 1.714 9.143 4.571 13.143 19.429 26.286 40.571 51.429 60 78.286-9.714 18.286-17.714 37.143-23.429 56.571l-104.571 15.429c-9.714 1.714-16.571 10.857-16.571 20.571v126.857c0 8.571 6.857 18.857 15.429 20.571l106.286 16c5.714 18.286 13.143 35.429 22.286 52.571-19.429 27.429-40 53.143-61.143 78.857-3.429 4-5.714 8.571-5.714 13.714s2.286 9.143 5.143 13.143c13.714 18.857 90.857 102.286 110.286 102.286 5.143 0 10.286-2.286 14.857-5.714l78.857-61.143c16.571 8.571 34.286 16 52 21.714 4 34.857 7.429 72 16.571 106.286 2.286 9.143 10.286 16 20.571 16h126.857c10.286 0 19.429-7.429 20.571-17.143l16-105.143c17.714-5.714 34.857-12.571 51.429-21.143l81.143 61.143c3.429 3.429 8.571 5.143 13.714 5.143s10.286-2.286 14.286-5.714c30.286-28 70.286-63.429 94.286-97.143 2.857-3.429 4-8 4-12.571 0-5.143-1.714-9.143-4.571-13.143-19.429-26.286-40.571-51.429-60-78.286 9.714-18.286 17.714-37.143 23.429-56l104.571-16c9.714-1.714 16.571-10.857 16.571-20.571z" />
<glyph unicode="&#xf041;" glyph-name="map-marker" horiz-adv-x="585" d="M438.857 585.143c0 80.571-65.714 146.286-146.286 146.286s-146.286-65.714-146.286-146.286 65.714-146.286 146.286-146.286 146.286 65.714 146.286 146.286zM585.143 585.143c0-34.857-4-70.857-18.857-102.286l-208-442.286c-12-25.143-38.286-40.571-65.714-40.571s-53.714 15.429-65.143 40.571l-208.571 442.286c-14.857 31.429-18.857 67.429-18.857 102.286 0 161.714 130.857 292.571 292.571 292.571s292.571-130.857 292.571-292.571z" />
<glyph unicode="&#xf05b;" glyph-name="crosshairs" horiz-adv-x="878" d="M684 365.714h-62.286c-20 0-36.571 16.571-36.571 36.571v73.143c0 20 16.571 36.571 36.571 36.571h62.286c-24.571 82.286-89.714 147.429-172 172v-62.286c0-20-16.571-36.571-36.571-36.571h-73.143c-20 0-36.571 16.571-36.571 36.571v62.286c-82.286-24.571-147.429-89.714-172-172h62.286c20 0 36.571-16.571 36.571-36.571v-73.143c0-20-16.571-36.571-36.571-36.571h-62.286c24.571-82.286 89.714-147.429 172-172v62.286c0 20 16.571 36.571 36.571 36.571h73.143c20 0 36.571-16.571 36.571-36.571v-62.286c82.286 24.571 147.429 89.714 172 172zM877.714 475.428v-73.143c0-20-16.571-36.571-36.571-36.571h-81.714c-28-122.857-124.571-219.429-247.429-247.429v-81.714c0-20-16.571-36.571-36.571-36.571h-73.143c-20 0-36.571 16.571-36.571 36.571v81.714c-122.857 28-219.429 124.571-247.429 247.429h-81.714c-20 0-36.571 16.571-36.571 36.571v73.143c0 20 16.571 36.571 36.571 36.571h81.714c28 122.857 124.571 219.429 247.429 247.429v81.714c0 20 16.571 36.571 36.571 36.571h73.143c20 0 36.571-16.571 36.571-36.571v-81.714c122.857-28 219.429-124.571 247.429-247.429h81.714c20 0 36.571-16.571 36.571-36.571z" />
<glyph unicode="&#xf081;" glyph-name="twitter-square" horiz-adv-x="878" d="M731.429 602.286c-21.714-9.714-44.571-16-69.143-19.429 25.143 14.857 44 38.857 53.143 66.857-23.429-13.714-49.143-24-76.571-29.143-21.714 23.429-53.143 37.714-87.429 37.714-66.286 0-120-53.714-120-120 0-9.143 0.571-18.857 2.857-27.429-100 5.143-188.571 52.571-248 125.714-10.286-17.714-16.571-38.857-16.571-60.571 0-41.714 19.429-78.286 52-100-20 0.571-38.857 6.286-57.143 14.857v-1.143c0-58.286 44-106.857 98.857-117.714-10.286-2.857-18.286-4.571-29.143-4.571-7.429 0-14.857 1.143-22.286 2.286 15.429-47.429 59.429-82.286 112-83.429-41.143-32-92.571-51.429-149.143-51.429-9.714 0-19.429 0.571-28.571 1.714 53.143-33.714 116-53.714 184-53.714 220.571 0 341.714 182.857 341.714 341.714 0 5.143 0 10.286-0.571 15.429 23.429 16.571 44 37.714 60 62.286zM877.714 713.143v-548.571c0-90.857-73.714-164.571-164.571-164.571h-548.571c-90.857 0-164.571 73.714-164.571 164.571v548.571c0 90.857 73.714 164.571 164.571 164.571h548.571c90.857 0 164.571-73.714 164.571-164.571z" />
<glyph unicode="&#xf082;" glyph-name="facebook-square" horiz-adv-x="878" d="M713.143 877.714c90.857 0 164.571-73.714 164.571-164.571v-548.571c0-90.857-73.714-164.571-164.571-164.571h-107.429v340h113.714l17.143 132.571h-130.857v84.571c0 38.286 10.286 64 65.714 64l69.714 0.571v118.286c-12 1.714-53.714 5.143-101.714 5.143-101.143 0-170.857-61.714-170.857-174.857v-97.714h-114.286v-132.571h114.286v-340h-304c-90.857 0-164.571 73.714-164.571 164.571v548.571c0 90.857 73.714 164.571 164.571 164.571h548.571z" />
<glyph unicode="&#xf0d9;" glyph-name="caret-left" horiz-adv-x="402" d="M365.714 694.857v-512c0-20-16.571-36.571-36.571-36.571-9.714 0-18.857 4-25.714 10.857l-256 256c-6.857 6.857-10.857 16-10.857 25.714s4 18.857 10.857 25.714l256 256c6.857 6.857 16 10.857 25.714 10.857 20 0 36.571-16.571 36.571-36.571z" />
<glyph unicode="&#xf0ea;" glyph-name="clipboard, paste" d="M438.857 0h512v365.714h-237.714c-30.286 0-54.857 24.571-54.857 54.857v237.714h-219.429v-658.286zM585.143 822.857v36.571c0 9.714-8.571 18.286-18.286 18.286h-402.286c-9.714 0-18.286-8.571-18.286-18.286v-36.571c0-9.714 8.571-18.286 18.286-18.286h402.286c9.714 0 18.286 8.571 18.286 18.286zM731.429 438.857h170.857l-170.857 170.857v-170.857zM1024 365.714v-384c0-30.286-24.571-54.857-54.857-54.857h-548.571c-30.286 0-54.857 24.571-54.857 54.857v91.429h-310.857c-30.286 0-54.857 24.571-54.857 54.857v768c0 30.286 24.571 54.857 54.857 54.857h621.714c30.286 0 54.857-24.571 54.857-54.857v-187.429c7.429-4.571 14.286-9.714 20.571-16l233.143-233.143c21.714-21.714 38.857-63.429 38.857-93.714z" />
<glyph unicode="&#xf124;" glyph-name="location-arrow" horiz-adv-x="805" d="M800.571 751.428l-365.714-731.429c-6.286-12.571-18.857-20-32.571-20-2.857 0-5.714 0.571-8.571 1.143-16.571 4-28 18.286-28 35.429v329.143h-329.143c-17.143 0-31.429 11.429-35.429 28s4 33.714 18.857 41.143l731.429 365.714c5.143 2.857 10.857 4 16.571 4 9.714 0 18.857-3.429 25.714-10.857 11.429-10.857 14.286-28 6.857-42.286z" />
<glyph unicode="&#xf129;" glyph-name="info" horiz-adv-x="366" d="M365.714 182.857v-73.143c0-20-16.571-36.571-36.571-36.571h-292.571c-20 0-36.571 16.571-36.571 36.571v73.143c0 20 16.571 36.571 36.571 36.571h36.571v219.429h-36.571c-20 0-36.571 16.571-36.571 36.571v73.143c0 20 16.571 36.571 36.571 36.571h219.429c20 0 36.571-16.571 36.571-36.571v-329.143h36.571c20 0 36.571-16.571 36.571-36.571zM292.571 841.143v-109.714c0-20-16.571-36.571-36.571-36.571h-146.286c-20 0-36.571 16.571-36.571 36.571v109.714c0 20 16.571 36.571 36.571 36.571h146.286c20 0 36.571-16.571 36.571-36.571z" />
<glyph unicode="&#xf1b9;" glyph-name="automobile, car" horiz-adv-x="1170" d="M274.286 329.143c0 50.286-41.143 91.429-91.429 91.429s-91.429-41.143-91.429-91.429 41.143-91.429 91.429-91.429 91.429 41.143 91.429 91.429zM294.857 512h580.571l-50.857 204c-1.714 6.286-13.143 15.429-20 15.429h-438.857c-6.857 0-18.286-9.143-20-15.429zM1078.857 329.143c0 50.286-41.143 91.429-91.429 91.429s-91.429-41.143-91.429-91.429 41.143-91.429 91.429-91.429 91.429 41.143 91.429 91.429zM1170.286 384v-219.429c0-10.286-8-18.286-18.286-18.286h-54.857v-73.143c0-60.571-49.143-109.714-109.714-109.714s-109.714 49.143-109.714 109.714v73.143h-585.143v-73.143c0-60.571-49.143-109.714-109.714-109.714s-109.714 49.143-109.714 109.714v73.143h-54.857c-10.286 0-18.286 8-18.286 18.286v219.429c0 70.857 57.143 128 128 128h16l60 239.429c17.714 72 87.429 126.286 161.714 126.286h438.857c74.286 0 144-54.286 161.714-126.286l60-239.429h16c70.857 0 128-57.143 128-128z" />
<glyph unicode="&#xf1e0;" glyph-name="share-alt" horiz-adv-x="878" d="M694.857 365.714c101.143 0 182.857-81.714 182.857-182.857s-81.714-182.857-182.857-182.857-182.857 81.714-182.857 182.857c0 6.286 0.571 13.143 1.143 19.429l-205.714 102.857c-32.571-30.286-76.571-49.143-124.571-49.143-101.143 0-182.857 81.714-182.857 182.857s81.714 182.857 182.857 182.857c48 0 92-18.857 124.571-49.143l205.714 102.857c-0.571 6.286-1.143 13.143-1.143 19.429 0 101.143 81.714 182.857 182.857 182.857s182.857-81.714 182.857-182.857-81.714-182.857-182.857-182.857c-48 0-92 18.857-124.571 49.143l-205.714-102.857c0.571-6.286 1.143-13.143 1.143-19.429s-0.571-13.143-1.143-19.429l205.714-102.857c32.571 30.286 76.571 49.143 124.571 49.143z" />
<glyph unicode="&#xf206;" glyph-name="bicycle" horiz-adv-x="1317" d="M435.429 292.571h-179.429c-30.286 0-47.429 34.286-29.143 58.286l107.429 143.429c-24 11.429-50.286 17.714-78.286 17.714-100.571 0-182.857-82.286-182.857-182.857s82.286-182.857 182.857-182.857c88.571 0 162.286 62.857 179.429 146.286zM329.143 365.714h106.286c-6.857 32-21.714 61.143-42.857 84.571zM603.429 365.714l164.571 219.429h-274.286l-56.571-75.429c38.286-37.714 64-88 72-144h94.286zM1243.429 329.143c0 100.571-82.286 182.857-182.857 182.857-24.571 0-47.429-5.143-69.143-13.714l99.429-148.571c11.429-17.143 6.857-40-9.714-50.857-6.286-4.571-13.714-6.286-20.571-6.286-12 0-23.429 5.714-30.286 16.571l-99.429 148.571c-32.571-33.143-53.143-78.286-53.143-128.571 0-100.571 82.286-182.857 182.857-182.857s182.857 82.286 182.857 182.857zM1316.571 329.143c0-141.143-114.857-256-256-256s-256 114.857-256 256c0 75.429 33.143 143.429 85.143 190.286l-37.143 56-201.714-268c-6.857-9.714-17.714-14.857-29.143-14.857h-112.571c-17.714-124-124-219.429-253.143-219.429-141.143 0-256 114.857-256 256s114.857 256 256 256c44.571 0 86.286-11.429 122.857-31.429l78.286 104.571h-128c-20 0-36.571 16.571-36.571 36.571s16.571 36.571 36.571 36.571h219.429v-73.143h248.571l-48.571 73.143h-126.857c-20 0-36.571 16.571-36.571 36.571s16.571 36.571 36.571 36.571h146.286c12 0 23.429-6.286 30.286-16l152.571-228.571c33.143 16 70.286 25.143 109.714 25.143 141.143 0 256-114.857 256-256z" />
<glyph unicode="&#xf207;" glyph-name="bus" horiz-adv-x="878" d="M219.429 256c0 40.571-32.571 73.143-73.143 73.143s-73.143-32.571-73.143-73.143 32.571-73.143 73.143-73.143 73.143 32.571 73.143 73.143zM804.571 256c0 40.571-32.571 73.143-73.143 73.143s-73.143-32.571-73.143-73.143 32.571-73.143 73.143-73.143 73.143 32.571 73.143 73.143zM778.286 482.286l-41.143 219.429c-3.429 17.143-18.286 29.714-36 29.714h-524.571c-17.714 0-32.571-12.571-36-29.714l-41.143-219.429c-4-22.857 13.143-43.429 36-43.429h606.857c22.857 0 40 20.571 36 43.429zM649.143 832c0 15.429-12 27.429-27.429 27.429h-365.714c-14.857 0-27.429-12-27.429-27.429s12.571-27.429 27.429-27.429h365.714c15.429 0 27.429 12 27.429 27.429zM877.714 417.714v-344.571h-73.143v-73.143c0-40.571-32.571-73.143-73.143-73.143s-73.143 32.571-73.143 73.143v73.143h-438.857v-73.143c0-40.571-32.571-73.143-73.143-73.143s-73.143 32.571-73.143 73.143v73.143h-73.143v344.571c0 46.857 4 81.714 14.286 127.429l58.857 259.429c10.857 91.429 170.857 146.286 365.714 146.286s354.857-54.857 365.714-146.286l60-259.429c10.286-45.714 13.143-80.571 13.143-127.429z" />
<glyph unicode="&#xf21d;" glyph-name="street-view" horiz-adv-x="805" d="M804.571 73.143c0-100.571-208.571-146.286-402.286-146.286s-402.286 45.714-402.286 146.286c0 77.714 116 114.286 213.143 130.857 20 3.429 38.857-9.714 42.286-29.714s-9.714-38.857-29.714-42.286c-117.714-20.571-150.857-52.571-152.571-59.429 5.714-19.429 115.429-72.571 329.143-72.571s323.429 53.143 329.143 73.714c-1.714 5.714-34.857 37.714-152.571 58.286-20 3.429-33.143 22.286-29.714 42.286s22.286 33.143 42.286 29.714c97.143-16.571 213.143-53.143 213.143-130.857zM585.143 585.143v-219.429c0-20-16.571-36.571-36.571-36.571h-36.571v-219.429c0-20-16.571-36.571-36.571-36.571h-146.286c-20 0-36.571 16.571-36.571 36.571v219.429h-36.571c-20 0-36.571 16.571-36.571 36.571v219.429c0 40.571 32.571 73.143 73.143 73.143h219.429c40.571 0 73.143-32.571 73.143-73.143zM530.286 804.571c0-70.857-57.143-128-128-128s-128 57.143-128 128 57.143 128 128 128 128-57.143 128-128z" />
<glyph unicode="&#xf277;" glyph-name="map-signs" d="M997.143 781.143c7.429-7.429 7.429-18.857 0-26.286l-80.571-80.571c-10.286-10.286-24.571-16-38.857-16h-768c-20 0-36.571 16.571-36.571 36.571v146.286c0 20 16.571 36.571 36.571 36.571h329.143v36.571c0 20 16.571 36.571 36.571 36.571h73.143c20 0 36.571-16.571 36.571-36.571v-36.571h292.571c14.286 0 28.571-5.714 38.857-16zM438.857 256h146.286v-292.571c0-20-16.571-36.571-36.571-36.571h-73.143c-20 0-36.571 16.571-36.571 36.571v292.571zM914.286 512c20 0 36.571-16.571 36.571-36.571v-146.286c0-20-16.571-36.571-36.571-36.571h-768c-14.286 0-28.571 5.714-38.857 16l-80.571 80.571c-7.429 7.429-7.429 18.857 0 26.286l80.571 80.571c10.286 10.286 24.571 16 38.857 16h292.571v109.714h146.286v-109.714h329.143z" />
</font>
</defs>
</svg>
