<?xml version="1.0" encoding="UTF-8" standalone="no"?>
<!-- Generator: Adobe Illustrator 16.0.0, SVG Export Plug-In . SVG Version: 6.00 Build 0)  -->

<svg
   xmlns:dc="http://purl.org/dc/elements/1.1/"
   xmlns:cc="http://creativecommons.org/ns#"
   xmlns:rdf="http://www.w3.org/1999/02/22-rdf-syntax-ns#"
   xmlns:svg="http://www.w3.org/2000/svg"
   xmlns="http://www.w3.org/2000/svg"
   xmlns:sodipodi="http://sodipodi.sourceforge.net/DTD/sodipodi-0.dtd"
   xmlns:inkscape="http://www.inkscape.org/namespaces/inkscape"
   version="1.1"
   id="Layer_1"
   x="0px"
   y="0px"
   width="23.76px"
   height="23.76px"
   viewBox="0 0 23.76 23.76"
   enable-background="new 0 0 23.76 23.76"
   xml:space="preserve"
   inkscape:version="0.48.2 r9819"
   sodipodi:docname="archery_33px.svg"><metadata
   id="metadata6933"><rdf:RDF><cc:Work
       rdf:about=""><dc:format>image/svg+xml</dc:format><dc:type
         rdf:resource="http://purl.org/dc/dcmitype/StillImage" /><dc:title></dc:title></cc:Work></rdf:RDF></metadata><defs
   id="defs6931"><filter
   inkscape:collect="always"
   id="filter7457"><feGaussianBlur
     inkscape:collect="always"
     stdDeviation="0.211125"
     id="feGaussianBlur7459" /></filter>
	
	
	
	
	
	
<filter
   inkscape:collect="always"
   id="filter7483"><feGaussianBlur
     inkscape:collect="always"
     stdDeviation="0.15645422"
     id="feGaussianBlur7485" /></filter></defs><sodipodi:namedview
   pagecolor="#ffffff"
   bordercolor="#666666"
   borderopacity="1"
   objecttolerance="10"
   gridtolerance="10"
   guidetolerance="10"
   inkscape:pageopacity="0"
   inkscape:pageshadow="2"
   inkscape:window-width="1920"
   inkscape:window-height="1033"
   id="namedview6929"
   showgrid="false"
   inkscape:zoom="35.479798"
   inkscape:cx="11.88"
   inkscape:cy="11.88"
   inkscape:window-x="-4"
   inkscape:window-y="-4"
   inkscape:window-maximized="1"
   inkscape:current-layer="Layer_1" />

<g
   id="g7649"><g
     id="g7613"><g
       id="g6935"
       transform="translate(0.62007118,0.50733097)"
       style="opacity:0.65;fill:#000000;fill-opacity:0.64705882;filter:url(#filter7457)">
	<path
   id="path6937"
   d="M 17.132,2.559 12.741,7.848 18.78,7.872 C 18.685,5.848 18.166,3.935 17.132,2.559 z"
   inkscape:connector-curvature="0"
   style="fill:#000000;fill-opacity:0.64705882" />
	<path
   id="path6939"
   d="m 13.949,10.258 3.229,3.843 c 0.938,-1.479 1.41,-3.28 1.604,-5.19 l -4.693,0.346 -0.14,1.001 z"
   inkscape:connector-curvature="0"
   style="fill:#000000;fill-opacity:0.64705882" />
	<polygon
   id="polygon6941"
   points="11.846,23.295 14.896,20.243 11.812,14.676 8.725,20.176 "
   style="fill:#000000;fill-opacity:0.64705882" />
	<path
   id="path6943"
   d="M 19.158,0.432 H 4.525 c -1.306,0 -2.364,1.059 -2.364,2.365 v 14.637 c 0,1.306 1.06,2.364 2.364,2.364 H 7.048 L 9.835,12.832 9.49,9.257 6.525,8.911 V 7.872 h 5.703 L 16.954,2.107 17.022,2.04 c 3.531,3.364 3.348,8.96 0.102,12.58 l -0.123,-0.174 -3.072,-3.578 -0.189,1.964 2.707,6.966 h 2.711 c 1.307,0 2.365,-1.06 2.365,-2.364 V 2.797 c 0,-1.306 -1.059,-2.365 -2.365,-2.365 z M 11.021,7.26 c -0.719,0 -1.308,-0.588 -1.308,-1.308 0,-0.72 0.589,-1.308 1.308,-1.308 0.722,0 1.308,0.588 1.308,1.308 10e-4,0.72 -0.586,1.308 -1.308,1.308 z"
   inkscape:connector-curvature="0"
   style="fill:#000000;fill-opacity:0.64705882" />
	<path
   id="path6945"
   d="m 13.929,10.869 3.072,3.578 0.123,0.174 c 3.246,-3.62 3.43,-9.216 -0.102,-12.58 L 16.954,2.108 12.228,7.873 H 6.525 v 1.039 l 2.965,0.345 0.346,3.575 -2.787,6.966 h 1.298 l 0.378,0.378 3.088,-5.5 3.083,5.566 0.443,-0.444 h 1.107 l -2.707,-6.966 0.19,-1.963 z m 3.248,3.232 -3.229,-3.843 0.139,-1 4.693,-0.346 c -0.193,1.909 -0.665,3.71 -1.603,5.189 z M 17.132,2.559 c 1.033,1.376 1.553,3.29 1.648,5.313 L 12.741,7.848 17.132,2.559 z"
   inkscape:connector-curvature="0"
   style="fill:#000000;fill-opacity:0.64705882" />
	<path
   id="path6947"
   d="m 11.021,4.644 c -0.719,0 -1.308,0.588 -1.308,1.308 0,0.72 0.589,1.308 1.308,1.308 0.722,0 1.308,-0.588 1.308,-1.308 10e-4,-0.72 -0.586,-1.308 -1.308,-1.308 z"
   inkscape:connector-curvature="0"
   style="fill:#000000;fill-opacity:0.64705882" />
</g><g
       id="g7467"><path
         d="m 17.132,2.3053345 -4.391,5.289 6.039,0.024 c -0.095,-2.024 -0.614,-3.937 -1.648,-5.313 z"
         id="path6917"
         inkscape:connector-curvature="0"
         style="fill:#f47423" /><path
         d="m 13.949,10.004335 3.229,3.843 c 0.938,-1.479 1.41,-3.28 1.604,-5.1900005 l -4.693,0.346 -0.14,1.0010005 z"
         id="path6919"
         inkscape:connector-curvature="0"
         style="fill:#f47423" /><polygon
         transform="translate(0,-0.25366548)"
         points="11.812,14.676 8.725,20.176 11.846,23.295 14.896,20.243 "
         id="polygon6921"
         style="fill:#f47423" /><path
         d="M 19.158,0.17833452 H 4.525 c -1.306,0 -2.364,1.05899998 -2.364,2.36499998 V 17.180335 c 0,1.306 1.06,2.364 2.364,2.364 h 2.523 l 2.787,-6.966 -0.345,-3.5750005 -2.965,-0.346 v -1.039 h 5.703 l 4.726,-5.765 0.068,-0.067 c 3.531,3.364 3.348,8.9600005 0.102,12.5800005 l -0.123,-0.174 -3.072,-3.578 -0.189,1.964 2.707,6.966 h 2.711 c 1.307,0 2.365,-1.06 2.365,-2.364 V 2.5433345 c 0,-1.306 -1.059,-2.36499998 -2.365,-2.36499998 z M 11.021,7.0063345 c -0.719,0 -1.308,-0.588 -1.308,-1.308 0,-0.72 0.589,-1.308 1.308,-1.308 0.722,0 1.308,0.588 1.308,1.308 10e-4,0.72 -0.586,1.308 -1.308,1.308 z"
         id="path6923"
         inkscape:connector-curvature="0"
         style="fill:#f47423" /></g></g><g
     transform="translate(0.19729537,0.31003559)"
     style="fill:#808080;fill-opacity:0.64705882;filter:url(#filter7483)"
     id="g7477"><path
       d="m 13.929,10.615335 3.072,3.578 0.123,0.174 c 3.246,-3.62 3.43,-9.2160005 -0.102,-12.5800005 l -0.068,0.067 -4.726,5.765 H 6.525 v 1.039 l 2.965,0.345 0.346,3.5750005 -2.787,6.966 h 1.298 l 0.378,0.378 3.088,-5.5 3.083,5.566 0.443,-0.444 h 1.107 l -2.707,-6.966 0.19,-1.963 z m 3.248,3.232 -3.229,-3.843 0.139,-1.0000005 4.693,-0.346 C 18.587,10.567335 18.115,12.368335 17.177,13.847335 z M 17.132,2.3053345 c 1.033,1.376 1.553,3.29 1.648,5.313 l -6.039,-0.024 4.391,-5.289 z"
       id="path7479"
       inkscape:connector-curvature="0"
       style="fill:#808080;fill-opacity:0.64705882" /><path
       d="m 11.021,4.3903345 c -0.719,0 -1.308,0.588 -1.308,1.308 0,0.72 0.589,1.308 1.308,1.308 0.722,0 1.308,-0.588 1.308,-1.308 10e-4,-0.72 -0.586,-1.308 -1.308,-1.308 z"
       id="path7481"
       inkscape:connector-curvature="0"
       style="fill:#808080;fill-opacity:0.64705882" /></g><g
     id="g7644"><path
       style="fill:#ffffff"
       inkscape:connector-curvature="0"
       id="path6925"
       d="m 13.929,10.615335 3.072,3.578 0.123,0.174 c 3.246,-3.62 3.43,-9.2160005 -0.102,-12.5800005 l -0.068,0.067 -4.726,5.765 H 6.525 v 1.039 l 2.965,0.345 0.346,3.5750005 -2.787,6.966 h 1.298 l 0.378,0.378 3.088,-5.5 3.083,5.566 0.443,-0.444 h 1.107 l -2.707,-6.966 0.19,-1.963 z m 3.248,3.232 -3.229,-3.843 0.139,-1.0000005 4.693,-0.346 C 18.587,10.567335 18.115,12.368335 17.177,13.847335 z M 17.132,2.3053345 c 1.033,1.376 1.553,3.29 1.648,5.313 l -6.039,-0.024 4.391,-5.289 z" /><g
       id="g7641"><path
         d="m 11.021,4.3903345 c -0.719,0 -1.308,0.588 -1.308,1.308 0,0.72 0.589,1.308 1.308,1.308 0.722,0 1.308,-0.588 1.308,-1.308 10e-4,-0.72 -0.586,-1.308 -1.308,-1.308 z"
         id="path6927"
         inkscape:connector-curvature="0"
         style="fill:#ffffff" /></g></g></g></svg>