<?xml version="1.0" encoding="UTF-8" standalone="no"?>
<!-- Generator: Adobe Illustrator 16.0.0, SVG Export Plug-In . SVG Version: 6.00 Build 0)  -->

<svg
   xmlns:dc="http://purl.org/dc/elements/1.1/"
   xmlns:cc="http://creativecommons.org/ns#"
   xmlns:rdf="http://www.w3.org/1999/02/22-rdf-syntax-ns#"
   xmlns:svg="http://www.w3.org/2000/svg"
   xmlns="http://www.w3.org/2000/svg"
   xmlns:sodipodi="http://sodipodi.sourceforge.net/DTD/sodipodi-0.dtd"
   xmlns:inkscape="http://www.inkscape.org/namespaces/inkscape"
   version="1.1"
   id="Layer_1"
   x="0px"
   y="0px"
   width="23.76px"
   height="23.76px"
   viewBox="0 0 23.76 23.76"
   enable-background="new 0 0 23.76 23.76"
   xml:space="preserve"
   inkscape:version="0.48.2 r9819"
   sodipodi:docname="boat_33px.svg"><metadata
   id="metadata10089"><rdf:RDF><cc:Work
       rdf:about=""><dc:format>image/svg+xml</dc:format><dc:type
         rdf:resource="http://purl.org/dc/dcmitype/StillImage" /><dc:title></dc:title></cc:Work></rdf:RDF></metadata><defs
   id="defs10087">
	
	
<filter
   inkscape:collect="always"
   id="filter10606"><feGaussianBlur
     inkscape:collect="always"
     stdDeviation="0.21111"
     id="feGaussianBlur10608" /></filter><filter
   inkscape:collect="always"
   id="filter10612"><feGaussianBlur
     inkscape:collect="always"
     stdDeviation="0.15597"
     id="feGaussianBlur10614" /></filter></defs><sodipodi:namedview
   pagecolor="#ffffff"
   bordercolor="#666666"
   borderopacity="1"
   objecttolerance="10"
   gridtolerance="10"
   guidetolerance="10"
   inkscape:pageopacity="0"
   inkscape:pageshadow="2"
   inkscape:window-width="1920"
   inkscape:window-height="1033"
   id="namedview10085"
   showgrid="false"
   inkscape:zoom="35.479798"
   inkscape:cx="7.2858364"
   inkscape:cy="11.88"
   inkscape:window-x="-4"
   inkscape:window-y="-4"
   inkscape:window-maximized="1"
   inkscape:current-layer="Layer_1" />
<g
   id="g10620"><g
     style="opacity:0.65;fill:#000000;fill-opacity:0.64705882;filter:url(#filter10606)"
     transform="translate(0.8455516,0.50733097)"
     id="g10094">
		<path
   style="fill:#000000;fill-opacity:0.64705882"
   inkscape:connector-curvature="0"
   id="path10096"
   d="M 19.156,0.432 H 4.524 C 3.218,0.432 2.16,1.491 2.16,2.797 V 17.43 c 0,1.307 1.06,2.365 2.364,2.365 h 3.821 l 3.499,3.498 3.494,-3.498 h 3.818 c 1.305,0 2.365,-1.058 2.365,-2.365 V 2.797 c 0,-1.306 -1.061,-2.365 -2.365,-2.365 z" />
	</g><g
     transform="translate(0,-0.28185053)"
     id="g10079">
		<path
   d="M 19.156,0.432 H 4.524 C 3.218,0.432 2.16,1.491 2.16,2.797 V 17.43 c 0,1.307 1.06,2.365 2.364,2.365 h 3.821 l 3.499,3.498 3.494,-3.498 h 3.818 c 1.305,0 2.365,-1.058 2.365,-2.365 V 2.797 c 0,-1.306 -1.061,-2.365 -2.365,-2.365 z"
   id="path10081"
   inkscape:connector-curvature="0"
   style="fill:#3871b8" />
	</g><g
     transform="translate(-0.50614451,-0.36640569)"
     id="g10616"><path
       d="m 13.822961,14.055591 v -2.261 -9.9910002 L 5.3189608,11.794591 h 7.3730002 v 2.261 H 4.8929608 c 0,3.015 2.261,3.958 2.261,3.958 H 17.615961 c 0,0 2.261,-0.943 2.261,-3.958 h -6.054 z"
       id="path10610"
       inkscape:connector-curvature="0"
       style="fill:#808080;fill-opacity:0.64705882;filter:url(#filter10612)" /><path
       style="fill:#ffffff"
       inkscape:connector-curvature="0"
       id="path10083"
       d="M 13.372,13.661 V 11.4 1.409 L 4.868,11.4 h 7.373 v 2.261 H 4.442 c 0,3.015 2.261,3.958 2.261,3.958 h 10.462 c 0,0 2.261,-0.943 2.261,-3.958 h -6.054 z" /></g></g>
</svg>