<?xml version="1.0" encoding="UTF-8" standalone="no"?>
<!-- Generator: Adobe Illustrator 16.0.0, SVG Export Plug-In . SVG Version: 6.00 Build 0)  -->

<svg
   xmlns:dc="http://purl.org/dc/elements/1.1/"
   xmlns:cc="http://creativecommons.org/ns#"
   xmlns:rdf="http://www.w3.org/1999/02/22-rdf-syntax-ns#"
   xmlns:svg="http://www.w3.org/2000/svg"
   xmlns="http://www.w3.org/2000/svg"
   xmlns:sodipodi="http://sodipodi.sourceforge.net/DTD/sodipodi-0.dtd"
   xmlns:inkscape="http://www.inkscape.org/namespaces/inkscape"
   version="1.1"
   id="Layer_1"
   x="0px"
   y="0px"
   width="23.76px"
   height="23.76px"
   viewBox="0 0 23.76 23.76"
   enable-background="new 0 0 23.76 23.76"
   xml:space="preserve"
   inkscape:version="0.48.4 r"
   sodipodi:docname="V:\tjk\Trails App\icons\play.svg"><metadata
     id="metadata8424"><rdf:RDF><cc:Work
         rdf:about=""><dc:format>image/svg+xml</dc:format><dc:type
           rdf:resource="http://purl.org/dc/dcmitype/StillImage" /><dc:title></dc:title></cc:Work></rdf:RDF></metadata><defs
     id="defs8422"><filter
       inkscape:collect="always"
       id="filter8956"><feGaussianBlur
         inkscape:collect="always"
         stdDeviation="0.21113001"
         id="feGaussianBlur8958" /></filter><filter
       inkscape:collect="always"
       id="filter8985"><feGaussianBlur
         inkscape:collect="always"
         stdDeviation="0.16026771"
         id="feGaussianBlur8987" /></filter></defs><sodipodi:namedview
     pagecolor="#ffffff"
     bordercolor="#666666"
     borderopacity="1"
     objecttolerance="10"
     gridtolerance="10"
     guidetolerance="10"
     inkscape:pageopacity="0"
     inkscape:pageshadow="2"
     inkscape:window-width="1920"
     inkscape:window-height="1017"
     id="namedview8420"
     showgrid="false"
     inkscape:zoom="35.479798"
     inkscape:cx="7.2858364"
     inkscape:cy="11.88"
     inkscape:window-x="-4"
     inkscape:window-y="-4"
     inkscape:window-maximized="1"
     inkscape:current-layer="Layer_1" /><g
     id="g33915"
     transform="translate(-46.325127,-159.19034)"><g
       id="g33917"><g
         id="g33919"><g
           style="opacity:0.65"
           transform="translate(5.3984477,1.8585812)"
           id="g5411_18_"><g
             id="g33922"
             inkscape:connector-curvature="0"><path
               style="opacity:0.64709999"
               inkscape:connector-curvature="0"
               id="path33924"
               d="M 61.164,158.182 H 46.427 c -1.315,0 -2.381,1.065 -2.381,2.382 v 14.741 c 0,1.315 1.067,2.382 2.381,2.382 h 3.85 l 3.522,3.522 3.519,-3.522 h 3.847 c 1.314,0 2.381,-1.066 2.381,-2.382 v -14.741 c -10e-4,-1.317 -1.067,-2.382 -2.382,-2.382 z" /></g></g><g
           transform="translate(3.7552452,2.6273997)"
           id="g3005_26_"><path
             style="fill:#f47423"
             d="M 62.266,156.643 H 47.529 c -1.315,0 -2.381,1.066 -2.381,2.382 v 14.741 c 0,1.316 1.066,2.382 2.381,2.382 h 3.849 l 3.522,3.522 3.521,-3.522 h 3.846 c 1.315,0 2.381,-1.066 2.381,-2.382 v -14.741 c 0,-1.315 -1.066,-2.382 -2.382,-2.382 z"
             inkscape:connector-curvature="0"
             id="path3007_26_" /></g></g></g><g
       id="g33928"><path
         style="fill:#969696;fill-rule:evenodd"
         inkscape:connector-curvature="0"
         id="path33930"
         d="m 60.678,162.216 c 1.921,-0.327 2.281,2.537 0.575,2.875 -1.974,0.389 -2.458,-2.553 -0.575,-2.875 z"
         clip-rule="evenodd" /><path
         style="fill:#969696;fill-rule:evenodd"
         inkscape:connector-curvature="0"
         id="path33932"
         d="m 58.188,166.942 c -0.836,0.366 -1.742,0.94 -2.619,1.373 0,1.99 0,3.823 0,5.844 0,0.625 0.104,1.403 -0.096,1.852 -0.282,0.635 -1.427,0.869 -1.884,0.159 -0.288,-0.447 -0.191,-1.552 -0.191,-2.362 0,-1.657 0,-3.271 0,-5.045 0,-0.816 -0.102,-1.967 0.159,-2.459 0.3,-0.563 1.432,-0.982 2.045,-1.31 0.812,-0.433 1.459,-0.945 2.202,-1.149 0.654,-0.179 1.552,0.383 1.724,0.99 0.219,0.762 -0.171,2.187 0.033,3.033 0.088,0.367 0.595,0.702 0.83,0.958 0.26,0.283 0.7,0.647 0.702,1.054 0.002,0.411 -0.348,0.702 -0.702,0.702 -0.525,0 -0.88,-0.629 -1.182,-0.957 -0.334,-0.363 -0.882,-0.802 -0.99,-1.15 -0.139,-0.445 0.038,-0.98 -0.031,-1.533 z"
         clip-rule="evenodd" /><path
         style="fill:#969696;fill-rule:evenodd"
         inkscape:connector-curvature="0"
         id="path33934"
         d="m 63.2,164.739 c 0.642,-0.139 -0.128,0.863 -0.191,0.224 -0.017,-0.17 0.047,-0.192 0.191,-0.224 z"
         clip-rule="evenodd" /><path
         style="fill:#969696;fill-rule:evenodd"
         inkscape:connector-curvature="0"
         id="path33936"
         d="m 62.881,165.058 c -0.168,0.186 -0.408,0.062 -0.384,-0.127 0.032,-0.229 0.445,-0.253 0.384,0.127 z"
         clip-rule="evenodd" /><path
         style="fill:#969696;fill-rule:evenodd"
         inkscape:connector-curvature="0"
         id="path33938"
         d="m 62.402,164.994 c 0.067,0.124 0.006,0.243 -0.063,0.319 -0.11,0.014 -0.18,-0.012 -0.256,-0.031 -0.146,-0.244 0.133,-0.467 0.319,-0.288 z"
         clip-rule="evenodd" /><path
         style="fill:#969696;fill-rule:evenodd"
         inkscape:connector-curvature="0"
         id="path33940"
         d="m 63.615,164.994 c 0.014,-0.071 0.157,-0.013 0.224,-0.031 0.506,0.511 -0.711,0.533 -0.224,0.031 z"
         clip-rule="evenodd" /><path
         style="fill:#969696;fill-rule:evenodd"
         inkscape:connector-curvature="0"
         id="path33942"
         d="m 63.009,165.633 c -0.358,0.072 -0.361,-0.329 -0.16,-0.383 0.202,-0.054 0.359,0.208 0.16,0.383 z"
         clip-rule="evenodd" /><path
         style="fill:#969696;fill-rule:evenodd"
         inkscape:connector-curvature="0"
         id="path33944"
         d="m 61.7,165.665 c -0.161,-0.363 0.317,-0.421 0.351,-0.16 0.02,0.162 -0.189,0.273 -0.351,0.16 z"
         clip-rule="evenodd" /><path
         style="fill:#969696;fill-rule:evenodd"
         inkscape:connector-curvature="0"
         id="path33946"
         d="m 64.317,165.41 c 0.322,0.319 -0.286,0.636 -0.383,0.286 -0.052,-0.188 0.111,-0.406 0.383,-0.286 z"
         clip-rule="evenodd" /><path
         style="fill:#969696;fill-rule:evenodd"
         inkscape:connector-curvature="0"
         id="path33948"
         d="m 63.584,165.474 c -0.006,0.037 0.006,0.057 0.031,0.063 -0.109,0.806 -0.859,-0.347 -0.031,-0.063 z"
         clip-rule="evenodd" /><path
         style="fill:#969696;fill-rule:evenodd"
         inkscape:connector-curvature="0"
         id="path33950"
         d="m 62.625,165.696 c -0.03,0.002 -0.024,0.039 -0.031,0.064 -0.692,0.205 -0.057,-0.754 0.031,-0.064 z"
         clip-rule="evenodd" /><path
         style="fill:#969696;fill-rule:evenodd"
         inkscape:connector-curvature="0"
         id="path33952"
         d="m 63.711,165.824 c 0.357,-0.092 0.339,0.5 0,0.447 -0.231,-0.035 -0.28,-0.373 0,-0.447 z"
         clip-rule="evenodd" /><path
         style="fill:#969696;fill-rule:evenodd"
         inkscape:connector-curvature="0"
         id="path33954"
         d="m 61.859,165.921 c 0.018,0.127 0.018,0.096 0,0.223 -0.415,0.302 -0.417,-0.531 0,-0.223 z"
         clip-rule="evenodd" /><path
         style="fill:#969696;fill-rule:evenodd"
         inkscape:connector-curvature="0"
         id="path33956"
         d="m 62.339,165.952 c 0.017,0.128 0.017,0.097 0,0.224 -0.415,0.303 -0.417,-0.531 0,-0.224 z"
         clip-rule="evenodd" /><path
         style="fill:#969696;fill-rule:evenodd"
         inkscape:connector-curvature="0"
         id="path33958"
         d="m 61.859,166.527 c -0.02,0.13 -0.093,0.205 -0.224,0.224 -0.061,-0.046 -0.114,-0.099 -0.16,-0.16 -0.018,-0.231 0.336,-0.247 0.384,-0.064 z"
         clip-rule="evenodd" /><path
         style="fill:#969696;fill-rule:evenodd"
         inkscape:connector-curvature="0"
         id="path33960"
         d="m 62.339,166.56 c -0.02,0.13 -0.095,0.204 -0.225,0.224 -0.346,-0.137 0.087,-0.572 0.225,-0.224 z"
         clip-rule="evenodd" /><path
         style="fill:#969696;fill-rule:evenodd"
         inkscape:connector-curvature="0"
         id="path33962"
         d="m 65.308,166.942 c 0,1.394 0,2.788 0,4.183 -0.617,-0.149 -1.61,0.195 -2.268,0 -0.262,-0.078 -0.563,-0.597 -0.798,-0.861 -0.579,-0.658 -1.012,-1.085 -1.564,-1.693 -0.208,-0.229 -0.631,-0.662 -0.639,-0.989 -0.018,-0.791 0.816,-0.639 1.661,-0.639 1.177,-0.001 2.405,-0.001 3.608,-0.001 z"
         clip-rule="evenodd" /></g><g
       id="g33964"><path
         style="fill:#ffffff;fill-rule:evenodd"
         inkscape:connector-curvature="0"
         id="path33966"
         d="m 60.528,162.011 c 1.921,-0.327 2.281,2.537 0.575,2.875 -1.973,0.388 -2.457,-2.553 -0.575,-2.875 z"
         clip-rule="evenodd" /><path
         style="fill:#ffffff;fill-rule:evenodd"
         inkscape:connector-curvature="0"
         id="path33968"
         d="m 58.038,166.737 c -0.836,0.366 -1.742,0.94 -2.619,1.373 0,1.99 0,3.823 0,5.844 0,0.625 0.104,1.403 -0.096,1.852 -0.282,0.635 -1.427,0.869 -1.884,0.159 -0.288,-0.447 -0.191,-1.552 -0.191,-2.362 0,-1.657 0,-3.271 0,-5.045 0,-0.816 -0.102,-1.967 0.159,-2.459 0.3,-0.563 1.432,-0.982 2.045,-1.31 0.812,-0.433 1.459,-0.945 2.202,-1.149 0.654,-0.179 1.552,0.383 1.724,0.99 0.219,0.762 -0.171,2.187 0.033,3.033 0.088,0.367 0.595,0.702 0.83,0.958 0.26,0.283 0.7,0.647 0.702,1.054 0.002,0.411 -0.348,0.702 -0.702,0.702 -0.525,0 -0.88,-0.629 -1.182,-0.957 -0.334,-0.363 -0.882,-0.802 -0.99,-1.15 -0.138,-0.445 0.038,-0.98 -0.031,-1.533 z"
         clip-rule="evenodd" /><path
         style="fill:#ffffff;fill-rule:evenodd"
         inkscape:connector-curvature="0"
         id="path33970"
         d="m 63.051,164.534 c 0.642,-0.139 -0.128,0.863 -0.191,0.224 -0.017,-0.17 0.046,-0.193 0.191,-0.224 z"
         clip-rule="evenodd" /><path
         style="fill:#ffffff;fill-rule:evenodd"
         inkscape:connector-curvature="0"
         id="path33972"
         d="m 62.731,164.853 c -0.168,0.186 -0.408,0.062 -0.384,-0.127 0.033,-0.229 0.446,-0.253 0.384,0.127 z"
         clip-rule="evenodd" /><path
         style="fill:#ffffff;fill-rule:evenodd"
         inkscape:connector-curvature="0"
         id="path33974"
         d="m 62.253,164.789 c 0.067,0.124 0.006,0.243 -0.063,0.319 -0.11,0.014 -0.18,-0.012 -0.256,-0.031 -0.147,-0.244 0.132,-0.468 0.319,-0.288 z"
         clip-rule="evenodd" /><path
         style="fill:#ffffff;fill-rule:evenodd"
         inkscape:connector-curvature="0"
         id="path33976"
         d="m 63.466,164.789 c 0.014,-0.071 0.157,-0.013 0.224,-0.031 0.505,0.511 -0.711,0.533 -0.224,0.031 z"
         clip-rule="evenodd" /><path
         style="fill:#ffffff;fill-rule:evenodd"
         inkscape:connector-curvature="0"
         id="path33978"
         d="m 62.859,165.428 c -0.358,0.072 -0.361,-0.329 -0.16,-0.383 0.202,-0.054 0.36,0.208 0.16,0.383 z"
         clip-rule="evenodd" /><path
         style="fill:#ffffff;fill-rule:evenodd"
         inkscape:connector-curvature="0"
         id="path33980"
         d="m 61.551,165.46 c -0.161,-0.363 0.317,-0.421 0.351,-0.16 0.02,0.162 -0.189,0.273 -0.351,0.16 z"
         clip-rule="evenodd" /><path
         style="fill:#ffffff;fill-rule:evenodd"
         inkscape:connector-curvature="0"
         id="path33982"
         d="m 64.168,165.205 c 0.322,0.319 -0.286,0.636 -0.383,0.286 -0.053,-0.188 0.111,-0.406 0.383,-0.286 z"
         clip-rule="evenodd" /><path
         style="fill:#ffffff;fill-rule:evenodd"
         inkscape:connector-curvature="0"
         id="path33984"
         d="m 63.435,165.269 c -0.006,0.037 0.006,0.057 0.031,0.063 -0.11,0.806 -0.86,-0.347 -0.031,-0.063 z"
         clip-rule="evenodd" /><path
         style="fill:#ffffff;fill-rule:evenodd"
         inkscape:connector-curvature="0"
         id="path33986"
         d="m 62.476,165.491 c -0.03,0.002 -0.024,0.039 -0.031,0.064 -0.692,0.205 -0.057,-0.754 0.031,-0.064 z"
         clip-rule="evenodd" /><path
         style="fill:#ffffff;fill-rule:evenodd"
         inkscape:connector-curvature="0"
         id="path33988"
         d="m 63.562,165.619 c 0.357,-0.092 0.339,0.5 0,0.447 -0.231,-0.035 -0.281,-0.374 0,-0.447 z"
         clip-rule="evenodd" /><path
         style="fill:#ffffff;fill-rule:evenodd"
         inkscape:connector-curvature="0"
         id="path33990"
         d="m 61.71,165.716 c 0.018,0.127 0.018,0.096 0,0.223 -0.415,0.302 -0.417,-0.531 0,-0.223 z"
         clip-rule="evenodd" /><path
         style="fill:#ffffff;fill-rule:evenodd"
         inkscape:connector-curvature="0"
         id="path33992"
         d="m 62.189,165.747 c 0.017,0.128 0.017,0.097 0,0.224 -0.415,0.302 -0.417,-0.531 0,-0.224 z"
         clip-rule="evenodd" /><path
         style="fill:#ffffff;fill-rule:evenodd"
         inkscape:connector-curvature="0"
         id="path33994"
         d="m 61.71,166.322 c -0.02,0.13 -0.093,0.205 -0.224,0.224 -0.061,-0.046 -0.114,-0.099 -0.16,-0.16 -0.018,-0.231 0.335,-0.247 0.384,-0.064 z"
         clip-rule="evenodd" /><path
         style="fill:#ffffff;fill-rule:evenodd"
         inkscape:connector-curvature="0"
         id="path33996"
         d="m 62.189,166.355 c -0.02,0.13 -0.095,0.204 -0.225,0.224 -0.346,-0.138 0.088,-0.572 0.225,-0.224 z"
         clip-rule="evenodd" /><path
         style="fill:#ffffff;fill-rule:evenodd"
         inkscape:connector-curvature="0"
         id="path33998"
         d="m 65.158,166.737 c 0,1.394 0,2.788 0,4.183 -0.617,-0.149 -1.61,0.195 -2.268,0 -0.262,-0.078 -0.563,-0.597 -0.798,-0.861 -0.579,-0.658 -1.012,-1.085 -1.564,-1.693 -0.208,-0.229 -0.631,-0.662 -0.639,-0.989 -0.018,-0.791 0.816,-0.639 1.661,-0.639 1.178,-0.001 2.406,-0.001 3.608,-0.001 z"
         clip-rule="evenodd" /></g></g></svg>