<?xml version="1.0" encoding="UTF-8" standalone="no"?>
<!-- Generator: Adobe Illustrator 16.0.0, SVG Export Plug-In . SVG Version: 6.00 Build 0)  -->

<svg
   xmlns:dc="http://purl.org/dc/elements/1.1/"
   xmlns:cc="http://creativecommons.org/ns#"
   xmlns:rdf="http://www.w3.org/1999/02/22-rdf-syntax-ns#"
   xmlns:svg="http://www.w3.org/2000/svg"
   xmlns="http://www.w3.org/2000/svg"
   xmlns:sodipodi="http://sodipodi.sourceforge.net/DTD/sodipodi-0.dtd"
   xmlns:inkscape="http://www.inkscape.org/namespaces/inkscape"
   version="1.1"
   id="Layer_1"
   x="0px"
   y="0px"
   width="23.76px"
   height="23.76px"
   viewBox="0 0 23.76 23.76"
   enable-background="new 0 0 23.76 23.76"
   xml:space="preserve"
   inkscape:version="0.48.4 r"
   sodipodi:docname="V:\tjk\Trails App\icons\picnic.svg"><metadata
     id="metadata6467"><rdf:RDF><cc:Work
         rdf:about=""><dc:format>image/svg+xml</dc:format><dc:type
           rdf:resource="http://purl.org/dc/dcmitype/StillImage" /><dc:title></dc:title></cc:Work></rdf:RDF></metadata><defs
     id="defs6465"><filter
       inkscape:collect="always"
       id="filter7005"><feGaussianBlur
         inkscape:collect="always"
         stdDeviation="0.21112001"
         id="feGaussianBlur7007" /></filter><filter
       inkscape:collect="always"
       id="filter7014"><feGaussianBlur
         inkscape:collect="always"
         stdDeviation="0.13911"
         id="feGaussianBlur7016" /></filter></defs><sodipodi:namedview
     pagecolor="#ffffff"
     bordercolor="#666666"
     borderopacity="1"
     objecttolerance="10"
     gridtolerance="10"
     guidetolerance="10"
     inkscape:pageopacity="0"
     inkscape:pageshadow="2"
     inkscape:window-width="1920"
     inkscape:window-height="1017"
     id="namedview6463"
     showgrid="false"
     inkscape:zoom="35.479798"
     inkscape:cx="7.2858364"
     inkscape:cy="11.88"
     inkscape:window-x="-4"
     inkscape:window-y="-4"
     inkscape:window-maximized="1"
     inkscape:current-layer="Layer_1" /><g
     id="g37414"
     transform="translate(-198.00406,-160.80466)"><g
       id="g29660"><g
         id="g5411_20_"
         transform="translate(5.3984477,1.8585812)"
         style="opacity:0.65"><g
           inkscape:connector-curvature="0"
           id="g29663"><path
             d="m 212.702,159.824 h -14.737 c -1.315,0 -2.381,1.065 -2.381,2.382 v 14.741 c 0,1.315 1.067,2.382 2.381,2.382 h 3.85 l 3.522,3.522 3.519,-3.522 h 3.847 c 1.314,0 2.381,-1.066 2.381,-2.382 v -14.741 c -0.001,-1.316 -1.067,-2.382 -2.382,-2.382 z"
             id="path29665"
             inkscape:connector-curvature="0"
             style="opacity:0.64709999" /></g></g><g
         id="g3005_27_"
         transform="translate(3.7552452,2.6273997)"><path
           id="path3007_27_"
           inkscape:connector-curvature="0"
           d="m 213.804,158.286 h -14.737 c -1.315,0 -2.381,1.066 -2.381,2.382 v 14.741 c 0,1.316 1.066,2.382 2.381,2.382 h 3.849 l 3.522,3.522 3.521,-3.522 h 3.846 c 1.315,0 2.381,-1.066 2.381,-2.382 v -14.741 c 0,-1.316 -1.066,-2.382 -2.382,-2.382 z"
           style="fill:#f47423" /></g></g><g
       id="g34002"><g
         id="g34004"><path
           d="m 210.748,170.23 c 0.59,0.016 1.081,-0.448 1.098,-1.037 0.018,-0.59 -0.447,-1.081 -1.035,-1.099 -0.591,-0.017 -1.083,0.446 -1.1,1.036 -0.017,0.59 0.447,1.082 1.037,1.1 l 0,0 z"
           id="path34006"
           inkscape:connector-curvature="0"
           style="fill:#969696" /><path
           d="m 208.752,169.769 c 0.196,-0.003 0.815,0.096 1.225,0.41 0.409,0.313 0.682,0.672 0.792,0.857 0.034,0.055 0.073,0.118 0.084,0.193 0.015,-0.074 0.039,-0.145 0.067,-0.184 0.075,-0.118 0.411,-0.555 0.579,-0.699 0.307,-0.262 0.647,-0.519 1.476,-0.593 l -0.006,1.123 c -0.15,0.006 -0.47,0.095 -0.747,0.325 -0.282,0.238 -0.593,0.695 -0.691,1.021 -0.098,0.326 -0.114,0.597 -0.12,0.791 l -0.016,2.183 -1.053,0.005 -0.004,-2.178 c -0.003,-0.205 -0.044,-0.624 -0.154,-0.831 -0.109,-0.208 -0.348,-0.779 -0.777,-1.055 -0.132,-0.084 -0.331,-0.258 -0.651,-0.259 l -0.004,-1.109 0,0 z"
           id="path34008"
           inkscape:connector-curvature="0"
           style="fill:#969696" /><path
           d="m 210.847,167.021 c 0.027,0.034 0.075,0.087 0.123,0.12 0.063,0.043 0.856,0.548 1.646,1.34 0.248,0.249 0.918,1.055 0.922,2.05 0.003,0.889 -0.499,1.527 -0.56,1.593 -0.188,0.211 -0.873,0.757 -1.271,0.807 l -0.006,1.156 c 0.495,-0.098 1.329,-0.419 1.802,-0.896 0.473,-0.479 0.866,-1.053 1.042,-1.778 0.203,-0.833 0.055,-1.782 -0.203,-2.33 -0.344,-0.735 -0.936,-1.431 -1.678,-2.023 l -1.822,-1.353 -1.816,1.36 c -0.74,0.598 -1.326,1.296 -1.668,2.032 -0.256,0.55 -0.4,1.5 -0.191,2.332 0.18,0.724 0.575,1.297 1.05,1.772 0.476,0.476 1.311,0.793 1.806,0.888 l -0.011,-1.155 c -0.398,-0.047 -1.086,-0.592 -1.274,-0.802 -0.062,-0.063 -0.566,-0.7 -0.566,-1.589 -0.001,-0.995 0.665,-1.804 0.911,-2.054 0.786,-0.798 1.576,-1.305 1.64,-1.349 0.048,-0.034 0.094,-0.087 0.124,-0.121 l 0,0 z"
           id="path34010"
           inkscape:connector-curvature="0"
           style="fill:#969696" /></g><g
         id="g34012"><g
           id="g34014"><polygon
             points="216.517,176.188 216.517,167.024 217.129,167.024 217.129,176.802 204.579,176.802 204.579,167.024 205.193,167.024 205.193,176.188 "
             id="polygon34016"
             style="fill:#969696" /><polygon
             points="210.854,164.078 203.045,168.21 202.758,167.667 210.854,163.384 218.95,167.667 218.664,168.21 "
             id="polygon34018"
             style="fill:#969696" /></g></g></g><g
       id="g34020"><g
         id="g34022"><path
           d="m 210.404,169.894 c 0.59,0.016 1.081,-0.448 1.098,-1.037 0.018,-0.59 -0.447,-1.081 -1.035,-1.099 -0.591,-0.017 -1.083,0.446 -1.1,1.036 -0.017,0.59 0.447,1.082 1.037,1.1 l 0,0 z"
           id="path34024"
           inkscape:connector-curvature="0"
           style="fill:#ffffff" /><path
           d="m 208.408,169.433 c 0.196,-0.003 0.815,0.096 1.225,0.41 0.409,0.313 0.682,0.672 0.792,0.857 0.034,0.055 0.073,0.118 0.084,0.193 0.015,-0.074 0.039,-0.145 0.067,-0.184 0.075,-0.118 0.411,-0.555 0.579,-0.699 0.307,-0.262 0.647,-0.519 1.476,-0.593 l -0.006,1.123 c -0.15,0.006 -0.47,0.095 -0.747,0.325 -0.282,0.238 -0.593,0.695 -0.691,1.021 -0.098,0.326 -0.114,0.597 -0.12,0.791 l -0.016,2.183 -1.053,0.005 -0.004,-2.178 c -0.003,-0.205 -0.044,-0.624 -0.154,-0.831 -0.109,-0.208 -0.348,-0.779 -0.777,-1.055 -0.132,-0.084 -0.331,-0.258 -0.651,-0.259 l -0.004,-1.109 0,0 z"
           id="path34026"
           inkscape:connector-curvature="0"
           style="fill:#ffffff" /><path
           d="m 210.503,166.685 c 0.027,0.034 0.075,0.087 0.123,0.12 0.063,0.043 0.856,0.548 1.646,1.34 0.248,0.249 0.918,1.055 0.922,2.05 0.003,0.889 -0.499,1.527 -0.56,1.593 -0.188,0.211 -0.873,0.757 -1.271,0.807 l -0.006,1.156 c 0.495,-0.098 1.329,-0.419 1.802,-0.896 0.473,-0.479 0.866,-1.053 1.042,-1.778 0.203,-0.833 0.055,-1.782 -0.203,-2.33 -0.344,-0.735 -0.936,-1.431 -1.678,-2.023 l -1.822,-1.353 -1.816,1.36 c -0.74,0.598 -1.326,1.296 -1.668,2.032 -0.256,0.55 -0.4,1.5 -0.191,2.332 0.18,0.724 0.575,1.297 1.05,1.772 0.476,0.476 1.311,0.793 1.806,0.888 l -0.011,-1.155 c -0.398,-0.047 -1.086,-0.592 -1.274,-0.802 -0.062,-0.063 -0.566,-0.7 -0.566,-1.589 -0.001,-0.995 0.665,-1.804 0.911,-2.054 0.786,-0.798 1.576,-1.305 1.64,-1.349 0.049,-0.033 0.095,-0.087 0.124,-0.121 l 0,0 z"
           id="path34028"
           inkscape:connector-curvature="0"
           style="fill:#ffffff" /></g><g
         id="g34030"><g
           id="g34032"><polygon
             points="216.173,175.852 216.173,166.689 216.785,166.689 216.785,176.466 204.235,176.466 204.235,166.689 204.85,166.689 204.85,175.852 "
             id="polygon34034"
             style="fill:#ffffff" /><polygon
             points="210.511,163.742 202.701,167.874 202.414,167.331 210.511,163.048 218.606,167.331 218.32,167.874 "
             id="polygon34036"
             style="fill:#ffffff" /></g></g></g></g></svg>