<?xml version="1.0" encoding="UTF-8" standalone="no"?>
<!-- Generator: Adobe Illustrator 16.0.0, SVG Export Plug-In . SVG Version: 6.00 Build 0)  -->

<svg
   xmlns:dc="http://purl.org/dc/elements/1.1/"
   xmlns:cc="http://creativecommons.org/ns#"
   xmlns:rdf="http://www.w3.org/1999/02/22-rdf-syntax-ns#"
   xmlns:svg="http://www.w3.org/2000/svg"
   xmlns="http://www.w3.org/2000/svg"
   xmlns:sodipodi="http://sodipodi.sourceforge.net/DTD/sodipodi-0.dtd"
   xmlns:inkscape="http://www.inkscape.org/namespaces/inkscape"
   version="1.1"
   id="Layer_1"
   x="0px"
   y="0px"
   width="23.76px"
   height="23.76px"
   viewBox="0 0 23.76 23.76"
   enable-background="new 0 0 23.76 23.76"
   xml:space="preserve"
   inkscape:version="0.48.2 r9819"
   sodipodi:docname="fish_boat_33px.svg"><metadata
   id="metadata11278"><rdf:RDF><cc:Work
       rdf:about=""><dc:format>image/svg+xml</dc:format><dc:type
         rdf:resource="http://purl.org/dc/dcmitype/StillImage" /><dc:title></dc:title></cc:Work></rdf:RDF></metadata><defs
   id="defs11276"><filter
   inkscape:collect="always"
   id="filter11802"><feGaussianBlur
     inkscape:collect="always"
     stdDeviation="0.211125"
     id="feGaussianBlur11804" /></filter>
	
	
	
	
	
	
<filter
   inkscape:collect="always"
   id="filter11825"><feGaussianBlur
     inkscape:collect="always"
     stdDeviation="0.175085"
     id="feGaussianBlur11827" /></filter></defs><sodipodi:namedview
   pagecolor="#ffffff"
   bordercolor="#666666"
   borderopacity="1"
   objecttolerance="10"
   gridtolerance="10"
   guidetolerance="10"
   inkscape:pageopacity="0"
   inkscape:pageshadow="2"
   inkscape:window-width="1920"
   inkscape:window-height="1033"
   id="namedview11274"
   showgrid="false"
   inkscape:zoom="35.479798"
   inkscape:cx="7.2858364"
   inkscape:cy="11.834773"
   inkscape:window-x="-4"
   inkscape:window-y="-4"
   inkscape:window-maximized="1"
   inkscape:current-layer="Layer_1" />
<g
   id="g11855"><g
     style="opacity:0.65;fill:#000000;fill-opacity:0.64705882;filter:url(#filter11802)"
     transform="translate(0.70462633,0.42277582)"
     id="g11280">
	<circle
   style="fill:#000000;fill-opacity:0.64705882"
   sodipodi:ry="0.44400001"
   sodipodi:rx="0.44400001"
   sodipodi:cy="8.5"
   sodipodi:cx="12.978"
   d="m 13.422,8.5 c 0,0.2452144 -0.198786,0.444 -0.444,0.444 -0.245215,0 -0.444,-0.1987856 -0.444,-0.444 0,-0.2452144 0.198785,-0.444 0.444,-0.444 0.245214,0 0.444,0.1987856 0.444,0.444 z"
   cx="12.978"
   cy="8.5"
   r="0.44400001"
   id="circle11282" />
	<polygon
   style="fill:#000000;fill-opacity:0.64705882"
   points="21.522,9.569 21.522,8.516 21.241,9.052 "
   id="polygon11284" />
	<path
   style="fill:#000000;fill-opacity:0.64705882"
   inkscape:connector-curvature="0"
   d="M 20.149,9.842 C 15.189,13.541 11.571,9.804 11.571,9.804 L 12.149,9.201 11.594,8.424 c 0,0 3.835,-4.158 8.572,0.102 L 21.521,7.75 V 2.797 c 0,-1.307 -1.06,-2.365 -2.365,-2.365 h -6.621 v 3.583 c 0,0.532 0.433,0.964 0.965,0.964 0.531,0 0.965,-0.432 0.965,-0.964 0,-0.186 -0.057,-0.356 -0.146,-0.503 l -0.408,0.503 v -2.06 l 1.065,1.15 c 0.164,0.266 0.26,0.576 0.26,0.909 0,0.957 -0.778,1.735 -1.735,1.735 -0.957,0 -1.736,-0.778 -1.736,-1.735 V 0.432 h -7.24 c -1.306,0 -2.364,1.059 -2.364,2.365 v 14.636 c 0,1.306 1.06,2.364 2.364,2.364 h 3.821 l 3.499,3.498 3.494,-3.498 h 3.818 c 1.306,0 2.365,-1.059 2.365,-2.364 V 10.491 L 20.149,9.842 z m -6.738,7.78 H 5.423 c 0,0 -1.727,-0.72 -1.727,-3.022 H 9.649 V 12.873 H 4.022 l 6.491,-7.628 v 7.628 1.727 h 4.624 c 0,2.302 -1.726,3.022 -1.726,3.022 z"
   id="path11286" />
	<path
   style="fill:#000000;fill-opacity:0.64705882"
   inkscape:connector-curvature="0"
   d="M 10.514,12.873 V 5.245 L 4.023,12.873 H 9.65 V 14.6 H 3.696 c 0,2.303 1.727,3.022 1.727,3.022 h 7.988 c 0,0 1.727,-0.72 1.727,-3.022 h -4.624 v -1.727 z"
   id="path11288" />
	<path
   style="fill:#000000;fill-opacity:0.64705882"
   inkscape:connector-curvature="0"
   d="m 11.595,8.424 0.555,0.777 -0.578,0.603 c 0,0 3.618,3.737 8.578,0.038 l 1.373,0.648 V 9.569 L 21.242,9.052 21.523,8.516 V 7.75 L 20.168,8.526 C 15.43,4.266 11.595,8.424 11.595,8.424 z m 1.383,0.52 c -0.245,0 -0.445,-0.201 -0.445,-0.444 0,-0.246 0.2,-0.444 0.445,-0.444 0.245,0 0.442,0.197 0.442,0.444 0,0.243 -0.197,0.444 -0.442,0.444 z"
   id="path11290" />
	<path
   style="fill:#000000;fill-opacity:0.64705882"
   inkscape:connector-curvature="0"
   d="m 13.5,5.75 c 0.957,0 1.735,-0.778 1.735,-1.735 0,-0.333 -0.096,-0.644 -0.26,-0.909 L 13.91,1.956 v 2.06 l 0.408,-0.503 c 0.09,0.146 0.146,0.317 0.146,0.503 0,0.532 -0.434,0.964 -0.965,0.964 -0.532,0 -0.965,-0.432 -0.965,-0.964 V 0.432 h -0.771 v 3.583 c 0.002,0.957 0.78,1.735 1.737,1.735 z"
   id="path11292" />
</g><g
     transform="translate(0,-0.31003559)"
     id="g11841"><path
       style="fill:#3871b8"
       inkscape:connector-curvature="0"
       id="path11266"
       d="M 20.149,9.842 C 15.189,13.541 11.571,9.804 11.571,9.804 L 12.149,9.201 11.594,8.424 c 0,0 3.835,-4.158 8.572,0.102 L 21.521,7.75 V 2.797 c 0,-1.307 -1.06,-2.365 -2.365,-2.365 h -6.621 v 3.583 c 0,0.532 0.433,0.964 0.965,0.964 0.531,0 0.965,-0.432 0.965,-0.964 0,-0.186 -0.057,-0.356 -0.146,-0.503 l -0.408,0.503 v -2.06 l 1.065,1.15 c 0.164,0.266 0.26,0.576 0.26,0.909 0,0.957 -0.778,1.735 -1.735,1.735 -0.957,0 -1.736,-0.778 -1.736,-1.735 V 0.432 h -7.24 c -1.306,0 -2.364,1.059 -2.364,2.365 v 14.636 c 0,1.306 1.06,2.364 2.364,2.364 h 3.821 l 3.499,3.498 3.494,-3.498 h 3.818 c 1.306,0 2.365,-1.059 2.365,-2.364 V 10.491 L 20.149,9.842 z m -6.738,7.78 H 5.423 c 0,0 -1.727,-0.72 -1.727,-3.022 H 9.649 V 12.873 H 4.022 l 6.491,-7.628 v 7.628 1.727 h 4.624 c 0,2.302 -1.726,3.022 -1.726,3.022 z" /><g
       id="g11829"><circle
         d="m 13.422,8.5 c 0,0.2452144 -0.198786,0.444 -0.444,0.444 -0.245215,0 -0.444,-0.1987856 -0.444,-0.444 0,-0.2452144 0.198785,-0.444 0.444,-0.444 0.245214,0 0.444,0.1987856 0.444,0.444 z"
         cx="12.978"
         cy="8.5"
         r="0.44400001"
         id="circle11262"
         sodipodi:cx="12.978"
         sodipodi:cy="8.5"
         sodipodi:rx="0.44400001"
         sodipodi:ry="0.44400001"
         style="fill:#3871b8" /><polygon
         points="21.522,9.569 21.522,8.516 21.241,9.052 "
         id="polygon11264"
         style="fill:#3871b8" /><g
         style="fill:#808080;fill-opacity:0.64705882;filter:url(#filter11825)"
         transform="translate(0.56370106,0.53551602)"
         id="g11817"><path
           d="M 10.514,12.873 V 5.245 L 4.023,12.873 H 9.65 V 14.6 H 3.696 c 0,2.303 1.727,3.022 1.727,3.022 h 7.988 c 0,0 1.727,-0.72 1.727,-3.022 h -4.624 v -1.727 z"
           id="path11819"
           inkscape:connector-curvature="0"
           style="fill:#808080;fill-opacity:0.64705882" /><path
           d="m 11.595,8.424 0.555,0.777 -0.578,0.603 c 0,0 3.618,3.737 8.578,0.038 l 1.373,0.648 V 9.569 L 21.242,9.052 21.523,8.516 V 7.75 L 20.168,8.526 C 15.43,4.266 11.595,8.424 11.595,8.424 z m 1.383,0.52 c -0.245,0 -0.445,-0.201 -0.445,-0.444 0,-0.246 0.2,-0.444 0.445,-0.444 0.245,0 0.442,0.197 0.442,0.444 0,0.243 -0.197,0.444 -0.442,0.444 z"
           id="path11821"
           inkscape:connector-curvature="0"
           style="fill:#808080;fill-opacity:0.64705882" /><path
           d="m 13.5,5.75 c 0.957,0 1.735,-0.778 1.735,-1.735 0,-0.333 -0.096,-0.644 -0.26,-0.909 L 13.91,1.956 v 2.06 l 0.408,-0.503 c 0.09,0.146 0.146,0.317 0.146,0.503 0,0.532 -0.434,0.964 -0.965,0.964 -0.532,0 -0.965,-0.432 -0.965,-0.964 V 0.432 h -0.771 v 3.583 c 0.002,0.957 0.78,1.735 1.737,1.735 z"
           id="path11823"
           inkscape:connector-curvature="0"
           style="fill:#808080;fill-opacity:0.64705882" /></g><g
         id="g11812"><path
           style="fill:#ffffff"
           inkscape:connector-curvature="0"
           id="path11268"
           d="M 10.514,12.873 V 5.245 L 4.023,12.873 H 9.65 V 14.6 H 3.696 c 0,2.303 1.727,3.022 1.727,3.022 h 7.988 c 0,0 1.727,-0.72 1.727,-3.022 h -4.624 v -1.727 z" /><path
           style="fill:#ffffff"
           inkscape:connector-curvature="0"
           id="path11270"
           d="m 11.595,8.424 0.555,0.777 -0.578,0.603 c 0,0 3.618,3.737 8.578,0.038 l 1.373,0.648 V 9.569 L 21.242,9.052 21.523,8.516 V 7.75 L 20.168,8.526 C 15.43,4.266 11.595,8.424 11.595,8.424 z m 1.383,0.52 c -0.245,0 -0.445,-0.201 -0.445,-0.444 0,-0.246 0.2,-0.444 0.445,-0.444 0.245,0 0.442,0.197 0.442,0.444 0,0.243 -0.197,0.444 -0.442,0.444 z" /><path
           style="fill:#ffffff"
           inkscape:connector-curvature="0"
           id="path11272"
           d="m 13.5,5.75 c 0.957,0 1.735,-0.778 1.735,-1.735 0,-0.333 -0.096,-0.644 -0.26,-0.909 L 13.91,1.956 v 2.06 l 0.408,-0.503 c 0.09,0.146 0.146,0.317 0.146,0.503 0,0.532 -0.434,0.964 -0.965,0.964 -0.532,0 -0.965,-0.432 -0.965,-0.964 V 0.432 h -0.771 v 3.583 c 0.002,0.957 0.78,1.735 1.737,1.735 z" /></g></g></g></g>
</svg>