<?xml version="1.0" encoding="UTF-8" standalone="no"?>
<!-- Generator: Adobe Illustrator 16.0.0, SVG Export Plug-In . SVG Version: 6.00 Build 0)  -->

<svg
   xmlns:dc="http://purl.org/dc/elements/1.1/"
   xmlns:cc="http://creativecommons.org/ns#"
   xmlns:rdf="http://www.w3.org/1999/02/22-rdf-syntax-ns#"
   xmlns:svg="http://www.w3.org/2000/svg"
   xmlns="http://www.w3.org/2000/svg"
   xmlns:sodipodi="http://sodipodi.sourceforge.net/DTD/sodipodi-0.dtd"
   xmlns:inkscape="http://www.inkscape.org/namespaces/inkscape"
   version="1.1"
   id="Layer_1"
   x="0px"
   y="0px"
   width="23.76px"
   height="23.76px"
   viewBox="0 0 23.76 23.76"
   enable-background="new 0 0 23.76 23.76"
   xml:space="preserve"
   inkscape:version="0.48.2 r9819"
   sodipodi:docname="fish_33px.svg"><metadata
   id="metadata10682"><rdf:RDF><cc:Work
       rdf:about=""><dc:format>image/svg+xml</dc:format><dc:type
         rdf:resource="http://purl.org/dc/dcmitype/StillImage" /><dc:title></dc:title></cc:Work></rdf:RDF></metadata><defs
   id="defs10680"><filter
   inkscape:collect="always"
   id="filter11206"><feGaussianBlur
     inkscape:collect="always"
     stdDeviation="0.21110501"
     id="feGaussianBlur11208" /></filter>
	
	
	
	
<filter
   inkscape:collect="always"
   id="filter11224"><feGaussianBlur
     inkscape:collect="always"
     stdDeviation="0.16462488"
     id="feGaussianBlur11226" /></filter></defs><sodipodi:namedview
   pagecolor="#ffffff"
   bordercolor="#666666"
   borderopacity="1"
   objecttolerance="10"
   gridtolerance="10"
   guidetolerance="10"
   inkscape:pageopacity="0"
   inkscape:pageshadow="2"
   inkscape:window-width="1920"
   inkscape:window-height="1033"
   id="namedview10678"
   showgrid="false"
   inkscape:zoom="35.479798"
   inkscape:cx="11.88"
   inkscape:cy="11.88"
   inkscape:window-x="-4"
   inkscape:window-y="-4"
   inkscape:window-maximized="1"
   inkscape:current-layer="Layer_1" />
<g
   id="g10684"
   transform="translate(0.50733096,0.59188613)"
   style="opacity:0.65;fill:#000000;fill-opacity:0.64705882;filter:url(#filter11206)">
	<circle
   id="circle10686"
   r="0.65899998"
   cy="13.146"
   cx="17.252001"
   d="m 17.911001,13.146 c 0,0.363956 -0.295045,0.659 -0.659,0.659 -0.363956,0 -0.659,-0.295044 -0.659,-0.659 0,-0.363956 0.295044,-0.659 0.659,-0.659 0.363955,0 0.659,0.295044 0.659,0.659 z"
   sodipodi:cx="17.252001"
   sodipodi:cy="13.146"
   sodipodi:rx="0.65899998"
   sodipodi:ry="0.65899998"
   style="fill:#000000;fill-opacity:0.64705882" />
	<path
   id="path10688"
   d="m 19.157,0.432 h -0.1 v 6.053 c 0,1.423 -1.156,2.579 -2.58,2.579 -1.422,0 -2.578,-1.156 -2.578,-2.579 0,-0.496 0.143,-0.957 0.385,-1.351 L 15.87,3.425 v 3.06 L 15.26,5.737 c -0.133,0.218 -0.216,0.474 -0.216,0.748 0,0.79 0.645,1.434 1.434,1.434 0.791,0 1.434,-0.644 1.434,-1.434 V 0.432 H 4.524 c -1.306,0 -2.364,1.06 -2.364,2.365 v 14.635 c 0,1.305 1.06,2.363 2.364,2.363 h 3.821 l 3.499,3.498 3.494,-3.498 h 3.817 c 1.307,0 2.365,-1.06 2.365,-2.363 V 2.797 C 21.522,1.491 20.462,0.432 19.157,0.432 z M 6.599,15.142 3.556,16.581 4.976,13.968 3.707,11.545 6.571,13.187 C 13.611,6.858 19.31,13.036 19.31,13.036 l -0.822,1.155 0.857,0.896 c 0,-0.002 -5.377,5.551 -12.746,0.055 z"
   inkscape:connector-curvature="0"
   style="fill:#000000;fill-opacity:0.64705882" />
	<path
   id="path10690"
   d="m 19.31,13.034 c 0,0 -5.699,-6.177 -12.739,0.151 l -2.864,-1.642 1.269,2.423 -1.42,2.613 3.043,-1.439 c 7.371,5.496 12.746,-0.057 12.746,-0.057 l -0.857,-0.896 0.822,-1.153 z m -2.058,0.772 c -0.362,0 -0.657,-0.299 -0.657,-0.66 0,-0.365 0.295,-0.658 0.657,-0.658 0.365,0 0.662,0.293 0.662,0.658 10e-4,0.363 -0.296,0.66 -0.662,0.66 z"
   inkscape:connector-curvature="0"
   style="fill:#000000;fill-opacity:0.64705882" />
	<path
   id="path10692"
   d="m 16.478,7.917 c -0.789,0 -1.434,-0.644 -1.434,-1.434 0,-0.274 0.083,-0.53 0.216,-0.748 l 0.609,0.748 v -3.06 l -1.586,1.709 c -0.242,0.394 -0.386,0.854 -0.386,1.351 0,1.422 1.158,2.579 2.58,2.579 1.422,0 2.578,-1.157 2.578,-2.579 V 0.432 H 17.91 v 6.053 c 0.001,0.79 -0.641,1.432 -1.432,1.432 z"
   inkscape:connector-curvature="0"
   style="fill:#000000;fill-opacity:0.64705882" />
</g><g
   id="g11228"><circle
     transform="translate(-0.14092527,-0.28185053)"
     cx="17.252001"
     cy="13.146"
     r="0.65899998"
     id="circle10670"
     d="m 17.911001,13.146 c 0,0.363956 -0.295045,0.659 -0.659,0.659 -0.363956,0 -0.659,-0.295044 -0.659,-0.659 0,-0.363956 0.295044,-0.659 0.659,-0.659 0.363955,0 0.659,0.295044 0.659,0.659 z"
     sodipodi:cx="17.252001"
     sodipodi:cy="13.146"
     sodipodi:rx="0.65899998"
     sodipodi:ry="0.65899998"
     style="fill:#3871b8" /><path
     d="m 19.016075,0.15014947 h -0.1 V 6.2031495 c 0,1.423 -1.156,2.579 -2.58,2.579 -1.422,0 -2.578,-1.156 -2.578,-2.579 0,-0.496 0.143,-0.957 0.385,-1.351 l 1.586,-1.709 v 3.06 l -0.61,-0.748 c -0.133,0.218 -0.216,0.474 -0.216,0.748 0,0.79 0.645,1.434 1.434,1.434 0.791,0 1.434,-0.644 1.434,-1.434 V 0.15014947 H 4.3830747 c -1.306,0 -2.364,1.06000003 -2.364,2.36500003 V 17.150149 c 0,1.305 1.06,2.363 2.364,2.363 h 3.821 l 3.4990003,3.498 3.494,-3.498 h 3.817 c 1.307,0 2.365,-1.06 2.365,-2.363 V 2.5151495 c 0.002,-1.306 -1.058,-2.36500003 -2.363,-2.36500003 z M 6.4580747,14.860149 l -3.043,1.439 1.42,-2.613 -1.269,-2.423 2.864,1.642 c 7.0400003,-6.3289995 12.7390003,-0.151 12.7390003,-0.151 l -0.822,1.155 0.857,0.896 c 0,-0.002 -5.377,5.551 -12.7460003,0.055 z"
     id="path10672"
     inkscape:connector-curvature="0"
     style="fill:#3871b8" /><g
     style="fill:#808080;fill-opacity:0.64705884000000002;filter:url(#filter11224)"
     transform="translate(0.39459075,0.36640569)"
     id="g11218"><path
       d="m 19.169075,12.752149 c 0,0 -5.699,-6.1769995 -12.7390003,0.151 l -2.864,-1.642 1.269,2.423 -1.42,2.613 3.043,-1.439 c 7.3710003,5.496 12.7460003,-0.057 12.7460003,-0.057 l -0.857,-0.896 0.822,-1.153 z m -2.058,0.772 c -0.362,0 -0.657,-0.299 -0.657,-0.66 0,-0.365 0.295,-0.658 0.657,-0.658 0.365,0 0.662,0.293 0.662,0.658 0.001,0.363 -0.296,0.66 -0.662,0.66 z"
       id="path11220"
       inkscape:connector-curvature="0"
       style="fill:#808080;fill-opacity:0.64705884" /><path
       d="m 16.337075,7.6351495 c -0.789,0 -1.434,-0.644 -1.434,-1.434 0,-0.274 0.083,-0.53 0.216,-0.748 l 0.609,0.748 v -3.06 l -1.586,1.709 c -0.242,0.394 -0.386,0.854 -0.386,1.351 0,1.422 1.158,2.579 2.58,2.579 1.422,0 2.578,-1.157 2.578,-2.579 V 0.15014947 h -1.145 V 6.2031495 c 10e-4,0.79 -0.641,1.432 -1.432,1.432 z"
       id="path11222"
       inkscape:connector-curvature="0"
       style="fill:#808080;fill-opacity:0.64705884" /></g><g
     id="g11214"><path
       style="fill:#ffffff"
       inkscape:connector-curvature="0"
       id="path10674"
       d="m 19.169075,12.752149 c 0,0 -5.699,-6.1769995 -12.7390003,0.151 l -2.864,-1.642 1.269,2.423 -1.42,2.613 3.043,-1.439 c 7.3710003,5.496 12.7460003,-0.057 12.7460003,-0.057 l -0.857,-0.896 0.822,-1.153 z m -2.058,0.772 c -0.362,0 -0.657,-0.299 -0.657,-0.66 0,-0.365 0.295,-0.658 0.657,-0.658 0.365,0 0.662,0.293 0.662,0.658 0.001,0.363 -0.296,0.66 -0.662,0.66 z" /><path
       style="fill:#ffffff"
       inkscape:connector-curvature="0"
       id="path10676"
       d="m 16.337075,7.6351495 c -0.789,0 -1.434,-0.644 -1.434,-1.434 0,-0.274 0.083,-0.53 0.216,-0.748 l 0.609,0.748 v -3.06 l -1.586,1.709 c -0.242,0.394 -0.386,0.854 -0.386,1.351 0,1.422 1.158,2.579 2.58,2.579 1.422,0 2.578,-1.157 2.578,-2.579 V 0.15014947 h -1.145 V 6.2031495 c 10e-4,0.79 -0.641,1.432 -1.432,1.432 z" /></g></g>
</svg>