<?xml version="1.0" encoding="UTF-8" standalone="no"?>
<!-- Generator: Adobe Illustrator 16.0.0, SVG Export Plug-In . SVG Version: 6.00 Build 0)  -->

<svg
   xmlns:dc="http://purl.org/dc/elements/1.1/"
   xmlns:cc="http://creativecommons.org/ns#"
   xmlns:rdf="http://www.w3.org/1999/02/22-rdf-syntax-ns#"
   xmlns:svg="http://www.w3.org/2000/svg"
   xmlns="http://www.w3.org/2000/svg"
   xmlns:sodipodi="http://sodipodi.sourceforge.net/DTD/sodipodi-0.dtd"
   xmlns:inkscape="http://www.inkscape.org/namespaces/inkscape"
   version="1.1"
   id="Layer_1"
   x="0px"
   y="0px"
   width="23.76px"
   height="23.76px"
   viewBox="0 0 23.76 23.76"
   enable-background="new 0 0 23.76 23.76"
   xml:space="preserve"
   inkscape:version="0.48.2 r9819"
   sodipodi:docname="geology_33px.svg"><metadata
   id="metadata12478"><rdf:RDF><cc:Work
       rdf:about=""><dc:format>image/svg+xml</dc:format><dc:type
         rdf:resource="http://purl.org/dc/dcmitype/StillImage" /><dc:title></dc:title></cc:Work></rdf:RDF></metadata><defs
   id="defs12476"><filter
   inkscape:collect="always"
   id="filter13000"><feGaussianBlur
     inkscape:collect="always"
     stdDeviation="0.21111501"
     id="feGaussianBlur13002" /></filter>
	
	

		
	<filter
   inkscape:collect="always"
   id="filter13023"><feGaussianBlur
     inkscape:collect="always"
     stdDeviation="0.12562"
     id="feGaussianBlur13025" /></filter></defs><sodipodi:namedview
   pagecolor="#ffffff"
   bordercolor="#666666"
   borderopacity="1"
   objecttolerance="10"
   gridtolerance="10"
   guidetolerance="10"
   inkscape:pageopacity="0"
   inkscape:pageshadow="2"
   inkscape:window-width="1920"
   inkscape:window-height="1033"
   id="namedview12474"
   showgrid="false"
   inkscape:zoom="35.479798"
   inkscape:cx="7.2858364"
   inkscape:cy="13.501689"
   inkscape:window-x="-4"
   inkscape:window-y="-4"
   inkscape:window-maximized="1"
   inkscape:current-layer="Layer_1" />
<g
   id="g13031"
   transform="translate(0,-0.28185053)"><g
     id="g13008"><g
       id="g12480"
       transform="translate(0.73281139,0.90192171)"
       style="opacity:0.65;fill:#000000;fill-opacity:0.64705882;filter:url(#filter13000)">
	<g
   id="g12482"
   style="fill:#000000;fill-opacity:0.64705882">
		<path
   id="path12484"
   d="M 19.158,0.433 H 4.525 c -1.307,0 -2.365,1.06 -2.365,2.365 v 14.636 c 0,1.306 1.061,2.364 2.365,2.364 h 3.82 l 3.498,3.498 3.494,-3.498 h 3.82 c 1.305,0 2.363,-1.06 2.363,-2.364 V 2.798 C 21.522,1.491 20.463,0.433 19.158,0.433 z"
   inkscape:connector-curvature="0"
   style="fill:#000000;fill-opacity:0.64705882" />
	</g>
	<polygon
   id="polygon12486"
   points="8.994,10.847 12.536,4.181 15.599,11.083 18.539,9.988 18.899,14.971 4.612,15.018 7.313,8.067 "
   style="fill:#000000;fill-opacity:0.64705882;stroke:#ffffff;stroke-width:1.51999998" />
</g><path
       d="M 19.158,0.433 H 4.525 c -1.307,0 -2.365,1.06 -2.365,2.365 v 14.636 c 0,1.306 1.061,2.364 2.365,2.364 h 3.82 l 3.498,3.498 3.494,-3.498 h 3.82 c 1.305,0 2.363,-1.06 2.363,-2.364 V 2.798 C 21.522,1.491 20.463,0.433 19.158,0.433 z"
       id="path12470"
       inkscape:connector-curvature="0"
       style="fill:#f47423" /></g><g
     id="g13027"><polygon
       points="18.899,14.971 4.612,15.018 7.313,8.067 8.994,10.847 12.536,4.181 15.599,11.083 18.539,9.988 "
       id="polygon13017"
       style="fill:none;stroke:#808080;stroke-width:1.51999998;stroke-miterlimit:4;stroke-opacity:0.64705882;stroke-dasharray:none;filter:url(#filter13023)"
       transform="translate(0.62007118,0.6764413)" /><polygon
       style="fill:none;stroke:#ffffff;stroke-width:1.51999998;stroke-miterlimit:4;stroke-dasharray:none"
       id="polygon12472"
       points="12.536,4.181 15.599,11.083 18.539,9.988 18.899,14.971 4.612,15.018 7.313,8.067 8.994,10.847 " /></g></g>
</svg>