<?xml version="1.0" encoding="UTF-8" standalone="no"?>
<!-- Generator: Adobe Illustrator 16.0.0, SVG Export Plug-In . SVG Version: 6.00 Build 0)  -->

<svg
   xmlns:dc="http://purl.org/dc/elements/1.1/"
   xmlns:cc="http://creativecommons.org/ns#"
   xmlns:rdf="http://www.w3.org/1999/02/22-rdf-syntax-ns#"
   xmlns:svg="http://www.w3.org/2000/svg"
   xmlns="http://www.w3.org/2000/svg"
   xmlns:sodipodi="http://sodipodi.sourceforge.net/DTD/sodipodi-0.dtd"
   xmlns:inkscape="http://www.inkscape.org/namespaces/inkscape"
   version="1.1"
   id="Layer_1"
   x="0px"
   y="0px"
   width="23.76px"
   height="23.76px"
   viewBox="0 0 23.76 23.76"
   enable-background="new 0 0 23.76 23.76"
   xml:space="preserve"
   inkscape:version="0.48.2 r9819"
   sodipodi:docname="golf_33px.svg"><metadata
   id="metadata3192"><rdf:RDF><cc:Work
       rdf:about=""><dc:format>image/svg+xml</dc:format><dc:type
         rdf:resource="http://purl.org/dc/dcmitype/StillImage" /><dc:title></dc:title></cc:Work></rdf:RDF></metadata><defs
   id="defs3190"><filter
   inkscape:collect="always"
   id="filter3974"><feGaussianBlur
     inkscape:collect="always"
     stdDeviation="0.21109"
     id="feGaussianBlur3976" /></filter>
	
	
<filter
   inkscape:collect="always"
   id="filter3989"><feGaussianBlur
     inkscape:collect="always"
     stdDeviation="0.14642"
     id="feGaussianBlur3991" /></filter></defs><sodipodi:namedview
   pagecolor="#ffffff"
   bordercolor="#666666"
   borderopacity="1"
   objecttolerance="10"
   gridtolerance="10"
   guidetolerance="10"
   inkscape:pageopacity="0"
   inkscape:pageshadow="2"
   inkscape:window-width="1920"
   inkscape:window-height="1033"
   id="namedview3188"
   showgrid="false"
   inkscape:zoom="35.479798"
   inkscape:cx="11.88"
   inkscape:cy="11.88"
   inkscape:window-x="-4"
   inkscape:window-y="-4"
   inkscape:window-maximized="1"
   inkscape:current-layer="Layer_1" />
<g
   id="g4006"
   transform="translate(0.05637011,-0.33822064)"><g
     style="opacity:0.65;fill:#000000;fill-opacity:0.64705882;filter:url(#filter3974)"
     transform="translate(0.64825623,0.81736654)"
     id="g3194">
	<g
   style="fill:#000000;fill-opacity:0.64705882"
   id="g3196">
		
	</g>
	<path
   style="fill:#000000;fill-opacity:0.64705882"
   inkscape:connector-curvature="0"
   d="m 12.501,8.156 c -2.821,0 -2.75,4.121 -6.303,4.357 V 6.538 L 10.244,5.081 6.198,3.624 c 0,-0.18 -0.146,-0.323 -0.324,-0.323 -0.18,0 -0.323,0.145 -0.323,0.323 v 8.931 c -0.917,0.154 -1.618,0.952 -1.618,1.912 0,1.072 0.871,1.943 1.941,1.943 l 0,0 c 10.512,0 14.234,-1.457 14.234,-4.209 0,-2.172 -3.882,-4.045 -7.607,-4.045 z m -6.627,7.606 c -0.714,0 -1.295,-0.581 -1.295,-1.296 0,-0.603 0.414,-1.107 0.972,-1.252 v 1.252 c 0,0.18 0.144,0.325 0.323,0.325 0.178,0 0.324,-0.146 0.324,-0.325 v -1.252 c 0.557,0.145 0.971,0.649 0.971,1.252 0,0.715 -0.58,1.296 -1.295,1.296 z"
   id="path3200" />
</g><g
     id="g3982"><path
       transform="translate(0.64825624,0.81736655)"
       id="path3198"
       d="M 19.149,0.432 H 4.524 C 3.218,0.432 2.16,1.493 2.16,2.798 v 14.635 c 0,1.307 1.06,2.365 2.364,2.365 h 3.821 l 3.494,3.498 3.492,-3.498 h 3.818 c 1.306,0 2.365,-1.061 2.365,-2.365 V 2.798 C 21.515,1.492 20.456,0.432 19.149,0.432 z"
       inkscape:connector-curvature="0"
       style="opacity:0.65;fill:#000000;fill-opacity:0.64705882;filter:url(#filter3974)" /><g
       id="g3182">
		<path
   style="fill:#f47423"
   inkscape:connector-curvature="0"
   id="path3184"
   d="M 19.149,0.432 H 4.524 C 3.218,0.432 2.16,1.493 2.16,2.798 v 14.635 c 0,1.307 1.06,2.365 2.364,2.365 h 3.821 l 3.494,3.498 3.492,-3.498 h 3.818 c 1.306,0 2.365,-1.061 2.365,-2.365 V 2.798 C 21.515,1.492 20.456,0.432 19.149,0.432 z" />
	</g></g><g
     id="g3993"><path
       d="m 12.895591,8.5787758 c -2.821,0 -2.75,4.1210002 -6.3030002,4.3570002 V 6.9607758 l 4.0460002,-1.457 -4.0460002,-1.457 c 0,-0.18 -0.146,-0.323 -0.324,-0.323 -0.18,0 -0.323,0.145 -0.323,0.323 v 8.9310002 c -0.917,0.154 -1.618,0.952 -1.618,1.912 0,1.072 0.871,1.943 1.941,1.943 l 0,0 c 10.5120002,0 14.2340002,-1.457 14.2340002,-4.209 0,-2.172 -3.882,-4.0450002 -7.607,-4.0450002 z M 6.2685908,16.184776 c -0.714,0 -1.295,-0.581 -1.295,-1.296 0,-0.603 0.414,-1.107 0.972,-1.252 v 1.252 c 0,0.18 0.144,0.325 0.323,0.325 0.178,0 0.324,-0.146 0.324,-0.325 v -1.252 c 0.557,0.145 0.971,0.649 0.971,1.252 0,0.715 -0.58,1.296 -1.295,1.296 z"
       id="path3987"
       inkscape:connector-curvature="0"
       style="fill:#808080;fill-opacity:0.64705882;filter:url(#filter3989)" /><path
       style="fill:#ffffff"
       inkscape:connector-curvature="0"
       id="path3186"
       d="m 12.501,8.156 c -2.821,0 -2.75,4.121 -6.303,4.357 V 6.538 L 10.244,5.081 6.198,3.624 c 0,-0.18 -0.146,-0.323 -0.324,-0.323 -0.18,0 -0.323,0.145 -0.323,0.323 v 8.931 c -0.917,0.154 -1.618,0.952 -1.618,1.912 0,1.072 0.871,1.943 1.941,1.943 l 0,0 c 10.512,0 14.234,-1.457 14.234,-4.209 0,-2.172 -3.882,-4.045 -7.607,-4.045 z m -6.627,7.606 c -0.714,0 -1.295,-0.581 -1.295,-1.296 0,-0.603 0.414,-1.107 0.972,-1.252 v 1.252 c 0,0.18 0.144,0.325 0.323,0.325 0.178,0 0.324,-0.146 0.324,-0.325 v -1.252 c 0.557,0.145 0.971,0.649 0.971,1.252 0,0.715 -0.58,1.296 -1.295,1.296 z" /></g></g>
</svg>