<?xml version="1.0" encoding="UTF-8" standalone="no"?>
<!-- Generator: Adobe Illustrator 16.0.0, SVG Export Plug-In . SVG Version: 6.00 Build 0)  -->

<svg
   xmlns:dc="http://purl.org/dc/elements/1.1/"
   xmlns:cc="http://creativecommons.org/ns#"
   xmlns:rdf="http://www.w3.org/1999/02/22-rdf-syntax-ns#"
   xmlns:svg="http://www.w3.org/2000/svg"
   xmlns="http://www.w3.org/2000/svg"
   xmlns:sodipodi="http://sodipodi.sourceforge.net/DTD/sodipodi-0.dtd"
   xmlns:inkscape="http://www.inkscape.org/namespaces/inkscape"
   version="1.1"
   id="Layer_1"
   x="0px"
   y="0px"
   width="23.76px"
   height="23.76px"
   viewBox="0 0 23.76 23.76"
   enable-background="new 0 0 23.76 23.76"
   xml:space="preserve"
   inkscape:version="0.48.2 r9819"
   sodipodi:docname="history_33px.svg"><metadata
   id="metadata4046"><rdf:RDF><cc:Work
       rdf:about=""><dc:format>image/svg+xml</dc:format><dc:type
         rdf:resource="http://purl.org/dc/dcmitype/StillImage" /><dc:title></dc:title></cc:Work></rdf:RDF></metadata><defs
   id="defs4044"><filter
   inkscape:collect="always"
   id="filter4574"><feGaussianBlur
     inkscape:collect="always"
     stdDeviation="0.21112001"
     id="feGaussianBlur4576" /></filter>
	
	
<filter
   inkscape:collect="always"
   id="filter4590"><feGaussianBlur
     inkscape:collect="always"
     stdDeviation="0.150355"
     id="feGaussianBlur4592" /></filter></defs><sodipodi:namedview
   pagecolor="#ffffff"
   bordercolor="#666666"
   borderopacity="1"
   objecttolerance="10"
   gridtolerance="10"
   guidetolerance="10"
   inkscape:pageopacity="0"
   inkscape:pageshadow="2"
   inkscape:window-width="1920"
   inkscape:window-height="1033"
   id="namedview4042"
   showgrid="false"
   inkscape:zoom="35.479798"
   inkscape:cx="7.2858364"
   inkscape:cy="11.88"
   inkscape:window-x="-4"
   inkscape:window-y="-4"
   inkscape:window-maximized="1"
   inkscape:current-layer="Layer_1" />
<g
   id="g4609"><g
     style="opacity:0.65;fill:#000000;fill-opacity:0.50196078;filter:url(#filter4574)"
     transform="translate(1.0146619,0.81736655)"
     id="g4048">
	<g
   style="fill:#000000;fill-opacity:0.50196078"
   id="g4050">
		<path
   style="fill:#000000;fill-opacity:0.50196078"
   inkscape:connector-curvature="0"
   d="M 19.157,0.432 H 4.524 c -1.306,0 -2.364,1.06 -2.364,2.365 v 14.637 c 0,1.308 1.06,2.364 2.364,2.364 h 3.821 l 3.499,3.498 3.494,-3.498 h 3.817 c 1.307,0 2.365,-1.061 2.365,-2.364 V 2.797 C 21.522,1.491 20.463,0.432 19.157,0.432 z"
   id="path4052" />
	</g>
	<g
   style="fill:#000000;fill-opacity:0.50196078"
   id="g4054"
   transform="translate(0,-952.362)">
		<path
   style="fill:#000000;fill-opacity:0.50196078"
   inkscape:connector-curvature="0"
   id="path4056"
   d="m 12.021,954.644 -6.094,4.064 h 12.19 l -6.096,-4.064 z m -5.283,4.877 c -0.45,0 -0.812,0.362 -0.812,0.812 v 5.69 l -1.424,2.438 c -0.121,0.207 -0.203,0.289 -0.203,0.406 0,0.406 0.514,0.406 0.812,0.406 h 13.816 c 0.29,0 0.814,0 0.814,-0.406 0,-0.119 -0.072,-0.178 -0.203,-0.406 l -1.423,-2.438 v -5.69 c 0,-0.45 -0.362,-0.812 -0.813,-0.812 H 6.738 z m 1.626,1.627 c 0.449,0 0.738,0.367 0.812,0.812 v 4.877 H 7.552 v -1.626 -3.251 c 0,-0.45 0.361,-0.812 0.812,-0.812 l 0,0 z m 3.657,0 c 0.451,0 0.821,0.361 0.814,0.812 v 3.251 1.626 h -1.626 v -1.626 -3.251 c 0,-0.45 0.362,-0.812 0.812,-0.812 l 0,0 z m 3.658,0 c 0.449,0 0.813,0.361 0.813,0.812 v 4.877 h -1.626 v -1.626 -3.251 c 0,-0.45 0.363,-0.812 0.813,-0.812 l 0,0 z" />
	</g>
</g><g
     id="g4600"><g
       id="g4036"
       transform="translate(-0.02818505,-0.31003559)">
		<path
   style="fill:#f47423"
   inkscape:connector-curvature="0"
   id="path4038"
   d="M 19.157,0.432 H 4.524 c -1.306,0 -2.364,1.06 -2.364,2.365 v 14.637 c 0,1.308 1.06,2.364 2.364,2.364 h 3.821 l 3.499,3.498 3.494,-3.498 h 3.817 c 1.307,0 2.365,-1.061 2.365,-2.364 V 2.797 C 21.522,1.491 20.463,0.432 19.157,0.432 z" />
	</g><g
       id="g4594"><g
         style="fill:#808080;fill-opacity:0.64705884000000002;filter:url(#filter4590)"
         transform="translate(0.56370107,-952.10834)"
         id="g4582">
		<path
   style="fill:#808080;fill-opacity:0.64705884"
   inkscape:connector-curvature="0"
   d="m 12.021,954.644 -6.094,4.064 h 12.19 l -6.096,-4.064 z m -5.283,4.877 c -0.45,0 -0.812,0.362 -0.812,0.812 v 5.69 l -1.424,2.438 c -0.121,0.207 -0.203,0.289 -0.203,0.406 0,0.406 0.514,0.406 0.812,0.406 h 13.816 c 0.29,0 0.814,0 0.814,-0.406 0,-0.119 -0.072,-0.178 -0.203,-0.406 l -1.423,-2.438 v -5.69 c 0,-0.45 -0.362,-0.812 -0.813,-0.812 H 6.738 z m 1.626,1.627 c 0.449,0 0.738,0.367 0.812,0.812 v 4.877 H 7.552 v -1.626 -3.251 c 0,-0.45 0.361,-0.812 0.812,-0.812 l 0,0 z m 3.657,0 c 0.451,0 0.821,0.361 0.814,0.812 v 3.251 1.626 h -1.626 v -1.626 -3.251 c 0,-0.45 0.362,-0.812 0.812,-0.812 l 0,0 z m 3.658,0 c 0.449,0 0.813,0.361 0.813,0.812 v 4.877 h -1.626 v -1.626 -3.251 c 0,-0.45 0.363,-0.812 0.813,-0.812 l 0,0 z"
   id="path4584" />
	</g><g
         id="layer1_3_"
         transform="translate(-0.02818505,-952.67204)">
		<path
   id="rect7645-6_2_"
   d="m 12.021,954.644 -6.094,4.064 h 12.19 l -6.096,-4.064 z m -5.283,4.877 c -0.45,0 -0.812,0.362 -0.812,0.812 v 5.69 l -1.424,2.438 c -0.121,0.207 -0.203,0.289 -0.203,0.406 0,0.406 0.514,0.406 0.812,0.406 h 13.816 c 0.29,0 0.814,0 0.814,-0.406 0,-0.119 -0.072,-0.178 -0.203,-0.406 l -1.423,-2.438 v -5.69 c 0,-0.45 -0.362,-0.812 -0.813,-0.812 H 6.738 z m 1.626,1.627 c 0.449,0 0.738,0.367 0.812,0.812 v 4.877 H 7.552 v -1.626 -3.251 c 0,-0.45 0.361,-0.812 0.812,-0.812 l 0,0 z m 3.657,0 c 0.451,0 0.821,0.361 0.814,0.812 v 3.251 1.626 h -1.626 v -1.626 -3.251 c 0,-0.45 0.362,-0.812 0.812,-0.812 l 0,0 z m 3.658,0 c 0.449,0 0.813,0.361 0.813,0.812 v 4.877 h -1.626 v -1.626 -3.251 c 0,-0.45 0.363,-0.812 0.813,-0.812 l 0,0 z"
   inkscape:connector-curvature="0"
   style="fill:#ffffff" />
	</g></g></g></g>
</svg>