<?xml version="1.0" encoding="UTF-8" standalone="no"?>
<!-- Generator: Adobe Illustrator 16.0.0, SVG Export Plug-In . SVG Version: 6.00 Build 0)  -->

<svg
   xmlns:dc="http://purl.org/dc/elements/1.1/"
   xmlns:cc="http://creativecommons.org/ns#"
   xmlns:rdf="http://www.w3.org/1999/02/22-rdf-syntax-ns#"
   xmlns:svg="http://www.w3.org/2000/svg"
   xmlns="http://www.w3.org/2000/svg"
   xmlns:sodipodi="http://sodipodi.sourceforge.net/DTD/sodipodi-0.dtd"
   xmlns:inkscape="http://www.inkscape.org/namespaces/inkscape"
   version="1.1"
   id="Layer_1"
   x="0px"
   y="0px"
   width="23.76px"
   height="23.76px"
   viewBox="0 0 23.76 23.76"
   enable-background="new 0 0 23.76 23.76"
   xml:space="preserve"
   inkscape:version="0.48.2 r9819"
   sodipodi:docname="horse_33px.svg"><metadata
   id="metadata4666"><rdf:RDF><cc:Work
       rdf:about=""><dc:format>image/svg+xml</dc:format><dc:type
         rdf:resource="http://purl.org/dc/dcmitype/StillImage" /><dc:title></dc:title></cc:Work></rdf:RDF></metadata><defs
   id="defs4664"><filter
   inkscape:collect="always"
   id="filter5188"><feGaussianBlur
     inkscape:collect="always"
     stdDeviation="0.21111501"
     id="feGaussianBlur5190" /></filter>
	
	
<filter
   inkscape:collect="always"
   id="filter5197"><feGaussianBlur
     inkscape:collect="always"
     stdDeviation="0.15016627"
     id="feGaussianBlur5199" /></filter></defs><sodipodi:namedview
   pagecolor="#ffffff"
   bordercolor="#666666"
   borderopacity="1"
   objecttolerance="10"
   gridtolerance="10"
   guidetolerance="10"
   inkscape:pageopacity="0"
   inkscape:pageshadow="2"
   inkscape:window-width="1920"
   inkscape:window-height="1033"
   id="namedview4662"
   showgrid="false"
   inkscape:zoom="35.479798"
   inkscape:cx="7.2858364"
   inkscape:cy="11.88"
   inkscape:window-x="-4"
   inkscape:window-y="-4"
   inkscape:window-maximized="1"
   inkscape:current-layer="Layer_1" />
<g
   id="g5205"
   transform="translate(0.02818505,-0.31003559)"><g
     style="opacity:0.65;fill:#000000;fill-opacity:0.64705882;filter:url(#filter5188)"
     transform="translate(0.78918149,0.9019217)"
     id="g4668">
	<g
   style="fill:#000000;fill-opacity:0.64705882"
   id="g4670">
		<path
   style="fill:#000000;fill-opacity:0.64705882"
   inkscape:connector-curvature="0"
   d="M 19.157,0.432 H 4.524 c -1.306,0 -2.364,1.06 -2.364,2.365 v 14.636 c 0,1.306 1.06,2.365 2.364,2.365 h 3.821 l 3.499,3.497 3.494,-3.497 h 3.817 c 1.307,0 2.365,-1.061 2.365,-2.365 V 2.797 C 21.522,1.491 20.463,0.432 19.157,0.432 z"
   id="path4672" />
	</g>
	<path
   style="fill:#000000;fill-opacity:0.64705882"
   inkscape:connector-curvature="0"
   d="m 16.708,7.928 -1.666,3.403 V 16 c 0,0.399 -0.328,0.727 -0.729,0.727 -0.401,0 -0.728,-0.326 -0.728,-0.727 V 11.227 H 9.909 l -0.658,1.124 1.377,3.278 c 0.199,0.352 0.075,0.795 -0.272,0.99 -0.352,0.2 -0.794,0.075 -0.995,-0.275 L 7.756,12.561 V 11.36 L 7.037,12.487 V 16 c 0,0.399 -0.324,0.727 -0.726,0.727 -0.402,0 -0.73,-0.326 -0.73,-0.727 v -4.056 l 0.602,-0.94 V 7.819 L 5.585,8.733 v 2.653 H 4.437 v -2.68 c 0,-0.893 0.722,-1.618 1.613,-1.618 h 7.238 l 4.467,-4.622 -0.132,1.202 2.2,1.462 c 0.363,0.208 0.496,0.677 0.287,1.042 -0.162,0.289 -0.488,0.429 -0.793,0.372 L 19.14,6.51 18.736,6.435 17.572,6.211 16.894,7.557 16.708,7.928 z"
   id="path4674" />
</g><g
     id="g4656">
		<path
   d="M 19.157,0.432 H 4.524 c -1.306,0 -2.364,1.06 -2.364,2.365 v 14.636 c 0,1.306 1.06,2.365 2.364,2.365 h 3.821 l 3.499,3.497 3.494,-3.497 h 3.817 c 1.307,0 2.365,-1.061 2.365,-2.365 V 2.797 C 21.522,1.491 20.463,0.432 19.157,0.432 z"
   id="path4658"
   inkscape:connector-curvature="0"
   style="fill:#f47423" />
	</g><g
     id="g5201"><path
       d="m 17.130776,8.1252954 -1.666,3.4030006 v 4.669 c 0,0.399 -0.328,0.727 -0.729,0.727 -0.401,0 -0.728,-0.326 -0.728,-0.727 v -4.773 h -3.676 l -0.6580002,1.124 1.3770002,3.278 c 0.199,0.352 0.075,0.795 -0.272,0.99 -0.352,0.2 -0.7940002,0.075 -0.9950002,-0.275 l -1.605,-3.783 v -1.201 l -0.719,1.127 v 3.513 c 0,0.399 -0.324,0.727 -0.726,0.727 -0.402,0 -0.73,-0.326 -0.73,-0.727 v -4.056 l 0.602,-0.94 V 8.0162954 l -0.598,0.914 v 2.6530006 h -1.148 V 8.9032954 c 0,-0.893 0.722,-1.618 1.613,-1.618 h 7.2380002 l 4.467,-4.622 -0.132,1.202 2.2,1.462 c 0.363,0.208 0.496,0.677 0.287,1.042 -0.162,0.289 -0.488,0.429 -0.793,0.372 l -0.177,-0.034 -0.404,-0.075 -1.164,-0.224 -0.678,1.346 -0.186,0.371 z"
       id="path5195"
       inkscape:connector-curvature="0"
       style="fill:#808080;fill-opacity:0.64705882;filter:url(#filter5197)" /><path
       style="fill:#ffffff"
       inkscape:connector-curvature="0"
       id="path4660"
       d="m 16.708,7.928 -1.666,3.403 V 16 c 0,0.399 -0.328,0.727 -0.729,0.727 -0.401,0 -0.728,-0.326 -0.728,-0.727 V 11.227 H 9.909 l -0.658,1.124 1.377,3.278 c 0.199,0.352 0.075,0.795 -0.272,0.99 -0.352,0.2 -0.794,0.075 -0.995,-0.275 L 7.756,12.561 V 11.36 L 7.037,12.487 V 16 c 0,0.399 -0.324,0.727 -0.726,0.727 -0.402,0 -0.73,-0.326 -0.73,-0.727 v -4.056 l 0.602,-0.94 V 7.819 L 5.585,8.733 v 2.653 H 4.437 v -2.68 c 0,-0.893 0.722,-1.618 1.613,-1.618 h 7.238 l 4.467,-4.622 -0.132,1.202 2.2,1.462 c 0.363,0.208 0.496,0.677 0.287,1.042 -0.162,0.289 -0.488,0.429 -0.793,0.372 L 19.14,6.51 18.736,6.435 17.572,6.211 16.894,7.557 16.708,7.928 z" /></g></g>
</svg>