<?xml version="1.0" encoding="UTF-8" standalone="no"?>
<!-- Created with Inkscape (http://www.inkscape.org/) -->

<svg
   xmlns:dc="http://purl.org/dc/elements/1.1/"
   xmlns:cc="http://creativecommons.org/ns#"
   xmlns:rdf="http://www.w3.org/1999/02/22-rdf-syntax-ns#"
   xmlns:svg="http://www.w3.org/2000/svg"
   xmlns="http://www.w3.org/2000/svg"
   version="1.1"
   width="19.993202"
   height="23.753181"
   viewBox="0 0 19.993202 23.753181"
   id="Layer_1"
   xml:space="preserve"><metadata
   id="metadata54"><rdf:RDF><cc:Work
       rdf:about=""><dc:format>image/svg+xml</dc:format><dc:type
         rdf:resource="http://purl.org/dc/dcmitype/StillImage" /><dc:title></dc:title></cc:Work></rdf:RDF></metadata><defs
   id="defs52" />
<g
   transform="translate(-295.97225,-385.2894)"
   id="g3">
	<g
   id="g5">
		<g
   transform="translate(5.3984477,1.8585812)"
   id="g5411_8_"
   style="opacity:0.65">
			<g
   id="g8">
				<path
   d="m 308.185,384.157 h -14.737 c -1.315,0 -2.381,1.064 -2.381,2.381 v 14.742 c 0,1.314 1.067,2.381 2.381,2.381 h 3.85 l 3.522,3.523 3.519,-3.523 h 3.847 c 1.314,0 2.381,-1.066 2.381,-2.381 v -14.742 c -0.002,-1.317 -1.068,-2.381 -2.382,-2.381 z"
   id="path10"
   style="opacity:0.64709999;fill:#010101" />
			</g>
		</g>
		<g
   transform="translate(3.7552452,2.6273997)"
   id="g3005_8_">
			<path
   d="m 309.335,382.662 h -14.737 c -1.315,0 -2.381,1.066 -2.381,2.381 v 14.742 c 0,1.316 1.066,2.381 2.381,2.381 h 3.849 l 3.522,3.523 3.521,-3.523 h 3.846 c 1.315,0 2.381,-1.066 2.381,-2.381 v -14.742 c -10e-4,-1.315 -1.067,-2.381 -2.382,-2.381 z"
   id="path3007_8_"
   style="fill:#3a72b9" />
		</g>
	</g>
	<g
   id="g14"
   style="opacity:0.7">
		<g
   id="g16">
			<path
   d="m 304.917,393.405 c 0.05,0.095 0.063,0.18 0.024,0.249 -0.229,0.413 -2.025,0.672 -3.23,-0.023 -0.928,-0.536 -1.357,-1.938 -1.129,-2.35 0.229,-0.414 1.152,-0.046 2.09,0.474 0.008,0.003 0.014,0.007 0.02,0.011 -3.012,-2.086 -5.242,-3.109 -5.242,-3.109 0,0 0.646,6.506 16.34,14.381 l 0.016,-0.096 c -2.63,-4.056 -5.937,-7.225 -8.889,-9.537 z"
   id="path18"
   style="fill:#969696" />
			<path
   d="m 304.941,393.654 c -0.229,0.413 -2.025,0.672 -3.23,-0.023 -0.928,-0.536 -1.357,-1.938 -1.129,-2.35 0.229,-0.414 1.152,-0.046 2.09,0.474 0.939,0.518 2.498,1.485 2.269,1.899 z"
   id="path20"
   style="fill:#969696" />
		</g>
		<g
   id="g22">
			<path
   d="m 308.531,393.545 c 0.02,0.021 0.01,0.062 -0.021,0.089 l 0,0 c -0.03,0.026 -0.071,0.03 -0.09,0.009 l -3.272,-3.722 c -0.02,-0.021 -0.01,-0.062 0.021,-0.087 l 0,0 c 0.03,-0.027 0.07,-0.032 0.09,-0.011 l 3.272,3.722 z"
   id="path24"
   style="fill:#969696" />
			<path
   d="m 305.123,389.027 c 0.109,0.229 0.197,0.515 0.16,0.877 l 0,0 c -0.211,0.158 -0.408,0.236 -0.695,-0.086 0,0 -0.511,-0.585 -0.337,-1.021 0,0 0.148,-0.531 0.437,-0.209 l 0.435,0.439 z"
   id="path26"
   style="fill:#969696" />
			<path
   d="m 309.707,394.281 c 0.288,0.321 1.602,1.238 1.371,1.55 l -0.484,0.144 -0.522,-0.025 c -0.574,-0.107 -0.992,-0.613 -1.28,-0.936 l -0.293,-0.557 c -0.127,-0.382 0.004,-0.553 -0.092,-0.863 l 0,0 c 0.279,-0.154 0.279,-0.113 0.567,0.209 l 0.733,0.478 z"
   id="path28"
   style="fill:#969696" />
		</g>
	</g>
	<g
   id="g30">
		<g
   id="g32">
			<path
   d="m 305.011,393.027 c 0.05,0.096 0.063,0.18 0.024,0.248 -0.229,0.414 -2.025,0.672 -3.23,-0.023 -0.928,-0.535 -1.357,-1.936 -1.129,-2.35 0.229,-0.412 1.152,-0.045 2.09,0.475 0.008,0.004 0.014,0.008 0.02,0.011 -3.012,-2.085 -5.242,-3.109 -5.242,-3.109 0,0 0.646,6.506 16.34,14.382 l 0.016,-0.096 c -2.63,-4.057 -5.937,-7.225 -8.889,-9.538 z"
   id="path34"
   style="fill:#f5f6f6" />
			<path
   d="m 305.035,393.276 c -0.229,0.413 -2.025,0.671 -3.23,-0.024 -0.928,-0.535 -1.357,-1.936 -1.129,-2.35 0.229,-0.412 1.152,-0.044 2.09,0.475 0.939,0.519 2.498,1.486 2.269,1.899 z"
   id="path36"
   style="fill:#969696" />
			<path
   d="m 304.818,393.463 c -0.188,0.342 -1.867,0.447 -3.051,-0.23 -0.911,-0.523 -1.408,-1.758 -1.219,-2.1 0.189,-0.342 1.085,0.037 2.004,0.545 0.921,0.509 2.456,1.444 2.266,1.785 z"
   id="path38"
   style="fill:#3a72b9" />
			<path
   d="m 305.035,393.275 c -0.229,0.414 -2.025,0.672 -3.23,-0.023 -0.928,-0.535 -1.357,-1.936 -1.129,-2.35 0.229,-0.412 1.152,-0.045 2.09,0.475 0.939,0.519 2.498,1.486 2.269,1.898 z"
   id="path40"
   style="fill:none;stroke:#ffffff;stroke-width:0.25" />
		</g>
		<g
   id="g42">
			<path
   d="m 308.531,393.277 c 0.02,0.021 0.01,0.061 -0.021,0.088 l 0,0 c -0.03,0.026 -0.071,0.03 -0.09,0.01 l -3.272,-3.723 c -0.02,-0.021 -0.01,-0.061 0.021,-0.088 l 0,0 c 0.03,-0.027 0.07,-0.031 0.09,-0.01 l 3.272,3.723 z"
   id="path44"
   style="fill:#f5f6f6" />
			<path
   d="m 305.123,388.759 c 0.109,0.229 0.197,0.515 0.16,0.878 l 0,0 c -0.211,0.157 -0.408,0.235 -0.695,-0.086 0,0 -0.511,-0.586 -0.337,-1.023 0,0 0.148,-0.529 0.437,-0.207 l 0.435,0.438 z"
   id="path46"
   style="fill:#f5f6f6" />
			<path
   d="m 309.707,394.012 c 0.288,0.322 1.602,1.238 1.371,1.551 l -0.484,0.144 -0.522,-0.026 c -0.574,-0.107 -0.992,-0.612 -1.28,-0.934 l -0.293,-0.557 c -0.127,-0.383 0.004,-0.555 -0.092,-0.863 l 0,0 c 0.279,-0.154 0.279,-0.113 0.567,0.208 l 0.733,0.477 z"
   id="path48"
   style="fill:#f5f6f6" />
		</g>
	</g>
</g>
</svg>