<?xml version="1.0" encoding="UTF-8" standalone="no"?>
<!-- Generator: Adobe Illustrator 16.0.0, SVG Export Plug-In . SVG Version: 6.00 Build 0)  -->

<svg
   xmlns:dc="http://purl.org/dc/elements/1.1/"
   xmlns:cc="http://creativecommons.org/ns#"
   xmlns:rdf="http://www.w3.org/1999/02/22-rdf-syntax-ns#"
   xmlns:svg="http://www.w3.org/2000/svg"
   xmlns="http://www.w3.org/2000/svg"
   xmlns:sodipodi="http://sodipodi.sourceforge.net/DTD/sodipodi-0.dtd"
   xmlns:inkscape="http://www.inkscape.org/namespaces/inkscape"
   version="1.1"
   id="Layer_1"
   x="0px"
   y="0px"
   width="23.76px"
   height="23.76px"
   viewBox="0 0 23.76 23.76"
   enable-background="new 0 0 23.76 23.76"
   xml:space="preserve"
   inkscape:version="0.48.2 r9819"
   sodipodi:docname="nature_33px.svg"><metadata
   id="metadata5242"><rdf:RDF><cc:Work
       rdf:about=""><dc:format>image/svg+xml</dc:format><dc:type
         rdf:resource="http://purl.org/dc/dcmitype/StillImage" /><dc:title></dc:title></cc:Work></rdf:RDF></metadata><defs
   id="defs5240"><filter
   inkscape:collect="always"
   id="filter5764"><feGaussianBlur
     inkscape:collect="always"
     stdDeviation="0.21112001"
     id="feGaussianBlur5766" /></filter>
	
	
<filter
   inkscape:collect="always"
   id="filter5780"><feGaussianBlur
     inkscape:collect="always"
     stdDeviation="0.153965"
     id="feGaussianBlur5782" /></filter></defs><sodipodi:namedview
   pagecolor="#ffffff"
   bordercolor="#666666"
   borderopacity="1"
   objecttolerance="10"
   gridtolerance="10"
   guidetolerance="10"
   inkscape:pageopacity="0"
   inkscape:pageshadow="2"
   inkscape:window-width="1920"
   inkscape:window-height="1033"
   id="namedview5238"
   showgrid="false"
   inkscape:zoom="35.479798"
   inkscape:cx="11.88"
   inkscape:cy="11.88"
   inkscape:window-x="-4"
   inkscape:window-y="-4"
   inkscape:window-maximized="1"
   inkscape:current-layer="Layer_1" />
<g
   id="g5788"
   transform="translate(-0.02818505,-0.31003559)"><g
     style="opacity:0.65;fill:#000000;fill-opacity:0.64705882;filter:url(#filter5764)"
     transform="translate(0.78918149,0.95829181)"
     id="g5244">
	<g
   style="fill:#000000;fill-opacity:0.64705882"
   id="g5246">
		<path
   style="fill:#000000;fill-opacity:0.64705882"
   inkscape:connector-curvature="0"
   d="M 19.157,0.432 H 4.524 c -1.306,0 -2.364,1.06 -2.364,2.365 v 14.637 c 0,1.308 1.06,2.365 2.364,2.365 h 3.821 l 3.499,3.497 3.494,-3.497 h 3.817 c 1.307,0 2.365,-1.062 2.365,-2.365 V 2.797 C 21.522,1.491 20.463,0.432 19.157,0.432 z"
   id="path5248" />
	</g>
	<path
   style="fill:#000000;fill-opacity:0.64705882"
   inkscape:connector-curvature="0"
   id="path5250"
   d="M 11.913,2.906 10.618,5.428 C 10.472,5.7 10.21,5.675 9.947,5.522 L 9.011,5.016 9.708,8.889 C 9.855,9.596 9.384,9.596 9.151,9.29 L 7.518,7.377 7.253,8.348 C 7.222,8.477 7.087,8.611 6.887,8.578 L 4.819,8.125 5.36,10.187 c 0.117,0.46 0.209,0.649 -0.117,0.771 l -0.736,0.36 3.559,3.021 c 0.141,0.113 0.212,0.318 0.162,0.505 l -0.312,1.067 c 1.225,-0.146 2.049,-0.279 3.273,-0.427 0.108,-0.002 0.287,0.096 0.287,0.228 l -0.161,3.179 H 12.46 L 12.312,15.72 c -10e-4,-0.132 0.164,-0.236 0.271,-0.234 1.225,0.146 2.104,0.279 3.327,0.427 l -0.312,-1.067 c -0.051,-0.187 0.021,-0.392 0.162,-0.505 L 19.315,11.32 18.58,10.96 C 18.256,10.839 18.349,10.648 18.463,10.189 L 19.006,8.127 16.94,8.58 C 16.739,8.611 16.604,8.477 16.574,8.35 L 16.307,7.379 14.674,9.292 C 14.442,9.598 13.971,9.598 14.117,8.891 L 14.814,5.018 13.876,5.524 C 13.612,5.677 13.351,5.704 13.204,5.43 L 11.913,2.906 z" />
</g><g
     id="g5233">
		<path
   d="M 19.157,0.432 H 4.524 c -1.306,0 -2.364,1.06 -2.364,2.365 v 14.637 c 0,1.308 1.06,2.365 2.364,2.365 h 3.821 l 3.499,3.497 3.494,-3.497 h 3.817 c 1.307,0 2.365,-1.062 2.365,-2.365 V 2.797 C 21.522,1.491 20.463,0.432 19.157,0.432 z"
   id="path5235"
   inkscape:connector-curvature="0"
   style="fill:#f47423" />
	</g><g
     id="g5784"><path
       id="path5778"
       d="m 12.476701,3.2442207 -1.295,2.522 c -0.146,0.272 -0.408,0.247 -0.671,0.094 l -0.936,-0.506 0.697,3.873 c 0.147,0.707 -0.3240004,0.707 -0.557,0.401 l -1.633,-1.913 -0.265,0.971 c -0.031,0.129 -0.166,0.263 -0.366,0.23 l -2.068,-0.453 0.541,2.0620003 c 0.117,0.46 0.209,0.649 -0.117,0.771 l -0.736,0.36 3.559,3.021 c 0.141,0.113 0.212,0.318 0.162,0.505 l -0.312,1.067 c 1.225,-0.146 2.049,-0.279 3.273,-0.427 0.108,-0.002 0.287,0.096 0.287,0.228 l -0.161,3.179 h 1.145 l -0.148,-3.171 c -10e-4,-0.132 0.164,-0.236 0.271,-0.234 1.225,0.146 2.104,0.279 3.327,0.427 l -0.312,-1.067 c -0.051,-0.187 0.021,-0.392 0.162,-0.505 l 3.555,-3.021 -0.735,-0.36 c -0.324,-0.121 -0.231,-0.312 -0.117,-0.771 l 0.543,-2.0620003 -2.066,0.453 c -0.201,0.031 -0.336,-0.103 -0.366,-0.23 l -0.267,-0.971 -1.633,1.913 c -0.232,0.306 -0.703,0.306 -0.557,-0.401 l 0.697,-3.873 -0.938,0.506 c -0.264,0.153 -0.525,0.18 -0.672,-0.094 l -1.291,-2.524 z"
       inkscape:connector-curvature="0"
       style="fill:#808080;fill-opacity:0.64705882;filter:url(#filter5780)" /><path
       style="fill:#ffffff"
       inkscape:connector-curvature="0"
       d="M 11.913,2.906 10.618,5.428 C 10.472,5.7 10.21,5.675 9.947,5.522 L 9.011,5.016 9.708,8.889 C 9.855,9.596 9.384,9.596 9.151,9.29 L 7.518,7.377 7.253,8.348 C 7.222,8.477 7.087,8.611 6.887,8.578 L 4.819,8.125 5.36,10.187 c 0.117,0.46 0.209,0.649 -0.117,0.771 l -0.736,0.36 3.559,3.021 c 0.141,0.113 0.212,0.318 0.162,0.505 l -0.312,1.067 c 1.225,-0.146 2.049,-0.279 3.273,-0.427 0.108,-0.002 0.287,0.096 0.287,0.228 l -0.161,3.179 H 12.46 L 12.312,15.72 c -10e-4,-0.132 0.164,-0.236 0.271,-0.234 1.225,0.146 2.104,0.279 3.327,0.427 l -0.312,-1.067 c -0.051,-0.187 0.021,-0.392 0.162,-0.505 L 19.315,11.32 18.58,10.96 C 18.256,10.839 18.349,10.648 18.463,10.189 L 19.006,8.127 16.94,8.58 C 16.739,8.611 16.604,8.477 16.574,8.35 L 16.307,7.379 14.674,9.292 C 14.442,9.598 13.971,9.598 14.117,8.891 L 14.814,5.018 13.876,5.524 C 13.612,5.677 13.351,5.704 13.204,5.43 L 11.913,2.906 z"
       id="maple_leaf_5_" /></g></g>
</svg>