<?xml version="1.0" encoding="UTF-8" standalone="no"?>
<!-- Generator: Adobe Illustrator 16.0.0, SVG Export Plug-In . SVG Version: 6.00 Build 0)  -->

<svg
   xmlns:dc="http://purl.org/dc/elements/1.1/"
   xmlns:cc="http://creativecommons.org/ns#"
   xmlns:rdf="http://www.w3.org/1999/02/22-rdf-syntax-ns#"
   xmlns:svg="http://www.w3.org/2000/svg"
   xmlns="http://www.w3.org/2000/svg"
   xmlns:sodipodi="http://sodipodi.sourceforge.net/DTD/sodipodi-0.dtd"
   xmlns:inkscape="http://www.inkscape.org/namespaces/inkscape"
   version="1.1"
   id="Layer_1"
   x="0px"
   y="0px"
   width="23.76px"
   height="23.76px"
   viewBox="0 0 23.76 23.76"
   enable-background="new 0 0 23.76 23.76"
   xml:space="preserve"
   inkscape:version="0.48.2 r9819"
   sodipodi:docname="nature_geology_33px.svg"><metadata
   id="metadata5843"><rdf:RDF><cc:Work
       rdf:about=""><dc:format>image/svg+xml</dc:format><dc:type
         rdf:resource="http://purl.org/dc/dcmitype/StillImage" /><dc:title></dc:title></cc:Work></rdf:RDF></metadata><defs
   id="defs5841"><filter
   inkscape:collect="always"
   id="filter6377"><feGaussianBlur
     inkscape:collect="always"
     stdDeviation="0.21112001"
     id="feGaussianBlur6379" /></filter>
	
	
	
<filter
   inkscape:collect="always"
   id="filter6409"><feGaussianBlur
     inkscape:collect="always"
     stdDeviation="0.10043999"
     id="feGaussianBlur6411" /></filter><filter
   inkscape:collect="always"
   id="filter6415"><feGaussianBlur
     inkscape:collect="always"
     stdDeviation="0.090555"
     id="feGaussianBlur6417" /></filter></defs><sodipodi:namedview
   pagecolor="#ffffff"
   bordercolor="#666666"
   borderopacity="1"
   objecttolerance="10"
   gridtolerance="10"
   guidetolerance="10"
   inkscape:pageopacity="0"
   inkscape:pageshadow="2"
   inkscape:window-width="1920"
   inkscape:window-height="1033"
   id="namedview5839"
   showgrid="false"
   inkscape:zoom="35.479798"
   inkscape:cx="7.2858364"
   inkscape:cy="11.88"
   inkscape:window-x="-4"
   inkscape:window-y="-4"
   inkscape:window-maximized="1"
   inkscape:current-layer="Layer_1" />
<g
   id="g6425"><g
     style="opacity:0.65;fill:#000000;fill-opacity:0.64705882;filter:url(#filter6377)"
     transform="translate(0.73281139,0.47914591)"
     id="g5855">
	<g
   style="fill:#000000;fill-opacity:0.64705882"
   id="g5857">
		<path
   style="fill:#000000;fill-opacity:0.64705882"
   inkscape:connector-curvature="0"
   d="M 19.157,0.432 H 4.524 C 3.218,0.432 2.16,1.49 2.16,2.797 v 14.636 c 0,1.307 1.06,2.365 2.364,2.365 h 3.821 l 3.499,3.498 3.494,-3.498 h 3.817 c 1.307,0 2.365,-1.061 2.365,-2.365 V 2.797 C 21.522,1.49 20.463,0.432 19.157,0.432 z"
   id="path5859" />
	</g>
	<path
   style="fill:#000000;fill-opacity:0.64705882"
   inkscape:connector-curvature="0"
   id="path5861"
   d="M 8.358,1.507 7.515,3.152 C 7.419,3.332 7.247,3.314 7.077,3.214 L 6.465,2.884 6.921,5.411 C 7.017,5.872 6.708,5.872 6.558,5.673 L 5.491,4.425 5.318,5.058 C 5.298,5.142 5.211,5.23 5.079,5.208 L 3.731,4.913 4.084,6.259 C 4.159,6.558 4.221,6.683 4.008,6.762 L 3.528,6.997 5.849,8.968 C 5.94,9.042 5.987,9.175 5.954,9.296 L 5.751,9.994 C 6.55,9.897 7.087,9.812 7.886,9.715 7.958,9.714 8.074,9.777 8.074,9.861 L 7.969,11.935 H 8.716 L 8.618,9.869 C 8.617,9.783 8.724,9.714 8.796,9.715 c 0.799,0.097 1.371,0.182 2.17,0.278 L 10.764,9.296 C 10.732,9.175 10.778,9.042 10.869,8.967 L 13.188,6.996 12.708,6.761 C 12.497,6.682 12.556,6.557 12.633,6.258 L 12.986,4.912 11.639,5.208 C 11.508,5.229 11.42,5.142 11.401,5.058 L 11.227,4.425 10.16,5.673 C 10.01,5.872 9.702,5.872 9.799,5.411 L 10.252,2.884 9.643,3.214 C 9.471,3.314 9.3,3.331 9.205,3.152 L 8.358,1.507 z" />
	<polygon
   style="fill:#000000;fill-opacity:0.64705882;stroke:#ffffff;stroke-width:1.09570003"
   points="18.786,13.568 19.046,17.16 8.747,17.193 10.694,12.182 11.905,14.187 14.458,9.381 16.665,14.357 "
   id="polygon5863" />
</g><g
     transform="translate(0,-0.28185053)"
     id="g5832">
		<path
   style="fill:#f47423"
   inkscape:connector-curvature="0"
   d="M 19.157,0.432 H 4.524 C 3.218,0.432 2.16,1.49 2.16,2.797 v 14.636 c 0,1.307 1.06,2.365 2.364,2.365 h 3.821 l 3.499,3.498 3.494,-3.498 h 3.817 c 1.307,0 2.365,-1.061 2.365,-2.365 V 2.797 C 21.522,1.49 20.463,0.432 19.157,0.432 z"
   id="path5834" />
	</g><g
     id="g6419"><path
       style="fill:#808080;fill-opacity:0.64705882;filter:url(#filter6409)"
       inkscape:connector-curvature="0"
       id="path6407"
       d="m 8.6962207,1.5070001 -0.843,1.645 c -0.096,0.18 -0.268,0.162 -0.438,0.062 l -0.612,-0.33 0.456,2.527 c 0.096,0.461 -0.213,0.461 -0.363,0.262 l -1.067,-1.248 -0.173,0.633 c -0.02,0.084 -0.107,0.172 -0.239,0.15 l -1.348,-0.295 0.353,1.346 c 0.075,0.299 0.137,0.424 -0.076,0.503 l -0.48,0.235 2.321,1.971 c 0.091,0.074 0.138,0.207 0.105,0.328 l -0.203,0.698 c 0.799,-0.097 1.336,-0.182 2.135,-0.279 0.072,-10e-4 0.188,0.062 0.188,0.146 l -0.105,2.0739989 h 0.747 l -0.098,-2.0659989 c -10e-4,-0.086 0.106,-0.155 0.178,-0.154 0.799,0.097 1.3709993,0.182 2.1699993,0.278 l -0.202,-0.697 c -0.032,-0.121 0.014,-0.254 0.105,-0.329 l 2.319,-1.971 -0.48,-0.235 c -0.211,-0.079 -0.152,-0.204 -0.075,-0.503 l 0.353,-1.346 -1.347,0.296 c -0.131,0.021 -0.219,-0.066 -0.238,-0.15 l -0.174,-0.633 -1.067,1.248 c -0.15,0.199 -0.457999,0.199 -0.361,-0.262 l 0.453,-2.527 -0.6089993,0.33 c -0.172,0.1 -0.343,0.117 -0.438,-0.062 l -0.847,-1.645 z" /><path
       d="m 8.358,1.2251495 -0.843,1.645 c -0.096,0.18 -0.268,0.162 -0.438,0.062 l -0.612,-0.33 0.456,2.527 c 0.096,0.461 -0.213,0.461 -0.363,0.262 l -1.067,-1.248 -0.173,0.633 c -0.02,0.084 -0.107,0.172 -0.239,0.15 l -1.348,-0.295 0.353,1.346 c 0.075,0.299 0.137,0.424 -0.076,0.503 l -0.48,0.235 2.321,1.971 c 0.091,0.074 0.138,0.207 0.105,0.328 l -0.203,0.698 c 0.799,-0.097 1.336,-0.182 2.135,-0.279 0.072,-0.001 0.188,0.062 0.188,0.146 L 7.969,11.653149 H 8.716 L 8.618,9.5871495 c -10e-4,-0.086 0.106,-0.155 0.178,-0.154 0.799,0.097 1.371,0.182 2.17,0.278 l -0.202,-0.697 c -0.032,-0.121 0.014,-0.254 0.105,-0.329 l 2.319,-1.971 -0.48,-0.235 c -0.211,-0.079 -0.152,-0.204 -0.075,-0.503 l 0.353,-1.346 -1.347,0.296 c -0.131,0.021 -0.219,-0.066 -0.238,-0.15 l -0.174,-0.633 -1.067,1.248 c -0.15,0.199 -0.458,0.199 -0.361,-0.262 l 0.453,-2.527 -0.609,0.33 c -0.172,0.1 -0.343,0.117 -0.438,-0.062 l -0.847,-1.645 z"
       id="maple_leaf_4_"
       inkscape:connector-curvature="0"
       style="fill:#ffffff" /><polygon
       transform="translate(0.36640569,0.08455516)"
       style="fill:none;stroke:#808080;stroke-width:1.09570003;stroke-opacity:0.64705882;filter:url(#filter6415)"
       points="10.694,12.182 11.905,14.187 14.458,9.381 16.665,14.357 18.786,13.568 19.046,17.16 8.747,17.193 "
       id="polygon6413" /><polygon
       id="polygon5837"
       points="18.786,13.568 19.046,17.16 8.747,17.193 10.694,12.182 11.905,14.187 14.458,9.381 16.665,14.357 "
       style="fill:none;stroke:#ffffff;stroke-width:1.09570003"
       transform="translate(0,-0.28185053)" /></g></g>
</svg>