<?xml version="1.0" encoding="UTF-8" standalone="no"?>
<!-- Generator: Adobe Illustrator 16.0.0, SVG Export Plug-In . SVG Version: 6.00 Build 0)  -->

<svg
   xmlns:dc="http://purl.org/dc/elements/1.1/"
   xmlns:cc="http://creativecommons.org/ns#"
   xmlns:rdf="http://www.w3.org/1999/02/22-rdf-syntax-ns#"
   xmlns:svg="http://www.w3.org/2000/svg"
   xmlns="http://www.w3.org/2000/svg"
   xmlns:sodipodi="http://sodipodi.sourceforge.net/DTD/sodipodi-0.dtd"
   xmlns:inkscape="http://www.inkscape.org/namespaces/inkscape"
   version="1.1"
   id="Layer_1"
   x="0px"
   y="0px"
   width="23.76px"
   height="23.76px"
   viewBox="0 0 23.76 23.76"
   enable-background="new 0 0 23.76 23.76"
   xml:space="preserve"
   inkscape:version="0.48.2 r9819"
   sodipodi:docname="picnic_sled_33px.svg"><metadata
   id="metadata7800"><rdf:RDF><cc:Work
       rdf:about=""><dc:format>image/svg+xml</dc:format><dc:type
         rdf:resource="http://purl.org/dc/dcmitype/StillImage" /><dc:title></dc:title></cc:Work></rdf:RDF></metadata><defs
   id="defs7798"><filter
   inkscape:collect="always"
   id="filter8328"><feGaussianBlur
     inkscape:collect="always"
     stdDeviation="0.21111501"
     id="feGaussianBlur8330" /></filter>
	
	
	
<filter
   inkscape:collect="always"
   id="filter8346"><feGaussianBlur
     inkscape:collect="always"
     stdDeviation="0.156815"
     id="feGaussianBlur8348" /></filter><filter
   inkscape:collect="always"
   id="filter8350"><feGaussianBlur
     inkscape:collect="always"
     stdDeviation="0.156815"
     id="feGaussianBlur8352" /></filter></defs><sodipodi:namedview
   pagecolor="#ffffff"
   bordercolor="#666666"
   borderopacity="1"
   objecttolerance="10"
   gridtolerance="10"
   guidetolerance="10"
   inkscape:pageopacity="0"
   inkscape:pageshadow="2"
   inkscape:window-width="1920"
   inkscape:window-height="1033"
   id="namedview7796"
   showgrid="false"
   inkscape:zoom="35.479798"
   inkscape:cx="11.88"
   inkscape:cy="11.88"
   inkscape:window-x="-4"
   inkscape:window-y="-4"
   inkscape:window-maximized="1"
   inkscape:current-layer="Layer_1" />
<g
   id="g8364"
   transform="translate(0.02818505,-0.22548043)"><g
     style="opacity:0.65;fill:#000000;fill-opacity:0.64705882;filter:url(#filter8328)"
     transform="translate(0.76099644,0.78918149)"
     id="g7802">
	<g
   style="fill:#000000;fill-opacity:0.64705882"
   id="g7804">
		<path
   style="fill:#000000;fill-opacity:0.64705882"
   inkscape:connector-curvature="0"
   d="M 19.157,0.432 H 4.524 c -1.306,0 -2.364,1.06 -2.364,2.366 v 14.636 c 0,1.308 1.06,2.365 2.364,2.365 h 3.821 l 3.499,3.496 3.494,-3.496 h 3.817 c 1.307,0 2.365,-1.062 2.365,-2.365 V 2.798 C 21.522,1.491 20.463,0.432 19.157,0.432 z"
   id="path7806" />
	</g>
	<g
   style="fill:#000000;fill-opacity:0.64705882"
   id="g7808">
		<path
   style="fill:#000000;fill-opacity:0.64705882"
   inkscape:connector-curvature="0"
   d="m 18.247,9.67 c 0.668,0 1.211,-0.543 1.211,-1.213 0,-0.668 -0.543,-1.207 -1.211,-1.207 -0.67,0 -1.209,0.539 -1.209,1.207 0,0.67 0.539,1.213 1.209,1.213 z"
   id="path7810" />
		<path
   style="fill:#000000;fill-opacity:0.64705882"
   inkscape:connector-curvature="0"
   d="m 19.112,12.377 c 0.055,0.018 0.111,0.024 0.174,0.024 0.309,0 0.561,-0.25 0.561,-0.561 0,-0.232 -0.146,-0.437 -0.349,-0.519 L 17.823,10.669 16.602,8.503 c 0,0 -0.1,-0.24 -0.451,-0.371 L 12.152,6.531 9.778,2.508 C 9.64,2.279 9.388,2.122 9.097,2.122 c -0.438,0 -0.793,0.356 -0.793,0.799 0,0.138 0.037,0.268 0.1,0.384 l 2.947,5.001 -1.87,-0.746 -0.47,0.282 7.472,2.938 h -0.006 l 0.309,0.484 c 0,0 0.121,0.26 0.48,0.402 l 0.93,0.361 c -0.604,0.604 -1.451,0.344 -1.451,0.344 L 7.624,8.709 7.121,9.008 l 9.524,3.768 c 1.106,0.404 2.012,-0.563 2.012,-0.563 v 0.004 l 0.455,0.16 z"
   id="path7812" />
	</g>
	<path
   style="fill:#000000;fill-opacity:0.64705882"
   inkscape:connector-curvature="0"
   d="M 12.388,14.834 H 10.415 L 9.811,12.767 H 11 V 12.139 H 5.722 L 5.72,12.772 h 1.241 l -0.603,2.06 H 4.357 v 0.535 h 1.839 l -0.778,2.628 h 0.913 l 0.774,-2.628 h 2.522 l 0.766,2.628 h 0.953 l -0.781,-2.623 h 1.823 v -0.538 l 0,0 z m -5.117,0 0.605,-2.066 1,-0.001 0.589,2.067 H 7.271 l 0,0 0,0 z"
   id="path7814" />
</g><g
     id="g7784">
		<path
   d="M 19.157,0.432 H 4.524 c -1.306,0 -2.364,1.06 -2.364,2.366 v 14.636 c 0,1.308 1.06,2.365 2.364,2.365 h 3.821 l 3.499,3.496 3.494,-3.496 h 3.817 c 1.307,0 2.365,-1.062 2.365,-2.365 V 2.798 C 21.522,1.491 20.463,0.432 19.157,0.432 z"
   id="path7786"
   inkscape:connector-curvature="0"
   style="fill:#f47423" />
	</g><g
     id="g8354"><g
       id="g8338"
       transform="translate(0.16911032,0.42277579)"
       style="fill:#808080;fill-opacity:0.64705882;filter:url(#filter8346)">
		<path
   d="m 18.247,9.67 c 0.668,0 1.211,-0.543 1.211,-1.213 0,-0.668 -0.543,-1.207 -1.211,-1.207 -0.67,0 -1.209,0.539 -1.209,1.207 0,0.67 0.539,1.213 1.209,1.213 z"
   id="path8340"
   inkscape:connector-curvature="0"
   style="fill:#808080;fill-opacity:0.64705882" />
		<path
   d="m 19.112,12.377 c 0.055,0.018 0.111,0.024 0.174,0.024 0.309,0 0.561,-0.25 0.561,-0.561 0,-0.232 -0.146,-0.437 -0.349,-0.519 L 17.823,10.669 16.602,8.503 c 0,0 -0.1,-0.24 -0.451,-0.371 L 12.152,6.531 9.778,2.508 C 9.64,2.279 9.388,2.122 9.097,2.122 c -0.438,0 -0.793,0.356 -0.793,0.799 0,0.138 0.037,0.268 0.1,0.384 l 2.947,5.001 -1.87,-0.746 -0.47,0.282 7.472,2.938 h -0.006 l 0.309,0.484 c 0,0 0.121,0.26 0.48,0.402 l 0.93,0.361 c -0.604,0.604 -1.451,0.344 -1.451,0.344 L 7.624,8.709 7.121,9.008 l 9.524,3.768 c 1.106,0.404 2.012,-0.563 2.012,-0.563 v 0.004 l 0.455,0.16 z"
   id="path8342"
   inkscape:connector-curvature="0"
   style="fill:#808080;fill-opacity:0.64705882" />
	</g><g
       id="g7788">
		<path
   style="fill:#ffffff"
   inkscape:connector-curvature="0"
   id="path7790"
   d="m 18.247,9.67 c 0.668,0 1.211,-0.543 1.211,-1.213 0,-0.668 -0.543,-1.207 -1.211,-1.207 -0.67,0 -1.209,0.539 -1.209,1.207 0,0.67 0.539,1.213 1.209,1.213 z" />
		<path
   style="fill:#ffffff"
   inkscape:connector-curvature="0"
   id="path7792"
   d="m 19.112,12.377 c 0.055,0.018 0.111,0.024 0.174,0.024 0.309,0 0.561,-0.25 0.561,-0.561 0,-0.232 -0.146,-0.437 -0.349,-0.519 L 17.823,10.669 16.602,8.503 c 0,0 -0.1,-0.24 -0.451,-0.371 L 12.152,6.531 9.778,2.508 C 9.64,2.279 9.388,2.122 9.097,2.122 c -0.438,0 -0.793,0.356 -0.793,0.799 0,0.138 0.037,0.268 0.1,0.384 l 2.947,5.001 -1.87,-0.746 -0.47,0.282 7.472,2.938 h -0.006 l 0.309,0.484 c 0,0 0.121,0.26 0.48,0.402 l 0.93,0.361 c -0.604,0.604 -1.451,0.344 -1.451,0.344 L 7.624,8.709 7.121,9.008 l 9.524,3.768 c 1.106,0.404 2.012,-0.563 2.012,-0.563 v 0.004 l 0.455,0.16 z" />
	</g><path
       d="m 12.754406,15.228591 h -1.973 l -0.604,-2.067 h 1.189 v -0.628 H 6.0884057 l -0.002,0.633 h 1.241 l -0.603,2.06 h -2.001 v 0.535 h 1.839 l -0.778,2.628 h 0.913 l 0.774,-2.628 h 2.5220002 l 0.7660001,2.628 h 0.953 l -0.781,-2.623 h 1.823 v -0.538 l 0,0 z m -5.1170003,0 0.605,-2.066 1,-0.001 0.589,2.067 h -2.194 l 0,0 0,0 z"
       id="path8344"
       inkscape:connector-curvature="0"
       style="fill:#808080;fill-opacity:0.64705882;filter:url(#filter8350)" /><path
       style="fill:#ffffff"
       inkscape:connector-curvature="0"
       id="path7794"
       d="M 12.388,14.834 H 10.415 L 9.811,12.767 H 11 V 12.139 H 5.722 L 5.72,12.772 h 1.241 l -0.603,2.06 H 4.357 v 0.535 h 1.839 l -0.778,2.628 h 0.913 l 0.774,-2.628 h 2.522 l 0.766,2.628 h 0.953 l -0.781,-2.623 h 1.823 v -0.538 l 0,0 z m -5.117,0 0.605,-2.066 1,-0.001 0.589,2.067 H 7.271 l 0,0 0,0 z" /></g></g>
</svg>