<?xml version="1.0" encoding="UTF-8" standalone="no"?>
<!-- Generator: Adobe Illustrator 16.0.0, SVG Export Plug-In . SVG Version: 6.00 Build 0)  -->

<svg
   xmlns:dc="http://purl.org/dc/elements/1.1/"
   xmlns:cc="http://creativecommons.org/ns#"
   xmlns:rdf="http://www.w3.org/1999/02/22-rdf-syntax-ns#"
   xmlns:svg="http://www.w3.org/2000/svg"
   xmlns="http://www.w3.org/2000/svg"
   xmlns:sodipodi="http://sodipodi.sourceforge.net/DTD/sodipodi-0.dtd"
   xmlns:inkscape="http://www.inkscape.org/namespaces/inkscape"
   version="1.1"
   id="Layer_1"
   x="0px"
   y="0px"
   width="23.76px"
   height="23.76px"
   viewBox="0 0 23.76 23.76"
   enable-background="new 0 0 23.76 23.76"
   xml:space="preserve"
   inkscape:version="0.48.2 r9819"
   sodipodi:docname="picnic_play_33px.svg"><metadata
   id="metadata7081"><rdf:RDF><cc:Work
       rdf:about=""><dc:format>image/svg+xml</dc:format><dc:type
         rdf:resource="http://purl.org/dc/dcmitype/StillImage" /><dc:title></dc:title></cc:Work></rdf:RDF></metadata><defs
   id="defs7079"><filter
   inkscape:collect="always"
   id="filter7613"><feGaussianBlur
     inkscape:collect="always"
     stdDeviation="0.21112001"
     id="feGaussianBlur7615" /></filter>
	
	
	
	
	
	
	
	
<filter
   inkscape:collect="always"
   id="filter7667"
   x="-0.17454541"
   width="1.3490908"
   y="-0.21055008"
   height="1.4211002"><feGaussianBlur
     inkscape:collect="always"
     stdDeviation="0.16629"
     id="feGaussianBlur7669" /></filter><filter
   inkscape:collect="always"
   id="filter7671"
   x="-0.37056268"
   width="1.7411254"
   y="-0.26342971"
   height="1.5268594"><feGaussianBlur
     inkscape:collect="always"
     stdDeviation="0.16629"
     id="feGaussianBlur7673" /></filter><filter
   inkscape:collect="always"
   id="filter7675"><feGaussianBlur
     inkscape:collect="always"
     stdDeviation="0.16629"
     id="feGaussianBlur7677" /></filter><filter
   inkscape:collect="always"
   id="filter7679"
   x="-0.15209451"
   width="1.304189"
   y="-0.15209451"
   height="1.304189"><feGaussianBlur
     inkscape:collect="always"
     stdDeviation="0.16629"
     id="feGaussianBlur7681" /></filter><filter
   inkscape:collect="always"
   id="filter7683"
   x="-0.13565466"
   width="1.2713093"
   y="-0.088373783"
   height="1.1767476"><feGaussianBlur
     inkscape:collect="always"
     stdDeviation="0.16629"
     id="feGaussianBlur7685" /></filter><filter
   inkscape:collect="always"
   id="filter7687"><feGaussianBlur
     inkscape:collect="always"
     stdDeviation="0.16629"
     id="feGaussianBlur7689" /></filter></defs><sodipodi:namedview
   pagecolor="#ffffff"
   bordercolor="#666666"
   borderopacity="1"
   objecttolerance="10"
   gridtolerance="10"
   guidetolerance="10"
   inkscape:pageopacity="0"
   inkscape:pageshadow="2"
   inkscape:window-width="1920"
   inkscape:window-height="1033"
   id="namedview7077"
   showgrid="false"
   inkscape:zoom="35.479798"
   inkscape:cx="7.2858364"
   inkscape:cy="11.88"
   inkscape:window-x="-4"
   inkscape:window-y="-4"
   inkscape:window-maximized="1"
   inkscape:current-layer="Layer_1" />
<g
   id="g7746"><g
     id="g7707"><g
       id="g7083"
       transform="translate(0.67644128,0.59188611)"
       style="opacity:0.65;fill:#000000;fill-opacity:0.64705882;filter:url(#filter7613)">
	<path
   id="path7085"
   d="M 19.157,0.432 H 11.415 L 13.831,4.674 13.456,4.946 10.889,0.43 H 4.524 C 3.218,0.43 2.16,1.489 2.16,2.795 v 14.637 c 0,1.307 1.06,2.365 2.364,2.365 h 3.821 l 3.499,3.497 3.494,-3.497 h 3.817 c 1.307,0 2.365,-1.062 2.365,-2.365 V 2.797 C 21.522,1.491 20.463,0.432 19.157,0.432 z m -9.015,3.926 c 0.725,0 1.312,0.586 1.312,1.312 0,0.725 -0.587,1.312 -1.312,1.312 -0.723,0 -1.309,-0.588 -1.309,-1.312 0,-0.725 0.586,-1.312 1.309,-1.312 z m 2.246,10.666 h -1.822 l 0.781,2.622 H 10.394 L 9.628,15.02 H 7.105 L 6.331,17.646 H 5.418 L 6.196,15.02 H 4.357 v -0.536 h 2.001 l 0.603,-2.06 H 5.72 l 0.002,-0.633 h 5.279 V 12.42 H 9.812 l 0.604,2.065 h 1.974 v 0.538 h -0.002 z m 5.504,-5.238 -1.781,1.292 c -0.057,0.044 -0.141,0.029 -0.186,-0.026 l -0.242,-0.337 c -0.041,-0.058 -0.029,-0.143 0.029,-0.188 l 1.779,-1.293 c 0.061,-0.042 0.143,-0.029 0.188,0.029 L 17.92,9.6 c 0.042,0.057 0.028,0.141 -0.028,0.186 z m 1.612,-0.964 -2.128,-0.004 -2.719,1.919 c -0.958,0.689 -1.539,-0.066 -1.539,-0.066 L 10.985,8.535 C 10.628,8.104 10.704,7.291 11.133,6.931 l 2.952,-2.104 c 0.294,-0.244 0.729,-0.206 0.977,0.085 0.248,0.293 0.207,0.73 -0.086,0.977 l -1.889,1.381 1.355,1.342 1.975,-1.387 c 0.154,-0.113 0.334,-0.199 0.536,-0.199 l 2.551,0.002 c 0.495,0 0.896,0.402 0.896,0.896 -10e-4,0.497 -0.401,0.898 -0.896,0.898 z m -4.026,-1.255 -0.371,0.277 -0.705,-1.246 0.371,-0.27 0.705,1.239 z"
   inkscape:connector-curvature="0"
   style="fill:#000000;fill-opacity:0.64705882" />
	<polygon
   id="polygon7087"
   points="8.876,12.42 7.876,12.422 7.271,14.487 9.465,14.487 "
   style="fill:#000000;fill-opacity:0.64705882" />
	<path
   id="path7089"
   d="m 9.812,12.42 h 1.189 V 11.791 H 5.722 L 5.72,12.424 h 1.241 l -0.603,2.06 H 4.357 V 15.02 H 6.196 L 5.418,17.646 H 6.331 L 7.105,15.02 h 2.522 l 0.766,2.626 h 0.953 l -0.781,-2.622 h 1.823 V 14.487 H 10.414 L 9.812,12.42 z m -2.541,2.067 0.605,-2.063 1,-0.002 0.589,2.065 H 7.271 z"
   inkscape:connector-curvature="0"
   style="fill:#000000;fill-opacity:0.64705882" />
	<circle
   id="circle7091"
   r="1.312"
   cy="5.6690001"
   cx="10.142"
   d="m 11.454,5.6690001 c 0,0.7245977 -0.587402,1.3120001 -1.312,1.3120001 -0.7245974,0 -1.3119998,-0.5874024 -1.3119998,-1.3120001 0,-0.7245976 0.5874024,-1.312 1.3119998,-1.312 0.724598,0 1.312,0.5874024 1.312,1.312 z"
   sodipodi:cx="10.142"
   sodipodi:cy="5.6690001"
   sodipodi:rx="1.312"
   sodipodi:ry="1.312"
   style="fill:#000000;fill-opacity:0.64705882" />
	<path
   id="path7093"
   d="M 17.679,9.264 C 17.634,9.204 17.552,9.193 17.491,9.235 l -1.779,1.293 c -0.059,0.045 -0.07,0.13 -0.029,0.188 l 0.242,0.337 c 0.045,0.057 0.129,0.07 0.186,0.026 L 17.892,9.787 C 17.95,9.742 17.962,9.658 17.92,9.6 L 17.679,9.264 z"
   inkscape:connector-curvature="0"
   style="fill:#000000;fill-opacity:0.64705882" />
	<polygon
   id="polygon7095"
   points="14.771,6.329 14.401,6.598 15.106,7.844 15.478,7.567 "
   style="fill:#000000;fill-opacity:0.64705882" />
	<polygon
   id="polygon7097"
   points="13.456,4.948 13.831,4.674 11.415,0.432 10.889,0.432 "
   style="fill:#000000;fill-opacity:0.64705882" />
	<path
   id="path7099"
   d="M 19.504,7.028 16.953,7.026 c -0.202,0 -0.382,0.086 -0.536,0.199 L 14.442,8.612 13.087,7.27 14.976,5.887 C 15.269,5.642 15.31,5.203 15.064,4.91 14.816,4.619 14.38,4.581 14.086,4.825 L 11.134,6.93 c -0.43,0.359 -0.506,1.174 -0.148,1.604 l 2.133,2.136 c 0,0 0.581,0.757 1.539,0.066 l 2.719,-1.919 2.128,0.004 C 20,8.821 20.401,8.422 20.401,7.925 20.399,7.43 19.999,7.028 19.504,7.028 z"
   inkscape:connector-curvature="0"
   style="fill:#000000;fill-opacity:0.64705882" />
</g><path
       style="fill:#f47423"
       inkscape:connector-curvature="0"
       id="path7061"
       d="m 19.128815,0.12196441 h -7.742 l 2.416,4.24199999 -0.375,0.272 -2.567,-4.51599999 H 4.4958149 c -1.3059999,0 -2.3639999,1.05899999 -2.3639999,2.36499999 V 17.121964 c 0,1.307 1.06,2.365 2.3639999,2.365 H 8.316815 l 3.499,3.497 3.494,-3.497 h 3.817 c 1.307,0 2.365,-1.062 2.365,-2.365 V 2.4869644 c 0.002,-1.306 -1.057,-2.36499999 -2.363,-2.36499999 z m -9.015,3.92599999 c 0.725,0 1.312,0.586 1.312,1.312 0,0.725 -0.587,1.312 -1.312,1.312 -0.7230001,0 -1.309,-0.588 -1.309,-1.312 0,-0.725 0.586,-1.312 1.309,-1.312 z m 2.246,10.6659996 h -1.822 l 0.781,2.622 h -0.953 l -0.766,-2.626 H 7.0768149 l -0.774,2.626 h -0.913 l 0.778,-2.626 h -1.839 v -0.536 h 2.001 l 0.603,-2.06 h -1.241 l 0.002,-0.633 h 5.2790001 v 0.629 h -1.189 l 0.604,2.065 h 1.974 v 0.538 h -0.002 z m 5.504,-5.2379996 -1.781,1.2919996 c -0.057,0.044 -0.141,0.029 -0.186,-0.026 l -0.242,-0.337 c -0.041,-0.058 -0.029,-0.143 0.029,-0.188 l 1.779,-1.2929996 c 0.061,-0.042 0.143,-0.029 0.188,0.029 l 0.241,0.337 c 0.042,0.057 0.028,0.141 -0.028,0.186 z m 1.612,-0.964 -2.128,-0.004 -2.719,1.9189996 c -0.958,0.689 -1.539,-0.066 -1.539,-0.066 l -2.133,-2.1359996 c -0.357,-0.431 -0.281,-1.244 0.148,-1.604 l 2.952,-2.104 c 0.294,-0.244 0.729,-0.206 0.977,0.085 0.248,0.293 0.207,0.73 -0.086,0.977 l -1.889,1.381 1.355,1.342 1.975,-1.387 c 0.154,-0.113 0.334,-0.199 0.536,-0.199 l 2.551,0.002 c 0.495,0 0.896,0.402 0.896,0.896 -0.001,0.497 -0.401,0.898 -0.896,0.898 z m -4.026,-1.255 -0.371,0.277 -0.705,-1.246 0.371,-0.27 0.705,1.239 z" /></g><polygon
     transform="translate(-0.02818505,-0.31003559)"
     points="8.876,12.42 7.876,12.422 7.271,14.487 9.465,14.487 "
     id="polygon7063"
     style="fill:#f47423" /></g><g
   id="g7691"><path
     style="fill:#808080;fill-opacity:0.64705884000000002;filter:url(#filter7667)"
     inkscape:connector-curvature="0"
     id="path7655"
     d="m 17.932666,9.3203701 c -0.045,-0.06 -0.127,-0.071 -0.188,-0.029 l -1.779,1.2929999 c -0.059,0.045 -0.07,0.13 -0.029,0.188 l 0.242,0.337 c 0.045,0.057 0.129,0.07 0.186,0.026 l 1.781,-1.2919999 c 0.058,-0.045 0.07,-0.129 0.028,-0.187 l -0.241,-0.336 z" /><polygon
     style="fill:#808080;fill-opacity:0.64705884000000002;filter:url(#filter7671)"
     id="polygon7657"
     points="14.401,6.598 15.106,7.844 15.478,7.567 14.771,6.329 "
     transform="translate(0.25366548,0.0563701)" /><path
     d="m 10.065666,12.47637 h 1.189 v -0.629 H 5.9756654 l -0.002,0.633 h 1.241 l -0.603,2.06 h -2.001 v 0.536 h 1.839 l -0.778,2.626 h 0.913 l 0.774,-2.626 h 2.5220001 l 0.7660005,2.626 h 0.953 l -0.781,-2.622 h 1.823 v -0.537 h -1.974 l -0.602,-2.067 z m -2.5410006,2.067 0.605,-2.063 1.0000001,-0.002 0.589,2.065 H 7.5246654 z"
     id="path7659"
     inkscape:connector-curvature="0"
     style="fill:#808080;fill-opacity:0.64705884000000002;filter:url(#filter7675)" /><circle
     transform="translate(0.25366548,0.0563701)"
     cx="10.142"
     cy="5.6690001"
     r="1.312"
     id="circle7661"
     d="m 11.454,5.6690001 c 0,0.7245977 -0.587402,1.3120001 -1.312,1.3120001 -0.7245974,0 -1.3119998,-0.5874024 -1.3119998,-1.3120001 0,-0.7245976 0.5874024,-1.312 1.3119998,-1.312 0.724598,0 1.312,0.5874024 1.312,1.312 z"
     sodipodi:cx="10.142"
     sodipodi:cy="5.6690001"
     sodipodi:rx="1.312"
     sodipodi:ry="1.312"
     style="fill:#808080;fill-opacity:0.64705884000000002;filter:url(#filter7679)" /><polygon
     transform="translate(0.25366548,0.0563701)"
     points="13.831,4.674 11.415,0.432 10.889,0.432 13.456,4.948 "
     id="polygon7663"
     style="fill:#808080;fill-opacity:0.64705884000000002;filter:url(#filter7683)" /><path
     d="m 19.757666,7.0843701 -2.551,-0.002 c -0.202,0 -0.382,0.086 -0.536,0.199 l -1.975,1.387 -1.355,-1.342 1.889,-1.383 c 0.293,-0.245 0.334,-0.684 0.088,-0.977 -0.248,-0.291 -0.684,-0.329 -0.978,-0.085 l -2.952,2.105 c -0.43,0.359 -0.506,1.174 -0.148,1.604 l 2.133,2.1359999 c 0,0 0.581,0.757 1.539,0.066 l 2.719,-1.9189999 2.128,0.004 c 0.495,0 0.896,-0.399 0.896,-0.896 -0.002,-0.495 -0.402,-0.897 -0.897,-0.897 z"
     id="path7665"
     inkscape:connector-curvature="0"
     style="fill:#808080;fill-opacity:0.64705884000000002;filter:url(#filter7687)" /></g><path
   style="fill:#ffffff"
   inkscape:connector-curvature="0"
   id="path7065"
   d="m 9.783815,12.109964 h 1.189 v -0.629 H 5.6938149 l -0.002,0.633 h 1.241 l -0.603,2.06 h -2.001 v 0.536 h 1.839 l -0.778,2.626 h 0.913 l 0.774,-2.626 H 9.598815 l 0.766,2.626 h 0.953 l -0.781,-2.622 h 1.823 v -0.537 h -1.974 l -0.602,-2.067 z m -2.5410001,2.067 0.605,-2.063 1.0000001,-0.002 0.589,2.065 H 7.2428149 z" /><circle
   style="fill:#ffffff"
   sodipodi:ry="1.312"
   sodipodi:rx="1.312"
   sodipodi:cy="5.6690001"
   sodipodi:cx="10.142"
   d="m 11.454,5.6690001 c 0,0.7245977 -0.587402,1.3120001 -1.312,1.3120001 -0.7245974,0 -1.3119998,-0.5874024 -1.3119998,-1.3120001 0,-0.7245976 0.5874024,-1.312 1.3119998,-1.312 0.724598,0 1.312,0.5874024 1.312,1.312 z"
   id="circle7067"
   r="1.312"
   cy="5.6690001"
   cx="10.142"
   transform="translate(-0.02818505,-0.31003559)" /><polygon
   style="fill:#ffffff"
   id="polygon7073"
   points="13.456,4.948 13.831,4.674 11.415,0.432 10.889,0.432 "
   transform="translate(-0.02818505,-0.31003559)" /><path
   style="fill:#ffffff"
   inkscape:connector-curvature="0"
   id="path7075"
   d="m 19.475815,6.7179644 -2.551,-0.002 c -0.202,0 -0.382,0.086 -0.536,0.199 l -1.975,1.387 -1.355,-1.342 1.889,-1.383 c 0.293,-0.245 0.334,-0.684 0.088,-0.977 -0.248,-0.291 -0.684,-0.329 -0.978,-0.085 l -2.952,2.105 c -0.43,0.359 -0.506,1.174 -0.148,1.604 l 2.133,2.1359996 c 0,0 0.581,0.757 1.539,0.066 l 2.719,-1.9189996 2.128,0.004 c 0.495,0 0.896,-0.399 0.896,-0.896 -0.002,-0.495 -0.402,-0.897 -0.897,-0.897 z" />
<g
   id="g7699"><path
     d="m 17.650815,8.9539644 c -0.045,-0.06 -0.127,-0.071 -0.188,-0.029 l -1.779,1.2929996 c -0.059,0.045 -0.07,0.13 -0.029,0.188 l 0.242,0.337 c 0.045,0.057 0.129,0.07 0.186,0.026 l 1.781,-1.2919996 c 0.058,-0.045 0.07,-0.129 0.028,-0.187 l -0.241,-0.336 z"
     id="path7069"
     inkscape:connector-curvature="0"
     style="fill:#ffffff" /><polygon
     transform="translate(-0.02818505,-0.31003559)"
     points="14.771,6.329 14.401,6.598 15.106,7.844 15.478,7.567 "
     id="polygon7071"
     style="fill:#ffffff" /><path
     style="fill:#ffffff"
     inkscape:connector-curvature="0"
     id="path7625"
     d="m 9.783815,12.109964 h 1.189 v -0.629 H 5.6938149 l -0.002,0.633 h 1.241 l -0.603,2.06 h -2.001 v 0.536 h 1.839 l -0.778,2.626 h 0.913 l 0.774,-2.626 H 9.598815 l 0.766,2.626 h 0.953 l -0.781,-2.622 h 1.823 v -0.537 h -1.974 l -0.602,-2.067 z m -2.5410001,2.067 0.605,-2.063 1.0000001,-0.002 0.589,2.065 H 7.2428149 z" /><circle
     style="fill:#ffffff"
     sodipodi:ry="1.312"
     sodipodi:rx="1.312"
     sodipodi:cy="5.6690001"
     sodipodi:cx="10.142"
     d="m 11.454,5.6690001 c 0,0.7245977 -0.587402,1.3120001 -1.312,1.3120001 -0.7245974,0 -1.3119998,-0.5874024 -1.3119998,-1.3120001 0,-0.7245976 0.5874024,-1.312 1.3119998,-1.312 0.724598,0 1.312,0.5874024 1.312,1.312 z"
     id="circle7627"
     r="1.312"
     cy="5.6690001"
     cx="10.142"
     transform="translate(-0.02818505,-0.31003559)" /><polygon
     style="fill:#ffffff"
     id="polygon7629"
     points="13.456,4.948 13.831,4.674 11.415,0.432 10.889,0.432 "
     transform="translate(-0.02818505,-0.31003559)" /><path
     style="fill:#ffffff"
     inkscape:connector-curvature="0"
     id="path7631"
     d="m 19.475815,6.7179644 -2.551,-0.002 c -0.202,0 -0.382,0.086 -0.536,0.199 l -1.975,1.387 -1.355,-1.342 1.889,-1.383 c 0.293,-0.245 0.334,-0.684 0.088,-0.977 -0.248,-0.291 -0.684,-0.329 -0.978,-0.085 l -2.952,2.105 c -0.43,0.359 -0.506,1.174 -0.148,1.604 l 2.133,2.1359996 c 0,0 0.581,0.757 1.539,0.066 l 2.719,-1.9189996 2.128,0.004 c 0.495,0 0.896,-0.399 0.896,-0.896 -0.002,-0.495 -0.402,-0.897 -0.897,-0.897 z" /></g></svg>