<?xml version="1.0" encoding="UTF-8" standalone="no"?>
<!-- Generator: Adobe Illustrator 16.0.0, SVG Export Plug-In . SVG Version: 6.00 Build 0)  -->

<svg
   xmlns:dc="http://purl.org/dc/elements/1.1/"
   xmlns:cc="http://creativecommons.org/ns#"
   xmlns:rdf="http://www.w3.org/1999/02/22-rdf-syntax-ns#"
   xmlns:svg="http://www.w3.org/2000/svg"
   xmlns="http://www.w3.org/2000/svg"
   xmlns:sodipodi="http://sodipodi.sourceforge.net/DTD/sodipodi-0.dtd"
   xmlns:inkscape="http://www.inkscape.org/namespaces/inkscape"
   version="1.1"
   id="Layer_1"
   x="0px"
   y="0px"
   width="23.76px"
   height="23.76px"
   viewBox="0 0 23.76 23.76"
   enable-background="new 0 0 23.76 23.76"
   xml:space="preserve"
   inkscape:version="0.48.2 r9819"
   sodipodi:docname="play_33px.svg"><metadata
   id="metadata8424"><rdf:RDF><cc:Work
       rdf:about=""><dc:format>image/svg+xml</dc:format><dc:type
         rdf:resource="http://purl.org/dc/dcmitype/StillImage" /><dc:title></dc:title></cc:Work></rdf:RDF></metadata><defs
   id="defs8422"><filter
   inkscape:collect="always"
   id="filter8956"><feGaussianBlur
     inkscape:collect="always"
     stdDeviation="0.21113001"
     id="feGaussianBlur8958" /></filter>
	
	
	
	
	
	
<filter
   inkscape:collect="always"
   id="filter8985"><feGaussianBlur
     inkscape:collect="always"
     stdDeviation="0.16026771"
     id="feGaussianBlur8987" /></filter></defs><sodipodi:namedview
   pagecolor="#ffffff"
   bordercolor="#666666"
   borderopacity="1"
   objecttolerance="10"
   gridtolerance="10"
   guidetolerance="10"
   inkscape:pageopacity="0"
   inkscape:pageshadow="2"
   inkscape:window-width="1920"
   inkscape:window-height="1033"
   id="namedview8420"
   showgrid="false"
   inkscape:zoom="35.479798"
   inkscape:cx="7.2858364"
   inkscape:cy="11.88"
   inkscape:window-x="-4"
   inkscape:window-y="-4"
   inkscape:window-maximized="1"
   inkscape:current-layer="Layer_1" />
<g
   id="g9003"
   transform="translate(-0.05637011,-0.28185053)"><g
     style="opacity:0.65;fill:#000000;fill-opacity:0.64705882;filter:url(#filter8956)"
     transform="translate(0.73281139,0.87373666)"
     id="g8426">
	<path
   style="fill:#000000;fill-opacity:0.64705882"
   inkscape:connector-curvature="0"
   d="M 19.159,0.432 H 7.207 L 10.835,6.803 10.301,7.194 6.454,0.432 h -1.93 c -1.306,0 -2.364,1.06 -2.364,2.365 v 14.637 c 0,1.306 1.06,2.364 2.364,2.364 h 3.821 l 3.499,3.498 3.496,-3.498 h 3.818 c 1.306,0 2.364,-1.061 2.364,-2.364 V 2.797 C 21.524,1.491 20.465,0.432 19.159,0.432 z M 3.704,8.221 c 0,-1.031 0.836,-1.869 1.865,-1.869 1.033,0 1.873,0.838 1.873,1.869 0,1.034 -0.84,1.873 -1.873,1.873 -1.029,0 -1.865,-0.839 -1.865,-1.873 z m 12.928,5.877 -2.541,1.844 c -0.082,0.062 -0.201,0.043 -0.266,-0.039 l -0.346,-0.479 c -0.061,-0.082 -0.041,-0.201 0.041,-0.268 l 2.539,-1.845 c 0.088,-0.059 0.203,-0.043 0.268,0.042 l 0.346,0.479 c 0.06,0.083 0.041,0.202 -0.041,0.266 z m 2.301,-1.377 -3.037,-0.004 -3.881,2.738 C 10.648,16.438 9.82,15.356 9.82,15.356 L 6.776,12.31 C 6.266,11.697 6.375,10.535 6.987,10.02 L 11.2,7.017 c 0.419,-0.348 1.041,-0.294 1.396,0.121 0.352,0.419 0.295,1.044 -0.125,1.396 l -2.697,1.974 1.938,1.914 2.817,-1.979 c 0.222,-0.159 0.476,-0.283 0.766,-0.283 l 3.641,0.004 c 0.707,0 1.278,0.574 1.278,1.278 -0.002,0.709 -0.574,1.279 -1.281,1.279 z m -5.745,-1.79 -0.53,0.396 -1.009,-1.777 0.529,-0.386 1.01,1.767 z"
   id="path8428" />
	<path
   style="fill:#000000;fill-opacity:0.64705882"
   inkscape:connector-curvature="0"
   d="m 7.442,8.221 c 0,-1.031 -0.84,-1.869 -1.873,-1.869 -1.029,0 -1.865,0.838 -1.865,1.869 0,1.034 0.836,1.873 1.865,1.873 1.034,0 1.873,-0.839 1.873,-1.873 z"
   id="path8430" />
	<path
   style="fill:#000000;fill-opacity:0.64705882"
   inkscape:connector-curvature="0"
   d="m 16.327,13.353 c -0.062,-0.085 -0.18,-0.101 -0.268,-0.042 l -2.539,1.845 c -0.082,0.065 -0.102,0.186 -0.041,0.268 l 0.346,0.479 c 0.062,0.082 0.184,0.103 0.266,0.039 l 2.541,-1.844 c 0.082,-0.063 0.102,-0.184 0.041,-0.266 l -0.346,-0.479 z"
   id="path8432" />
	<polygon
   style="fill:#000000;fill-opacity:0.64705882"
   points="12.179,9.165 11.649,9.55 12.658,11.327 13.188,10.931 "
   id="polygon8434" />
	<polygon
   style="fill:#000000;fill-opacity:0.64705882"
   points="10.301,7.194 10.835,6.803 7.207,0.432 6.454,0.432 "
   id="polygon8436" />
	<path
   style="fill:#000000;fill-opacity:0.64705882"
   inkscape:connector-curvature="0"
   d="m 18.933,10.163 -3.64,-0.004 c -0.29,0 -0.544,0.124 -0.767,0.283 L 11.71,12.421 9.772,10.507 12.468,8.533 C 12.89,8.181 12.947,7.556 12.595,7.137 12.239,6.722 11.616,6.668 11.198,7.016 l -4.213,3.003 c -0.612,0.515 -0.721,1.677 -0.211,2.29 l 3.044,3.046 c 0,0 0.828,1.082 2.195,0.099 l 3.882,-2.738 3.037,0.004 c 0.707,0 1.278,-0.57 1.278,-1.279 0.002,-0.703 -0.57,-1.278 -1.277,-1.278 z"
   id="path8438" />
</g><path
     d="M 19.159,0.432 H 7.207 L 10.835,6.803 10.301,7.194 6.454,0.432 h -1.93 c -1.306,0 -2.364,1.06 -2.364,2.365 v 14.637 c 0,1.306 1.06,2.364 2.364,2.364 h 3.821 l 3.499,3.498 3.496,-3.498 h 3.818 c 1.306,0 2.364,-1.061 2.364,-2.364 V 2.797 C 21.524,1.491 20.465,0.432 19.159,0.432 z M 3.704,8.221 c 0,-1.031 0.836,-1.869 1.865,-1.869 1.033,0 1.873,0.838 1.873,1.869 0,1.034 -0.84,1.873 -1.873,1.873 -1.029,0 -1.865,-0.839 -1.865,-1.873 z m 12.928,5.877 -2.541,1.844 c -0.082,0.062 -0.201,0.043 -0.266,-0.039 l -0.346,-0.479 c -0.061,-0.082 -0.041,-0.201 0.041,-0.268 l 2.539,-1.845 c 0.088,-0.059 0.203,-0.043 0.268,0.042 l 0.346,0.479 c 0.06,0.083 0.041,0.202 -0.041,0.266 z m 2.301,-1.377 -3.037,-0.004 -3.881,2.738 C 10.648,16.438 9.82,15.356 9.82,15.356 L 6.776,12.31 C 6.266,11.697 6.375,10.535 6.987,10.02 L 11.2,7.017 c 0.419,-0.348 1.041,-0.294 1.396,0.121 0.352,0.419 0.295,1.044 -0.125,1.396 l -2.697,1.974 1.938,1.914 2.817,-1.979 c 0.222,-0.159 0.476,-0.283 0.766,-0.283 l 3.641,0.004 c 0.707,0 1.278,0.574 1.278,1.278 -0.002,0.709 -0.574,1.279 -1.281,1.279 z m -5.745,-1.79 -0.53,0.396 -1.009,-1.777 0.529,-0.386 1.01,1.767 z"
     id="path8408"
     inkscape:connector-curvature="0"
     style="fill:#f47423" /><g
     id="g8989"><g
       id="g8973"
       transform="translate(0.22548043,0.45096085)"
       style="fill:#808080;fill-opacity:0.64705882;filter:url(#filter8985)"><path
         style="fill:#808080;fill-opacity:0.64705882"
         inkscape:connector-curvature="0"
         id="path8975"
         d="m 7.442,8.221 c 0,-1.031 -0.84,-1.869 -1.873,-1.869 -1.029,0 -1.865,0.838 -1.865,1.869 0,1.034 0.836,1.873 1.865,1.873 1.034,0 1.873,-0.839 1.873,-1.873 z" /><path
         style="fill:#808080;fill-opacity:0.64705882"
         inkscape:connector-curvature="0"
         id="path8977"
         d="m 16.327,13.353 c -0.062,-0.085 -0.18,-0.101 -0.268,-0.042 l -2.539,1.845 c -0.082,0.065 -0.102,0.186 -0.041,0.268 l 0.346,0.479 c 0.062,0.082 0.184,0.103 0.266,0.039 l 2.541,-1.844 c 0.082,-0.063 0.102,-0.184 0.041,-0.266 l -0.346,-0.479 z" /><polygon
         style="fill:#808080;fill-opacity:0.64705882"
         id="polygon8979"
         points="11.649,9.55 12.658,11.327 13.188,10.931 12.179,9.165 " /><polygon
         style="fill:#808080;fill-opacity:0.64705882"
         id="polygon8981"
         points="10.835,6.803 7.207,0.432 6.454,0.432 10.301,7.194 " /><path
         style="fill:#808080;fill-opacity:0.64705882"
         inkscape:connector-curvature="0"
         id="path8983"
         d="m 18.933,10.163 -3.64,-0.004 c -0.29,0 -0.544,0.124 -0.767,0.283 L 11.71,12.421 9.772,10.507 12.468,8.533 C 12.89,8.181 12.947,7.556 12.595,7.137 12.239,6.722 11.616,6.668 11.198,7.016 l -4.213,3.003 c -0.612,0.515 -0.721,1.677 -0.211,2.29 l 3.044,3.046 c 0,0 0.828,1.082 2.195,0.099 l 3.882,-2.738 3.037,0.004 c 0.707,0 1.278,-0.57 1.278,-1.279 0.002,-0.703 -0.57,-1.278 -1.277,-1.278 z" /></g><g
       id="g8966"><path
         d="m 7.442,8.221 c 0,-1.031 -0.84,-1.869 -1.873,-1.869 -1.029,0 -1.865,0.838 -1.865,1.869 0,1.034 0.836,1.873 1.865,1.873 1.034,0 1.873,-0.839 1.873,-1.873 z"
         id="path8410"
         inkscape:connector-curvature="0"
         style="fill:#ffffff" /><path
         d="m 16.327,13.353 c -0.062,-0.085 -0.18,-0.101 -0.268,-0.042 l -2.539,1.845 c -0.082,0.065 -0.102,0.186 -0.041,0.268 l 0.346,0.479 c 0.062,0.082 0.184,0.103 0.266,0.039 l 2.541,-1.844 c 0.082,-0.063 0.102,-0.184 0.041,-0.266 l -0.346,-0.479 z"
         id="path8412"
         inkscape:connector-curvature="0"
         style="fill:#ffffff" /><polygon
         points="12.179,9.165 11.649,9.55 12.658,11.327 13.188,10.931 "
         id="polygon8414"
         style="fill:#ffffff" /><polygon
         points="10.301,7.194 10.835,6.803 7.207,0.432 6.454,0.432 "
         id="polygon8416"
         style="fill:#ffffff" /><path
         d="m 18.933,10.163 -3.64,-0.004 c -0.29,0 -0.544,0.124 -0.767,0.283 L 11.71,12.421 9.772,10.507 12.468,8.533 C 12.89,8.181 12.947,7.556 12.595,7.137 12.239,6.722 11.616,6.668 11.198,7.016 l -4.213,3.003 c -0.612,0.515 -0.721,1.677 -0.211,2.29 l 3.044,3.046 c 0,0 0.828,1.082 2.195,0.099 l 3.882,-2.738 3.037,0.004 c 0.707,0 1.278,-0.57 1.278,-1.279 0.002,-0.703 -0.57,-1.278 -1.277,-1.278 z"
         id="path8418"
         inkscape:connector-curvature="0"
         style="fill:#ffffff" /></g></g></g>
</svg>