<?xml version="1.0" encoding="UTF-8" standalone="no"?>
<!-- Generator: Adobe Illustrator 16.0.0, SVG Export Plug-In . SVG Version: 6.00 Build 0)  -->

<svg
   xmlns:dc="http://purl.org/dc/elements/1.1/"
   xmlns:cc="http://creativecommons.org/ns#"
   xmlns:rdf="http://www.w3.org/1999/02/22-rdf-syntax-ns#"
   xmlns:svg="http://www.w3.org/2000/svg"
   xmlns="http://www.w3.org/2000/svg"
   xmlns:sodipodi="http://sodipodi.sourceforge.net/DTD/sodipodi-0.dtd"
   xmlns:inkscape="http://www.inkscape.org/namespaces/inkscape"
   version="1.1"
   id="Layer_1"
   x="0px"
   y="0px"
   width="23.76px"
   height="23.76px"
   viewBox="0 0 23.76 23.76"
   enable-background="new 0 0 23.76 23.76"
   xml:space="preserve"
   inkscape:version="0.48.2 r9819"
   sodipodi:docname="picnic_33px.svg"><metadata
   id="metadata6467"><rdf:RDF><cc:Work
       rdf:about=""><dc:format>image/svg+xml</dc:format><dc:type
         rdf:resource="http://purl.org/dc/dcmitype/StillImage" /><dc:title></dc:title></cc:Work></rdf:RDF></metadata><defs
   id="defs6465"><filter
   inkscape:collect="always"
   id="filter7005"><feGaussianBlur
     inkscape:collect="always"
     stdDeviation="0.21112001"
     id="feGaussianBlur7007" /></filter>
	
	
<filter
   inkscape:collect="always"
   id="filter7014"><feGaussianBlur
     inkscape:collect="always"
     stdDeviation="0.13911"
     id="feGaussianBlur7016" /></filter></defs><sodipodi:namedview
   pagecolor="#ffffff"
   bordercolor="#666666"
   borderopacity="1"
   objecttolerance="10"
   gridtolerance="10"
   guidetolerance="10"
   inkscape:pageopacity="0"
   inkscape:pageshadow="2"
   inkscape:window-width="1920"
   inkscape:window-height="1033"
   id="namedview6463"
   showgrid="false"
   inkscape:zoom="35.479798"
   inkscape:cx="7.2858364"
   inkscape:cy="11.88"
   inkscape:window-x="-4"
   inkscape:window-y="-4"
   inkscape:window-maximized="1"
   inkscape:current-layer="Layer_1" />
<g
   id="g3057"><g
     style="opacity:0.65;fill:#000000;fill-opacity:0.50196078;filter:url(#filter7005)"
     transform="translate(0.90192171,0.73281136)"
     id="g6993">
	<g
   style="fill:#000000;fill-opacity:0.50196078"
   id="g6995">
		<path
   style="fill:#000000;fill-opacity:0.50196078"
   inkscape:connector-curvature="0"
   d="M 19.157,0.432 H 4.524 c -1.306,0 -2.364,1.06 -2.364,2.365 v 14.636 c 0,1.307 1.06,2.365 2.364,2.365 h 3.821 l 3.499,3.498 3.494,-3.498 h 3.817 c 1.307,0 2.365,-1.061 2.365,-2.365 V 2.797 C 21.522,1.491 20.463,0.432 19.157,0.432 z"
   id="path6997" />
	</g>
	<path
   style="fill:#000000;fill-opacity:0.50196078"
   inkscape:connector-curvature="0"
   d="M 19.687,9.986 H 15.736 L 14.525,5.846 16.913,5.845 V 4.585 H 6.33 L 6.329,5.854 8.813,5.853 7.606,9.979 h -4.01 v 1.075 H 7.28 l -1.558,5.262 h 1.829 l 1.553,-5.262 h 5.055 l 1.533,5.262 H 17.6 L 16.036,11.06 h 3.65 V 9.986 l 0.001,0 z m -10.252,0 1.215,-4.137 2,-0.003 1.183,4.14 H 9.435 l 0,0 0,0 z"
   id="path6999" />
</g><g
     style="fill:#008000"
     transform="translate(0.08455516,-0.33822064)"
     id="g6457">
		<path
   d="M 19.157,0.432 H 4.524 c -1.306,0 -2.364,1.06 -2.364,2.365 v 14.636 c 0,1.307 1.06,2.365 2.364,2.365 h 3.821 l 3.499,3.498 3.494,-3.498 h 3.817 c 1.307,0 2.365,-1.061 2.365,-2.365 V 2.797 C 21.522,1.491 20.463,0.432 19.157,0.432 z"
   id="path6459"
   inkscape:connector-curvature="0"
   style="fill:#008000" />
	</g><g
     id="g7018"><path
       d="m 20.137961,10.126925 h -3.951 l -1.211,-4.1399997 2.388,-0.001 v -1.26 H 6.7809609 l -0.001,1.269 2.484,-0.001 -1.207,4.1259997 h -4.01 v 1.075 h 3.684 l -1.558,5.262 h 1.829 l 1.553,-5.262 h 5.0550001 l 1.533,5.262 h 1.908 l -1.564,-5.256 h 3.65 v -1.074 l 0.001,0 z m -10.2520001,0 1.2150001,-4.1369997 2,-0.003 1.183,4.1399997 H 9.8859609 l 0,0 0,0 z"
       id="path7012"
       inkscape:connector-curvature="0"
       style="fill:#808080;fill-opacity:0.64705882;filter:url(#filter7014)" /><path
       style="fill:#ffffff"
       inkscape:connector-curvature="0"
       id="path6461"
       d="m 19.771555,9.6477794 h -3.951 l -1.211,-4.14 2.388,-0.001 v -1.26 H 6.4145552 l -10e-4,1.269 2.484,-0.001 -1.207,4.126 h -4.01 v 1.0749996 h 3.684 l -1.558,5.262 h 1.829 l 1.553,-5.262 h 5.0549998 l 1.533,5.262 h 1.908 l -1.564,-5.256 h 3.65 V 9.6477794 l 10e-4,0 z m -10.2519998,0 1.2149998,-4.137 2,-0.003 1.183,4.14 H 9.5195552 l 0,0 0,0 z" /></g></g>
</svg>