<?xml version="1.0" encoding="UTF-8" standalone="no"?>
<!-- Created with Inkscape (http://www.inkscape.org/) -->

<svg
   xmlns:dc="http://purl.org/dc/elements/1.1/"
   xmlns:cc="http://creativecommons.org/ns#"
   xmlns:rdf="http://www.w3.org/1999/02/22-rdf-syntax-ns#"
   xmlns:svg="http://www.w3.org/2000/svg"
   xmlns="http://www.w3.org/2000/svg"
   xmlns:sodipodi="http://sodipodi.sourceforge.net/DTD/sodipodi-0.dtd"
   xmlns:inkscape="http://www.inkscape.org/namespaces/inkscape"
   id="svg6111"
   version="1.1"
   inkscape:version="0.48.2 r9819"
   width="29.69975"
   height="29.69975"
   xml:space="preserve"
   sodipodi:docname="restroom.svg"><metadata
     id="metadata6117"><rdf:RDF><cc:Work
         rdf:about=""><dc:format>image/svg+xml</dc:format><dc:type
           rdf:resource="http://purl.org/dc/dcmitype/StillImage" /><dc:title></dc:title></cc:Work></rdf:RDF></metadata><defs
     id="defs6115"><clipPath
       clipPathUnits="userSpaceOnUse"
       id="clipPath6125"><path
         d="m 0,23.76 23.76,0 L 23.76,0 0,0 0,23.76 z"
         id="path6127" /></clipPath><clipPath
       clipPathUnits="userSpaceOnUse"
       id="clipPath6133"><path
         d="m 1.74609,23.5986 19.36031,0 0,-22.861295 -19.36031,0 0,22.861295 z"
         id="path6135" /></clipPath><clipPath
       clipPathUnits="userSpaceOnUse"
       id="clipPath6137"><path
         d="m 1.74609,23.5986 19.36031,0 0,-22.861295 -19.36031,0 0,22.861295 z"
         id="path6139" /></clipPath><clipPath
       clipPathUnits="userSpaceOnUse"
       id="clipPath6165"><path
         d="m 3.12695,23.1011 14.98435,0 0,-16.2095 -14.98435,0 0,16.2095 z"
         id="path6167" /></clipPath><filter
       inkscape:collect="always"
       id="filter8120"><feGaussianBlur
         inkscape:collect="always"
         stdDeviation="0.211105"
         id="feGaussianBlur8122" /></filter><filter
       inkscape:collect="always"
       id="filter8206"><feGaussianBlur
         inkscape:collect="always"
         stdDeviation="0.138"
         id="feGaussianBlur8208" /></filter></defs><sodipodi:namedview
     pagecolor="#ffffff"
     bordercolor="#666666"
     borderopacity="1"
     objecttolerance="10"
     gridtolerance="10"
     guidetolerance="10"
     inkscape:pageopacity="0"
     inkscape:pageshadow="2"
     inkscape:window-width="1920"
     inkscape:window-height="1033"
     id="namedview6113"
     showgrid="false"
     inkscape:zoom="26.16657"
     inkscape:cx="14.786952"
     inkscape:cy="14.472336"
     inkscape:window-x="-4"
     inkscape:window-y="-4"
     inkscape:window-maximized="1"
     inkscape:current-layer="g6119" /><g
     id="g6119"
     inkscape:groupmode="layer"
     inkscape:label="cm_icons"
     transform="matrix(1.25,0,0,-1.25,0,29.69975)"><g
       id="g8210"><g
         style="opacity:0.65;stroke:#000000;stroke-opacity:0.25490196;filter:url(#filter8120)"
         transform="translate(1.0067709,-0.89526014)"
         id="g6129"><g
           style="stroke:#000000;stroke-opacity:0.25490196"
           id="g6131" /><g
           style="stroke:#000000;stroke-opacity:0.25490196"
           id="g6141"><g
             style="opacity:0.64999402;stroke:#000000;stroke-opacity:0.25490196"
             id="g6143"
             clip-path="url(#clipPath6133)"><g
               style="stroke:#000000;stroke-opacity:0.25490196"
               id="g6145"><g
                 style="stroke:#000000;stroke-opacity:0.25490196"
                 id="g6147" /><g
                 style="stroke:#000000;stroke-opacity:0.25490196"
                 id="g6149"><g
                   style="opacity:0.64706397;stroke:#000000;stroke-opacity:0.25490196"
                   id="g6151"
                   clip-path="url(#clipPath6137)"><g
                     style="stroke:#000000;stroke-opacity:0.25490196"
                     id="g6153"
                     transform="translate(18.7422,23.5986)"><path
                       inkscape:connector-curvature="0"
                       id="path6155"
                       style="fill:#000000;fill-opacity:1;fill-rule:nonzero;stroke:#000000;stroke-opacity:0.25490196"
                       d="m 0,0 -14.633,0 c -1.305,0 -2.363,-1.059 -2.363,-2.365 l 0,-14.633 c 0,-1.307 1.059,-2.365 2.363,-2.365 l 3.821,0 3.499,-3.498 3.495,3.498 3.818,0 c 1.305,0 2.364,1.058 2.364,2.365 l 0,14.633 C 2.364,-1.059 1.304,0 0,0" /></g></g></g></g></g></g></g><path
         d="m 18.903271,23.492439 -14.632,0 c -1.306,0 -2.364,-1.059 -2.364,-2.365 l 0,-14.633 c 0,-1.307 1.059,-2.365 2.364,-2.365 l 3.82,0 3.499,-3.498 3.495,3.498 3.818,0 c 1.305,0 2.364,1.058 2.364,2.365 l 0,14.633 c 0,1.306001 -1.06,2.365 -2.364,2.365"
         style="fill:#f47423;fill-opacity:1;fill-rule:nonzero;stroke:none"
         id="path6159"
         inkscape:connector-curvature="0" /><path
         sodipodi:nodetypes="ssssssssssssccsccccsccssssccccccccss"
         inkscape:connector-curvature="0"
         id="path7711"
         d="m 8.75673,21.81904 c -1.104568,0 -2,-0.895432 -2,-2 0,-1.104568 0.895432,-2 2,-2 1.104568,0 2,0.895432 2,2 0,1.104568 -0.895432,2 -2,2 z m 6.4,0 c -1.104568,0 -2,-0.895432 -2,-2 0,-1.104568 0.895432,-2 2,-2 1.104568,0 2,0.895432 2,2 0,1.104568 -0.895432,2 -2,2 z m -6.8,-4.8 c -0.8,0 -1.6,-0.8 -1.6,-1.6 l 0,-1.6 -1.2,-3.6 c 0,-0.4 0.4,-0.4 0.8,-0.4 l 1.2,0 0,-3.2 2.4,0 0,3.2 1.2,0 c 0.4,0 0.8,0 0.8,0.4 l -1.2,3.6 0,1.6 c 0,0.8 -0.8,1.6 -1.6,1.6 z m 4.8,0 c -0.4,0 -0.8,-0.4 -0.8,-0.8 l 1.6,-4.8 0,-1.6 0,-3.2 2.4,0 0,3.2 0,1.6 1.6,4.8 c 0,0.4 -0.4,0.8 -0.8,0.8 z"
         style="opacity:0.3;color:#000000;fill:#ffffff;fill-opacity:1;stroke:none;stroke-width:2;marker:none;visibility:visible;display:inline;overflow:visible;enable-background:accumulate" /><path
         style="color:#000000;fill:#808080;fill-opacity:0.64705882;fill-rule:nonzero;stroke:none;stroke-width:2;marker:none;visibility:visible;display:inline;overflow:visible;filter:url(#filter8206);enable-background:accumulate"
         d="m 9.1987712,21.510879 c -1.104568,0 -2,-0.895432 -2,-2 0,-1.104568 0.895432,-2 2,-2 1.1045678,0 1.9999998,0.895432 1.9999998,2 0,1.104568 -0.895432,2 -1.9999998,2 z m 6.3999998,0 c -1.104568,0 -2,-0.895432 -2,-2 0,-1.104568 0.895432,-2 2,-2 1.104568,0 2,0.895432 2,2 0,1.104568 -0.895432,2 -2,2 z m -6.7999998,-4.8 c -0.8,0 -1.6,-0.8 -1.6,-1.6 l 0,-1.6 -1.2,-3.6000006 c 0,-0.4 0.4,-0.4 0.8,-0.4 l 1.2,0 0,-3.2 2.3999998,0 0,3.2 1.2,0 c 0.4,0 0.8,0 0.8,0.4 l -1.2,3.6000006 0,1.6 c 0,0.8 -0.8,1.6 -1.5999998,1.6 z m 4.7999998,0 c -0.4,0 -0.8,-0.4 -0.8,-0.8 l 1.6,-4.8 0,-1.6000006 0,-3.2 2.4,0 0,3.2 0,1.6000006 1.6,4.8 c 0,0.4 -0.4,0.8 -0.8,0.8 z"
         id="path16479-4"
         inkscape:connector-curvature="0"
         sodipodi:nodetypes="ssssssssssssccsccccsccssssccccccccss" /><path
         style="color:#000000;fill:#ffffff;fill-opacity:1;fill-rule:nonzero;stroke:none;stroke-width:2;marker:none;visibility:visible;display:inline;overflow:visible;enable-background:accumulate"
         d="m 8.75673,21.81904 c -1.104568,0 -2,-0.895432 -2,-2 0,-1.104568 0.895432,-2 2,-2 1.104568,0 2,0.895432 2,2 0,1.104568 -0.895432,2 -2,2 z m 6.4,0 c -1.104568,0 -2,-0.895432 -2,-2 0,-1.104568 0.895432,-2 2,-2 1.104568,0 2,0.895432 2,2 0,1.104568 -0.895432,2 -2,2 z m -6.8,-4.8 c -0.8,0 -1.6,-0.8 -1.6,-1.6 l 0,-1.6 -1.2,-3.6 c 0,-0.4 0.4,-0.4 0.8,-0.4 l 1.2,0 0,-3.2 2.4,0 0,3.2 1.2,0 c 0.4,0 0.8,0 0.8,0.4 l -1.2,3.6 0,1.6 c 0,0.8 -0.8,1.6 -1.6,1.6 z m 4.8,0 c -0.4,0 -0.8,-0.4 -0.8,-0.8 l 1.6,-4.8 0,-1.6 0,-3.2 2.4,0 0,3.2 0,1.6 1.6,4.8 c 0,0.4 -0.4,0.8 -0.8,0.8 z"
         id="path16479"
         inkscape:connector-curvature="0"
         sodipodi:nodetypes="ssssssssssssccsccccsccssssccccccccss" /></g><g
       id="g6161"
       transform="translate(40.57288,-16.511048)"><g
         id="g6163" /><g
         id="g6169"><g
           clip-path="url(#clipPath6165)"
           id="g6171"
           style="opacity:0.64706397"><g
             transform="translate(12.0566,10.8486)"
             id="g6173"><path
               d="m 0,0 0,2.262 0,9.99 -8.504,-9.99 7.373,0 0,-2.262 -7.799,0 c 0,-3.015 2.261,-3.957 2.261,-3.957 l 10.462,0 c 0,0 2.262,0.942 2.262,3.957 L 0,0 z"
               style="fill:#808080;fill-opacity:1;fill-rule:nonzero;stroke:none"
               id="path6175"
               inkscape:connector-curvature="0" /></g></g></g></g><g
       id="g6177"
       transform="translate(55.702979,4.2964782)"><path
         d="m 0,0 0,2.262 0,9.99 -8.504,-9.99 7.372,0 0,-2.262 -7.799,0 c 0,-3.015 2.262,-3.957 2.262,-3.957 l 10.462,0 c 0,0 2.261,0.942 2.261,3.957 L 0,0 z"
         style="fill:#ffffff;fill-opacity:1;fill-rule:nonzero;stroke:none"
         id="path6179"
         inkscape:connector-curvature="0" /></g></g></svg>