<?xml version="1.0" encoding="UTF-8" standalone="no"?>
<!-- Generator: Adobe Illustrator 16.0.0, SVG Export Plug-In . SVG Version: 6.00 Build 0)  -->

<svg
   xmlns:dc="http://purl.org/dc/elements/1.1/"
   xmlns:cc="http://creativecommons.org/ns#"
   xmlns:rdf="http://www.w3.org/1999/02/22-rdf-syntax-ns#"
   xmlns:svg="http://www.w3.org/2000/svg"
   xmlns="http://www.w3.org/2000/svg"
   xmlns:sodipodi="http://sodipodi.sourceforge.net/DTD/sodipodi-0.dtd"
   xmlns:inkscape="http://www.inkscape.org/namespaces/inkscape"
   version="1.1"
   id="Layer_1"
   x="0px"
   y="0px"
   width="23.76px"
   height="23.76px"
   viewBox="0 0 23.76 23.76"
   enable-background="new 0 0 23.76 23.76"
   xml:space="preserve"
   inkscape:version="0.48.2 r9819"
   sodipodi:docname="sled_33px.svg"><metadata
   id="metadata9062"><rdf:RDF><cc:Work
       rdf:about=""><dc:format>image/svg+xml</dc:format><dc:type
         rdf:resource="http://purl.org/dc/dcmitype/StillImage" /><dc:title></dc:title></cc:Work></rdf:RDF></metadata><defs
   id="defs9060"><filter
   inkscape:collect="always"
   id="filter9592"><feGaussianBlur
     inkscape:collect="always"
     stdDeviation="0.21112001"
     id="feGaussianBlur9594" /></filter>
	
	
<filter
   inkscape:collect="always"
   id="filter9607"><feGaussianBlur
     inkscape:collect="always"
     stdDeviation="0.15479871"
     id="feGaussianBlur9609" /></filter></defs><sodipodi:namedview
   pagecolor="#ffffff"
   bordercolor="#666666"
   borderopacity="1"
   objecttolerance="10"
   gridtolerance="10"
   guidetolerance="10"
   inkscape:pageopacity="0"
   inkscape:pageshadow="2"
   inkscape:window-width="1920"
   inkscape:window-height="1033"
   id="namedview9058"
   showgrid="false"
   inkscape:zoom="35.479798"
   inkscape:cx="7.2858364"
   inkscape:cy="11.88"
   inkscape:window-x="-4"
   inkscape:window-y="-4"
   inkscape:window-maximized="1"
   inkscape:current-layer="Layer_1" />
<g
   id="g9619"><g
     style="opacity:0.65;fill:#000000;fill-opacity:0.64705882;filter:url(#filter9592)"
     transform="translate(0.70462633,0.53551601)"
     id="g9064">
	<g
   style="fill:#000000;fill-opacity:0.64705882"
   id="g9066">
		<path
   style="fill:#000000;fill-opacity:0.64705882"
   inkscape:connector-curvature="0"
   d="M 19.157,0.432 H 4.524 c -1.306,0 -2.364,1.06 -2.364,2.366 v 14.635 c 0,1.307 1.06,2.365 2.364,2.365 h 3.821 l 3.499,3.498 3.494,-3.498 h 3.817 c 1.307,0 2.365,-1.06 2.365,-2.365 V 2.798 C 21.522,1.491 20.463,0.432 19.157,0.432 z"
   id="path9068" />
	</g>
	<g
   style="fill:#000000;fill-opacity:0.64705882"
   id="g9070">
		<path
   style="fill:#000000;fill-opacity:0.64705882"
   inkscape:connector-curvature="0"
   d="m 17.737,13.414 c 0.881,0 1.596,-0.717 1.596,-1.601 0,-0.88 -0.715,-1.592 -1.596,-1.592 -0.883,0 -1.594,0.712 -1.594,1.592 10e-4,0.886 0.711,1.601 1.594,1.601 z"
   id="path9072" />
		<path
   style="fill:#000000;fill-opacity:0.64705882"
   inkscape:connector-curvature="0"
   d="m 18.878,16.982 c 0.072,0.022 0.148,0.036 0.229,0.036 0.408,0 0.74,-0.332 0.74,-0.741 0,-0.308 -0.193,-0.575 -0.459,-0.684 L 17.179,14.734 15.572,11.88 c 0,0 -0.133,-0.316 -0.596,-0.489 L 9.705,9.28 6.571,3.971 C 6.39,3.667 6.057,3.459 5.673,3.459 c -0.578,0 -1.047,0.472 -1.047,1.053 0,0.183 0.05,0.355 0.133,0.507 l 3.885,6.594 -2.463,-0.98 -0.621,0.37 9.852,3.877 h -0.007 l 0.406,0.639 c 0,0 0.16,0.344 0.635,0.532 l 1.226,0.476 c -0.796,0.796 -1.912,0.452 -1.912,0.452 L 3.731,12.146 3.067,12.542 15.626,17.509 c 1.46,0.532 2.652,-0.744 2.652,-0.744 v 0.004 l 0.6,0.213 z"
   id="path9074" />
	</g>
</g><g
     transform="translate(-0.05637011,-0.31003559)"
     id="g9048">
		<path
   d="M 19.157,0.432 H 4.524 c -1.306,0 -2.364,1.06 -2.364,2.366 v 14.635 c 0,1.307 1.06,2.365 2.364,2.365 h 3.821 l 3.499,3.498 3.494,-3.498 h 3.817 c 1.307,0 2.365,-1.06 2.365,-2.365 V 2.798 C 21.522,1.491 20.463,0.432 19.157,0.432 z"
   id="path9050"
   inkscape:connector-curvature="0"
   style="fill:#f47423" />
	</g><g
     transform="translate(0,-1.071032)"
     id="g9611"><g
       transform="translate(0.14092526,0.25366548)"
       id="g9601"
       style="fill:#808080;fill-opacity:0.64705882;filter:url(#filter9607)">
		<path
   d="m 17.737,13.414 c 0.881,0 1.596,-0.717 1.596,-1.601 0,-0.88 -0.715,-1.592 -1.596,-1.592 -0.883,0 -1.594,0.712 -1.594,1.592 10e-4,0.886 0.711,1.601 1.594,1.601 z"
   id="path9603"
   inkscape:connector-curvature="0"
   style="fill:#808080;fill-opacity:0.64705882" />
		<path
   d="m 18.878,16.982 c 0.072,0.022 0.148,0.036 0.229,0.036 0.408,0 0.74,-0.332 0.74,-0.741 0,-0.308 -0.193,-0.575 -0.459,-0.684 L 17.179,14.734 15.572,11.88 c 0,0 -0.133,-0.316 -0.596,-0.489 L 9.705,9.28 6.571,3.971 C 6.39,3.667 6.057,3.459 5.673,3.459 c -0.578,0 -1.047,0.472 -1.047,1.053 0,0.183 0.05,0.355 0.133,0.507 l 3.885,6.594 -2.463,-0.98 -0.621,0.37 9.852,3.877 h -0.007 l 0.406,0.639 c 0,0 0.16,0.344 0.635,0.532 l 1.226,0.476 c -0.796,0.796 -1.912,0.452 -1.912,0.452 L 3.731,12.146 3.067,12.542 15.626,17.509 c 1.46,0.532 2.652,-0.744 2.652,-0.744 v 0.004 l 0.6,0.213 z"
   id="path9605"
   inkscape:connector-curvature="0"
   style="fill:#808080;fill-opacity:0.64705882" />
	</g><g
       id="g9052"
       transform="translate(-0.05637011,-0.31003559)">
		<path
   style="fill:#ffffff"
   inkscape:connector-curvature="0"
   id="path9054"
   d="m 17.737,13.414 c 0.881,0 1.596,-0.717 1.596,-1.601 0,-0.88 -0.715,-1.592 -1.596,-1.592 -0.883,0 -1.594,0.712 -1.594,1.592 10e-4,0.886 0.711,1.601 1.594,1.601 z" />
		<path
   style="fill:#ffffff"
   inkscape:connector-curvature="0"
   id="path9056"
   d="m 18.878,16.982 c 0.072,0.022 0.148,0.036 0.229,0.036 0.408,0 0.74,-0.332 0.74,-0.741 0,-0.308 -0.193,-0.575 -0.459,-0.684 L 17.179,14.734 15.572,11.88 c 0,0 -0.133,-0.316 -0.596,-0.489 L 9.705,9.28 6.571,3.971 C 6.39,3.667 6.057,3.459 5.673,3.459 c -0.578,0 -1.047,0.472 -1.047,1.053 0,0.183 0.05,0.355 0.133,0.507 l 3.885,6.594 -2.463,-0.98 -0.621,0.37 9.852,3.877 h -0.007 l 0.406,0.639 c 0,0 0.16,0.344 0.635,0.532 l 1.226,0.476 c -0.796,0.796 -1.912,0.452 -1.912,0.452 L 3.731,12.146 3.067,12.542 15.626,17.509 c 1.46,0.532 2.652,-0.744 2.652,-0.744 v 0.004 l 0.6,0.213 z" />
	</g></g></g>
</svg>