<?xml version="1.0" encoding="UTF-8" standalone="no"?>
<!-- Generator: Adobe Illustrator 16.0.0, SVG Export Plug-In . SVG Version: 6.00 Build 0)  -->

<svg
   xmlns:dc="http://purl.org/dc/elements/1.1/"
   xmlns:cc="http://creativecommons.org/ns#"
   xmlns:rdf="http://www.w3.org/1999/02/22-rdf-syntax-ns#"
   xmlns:svg="http://www.w3.org/2000/svg"
   xmlns="http://www.w3.org/2000/svg"
   xmlns:sodipodi="http://sodipodi.sourceforge.net/DTD/sodipodi-0.dtd"
   xmlns:inkscape="http://www.inkscape.org/namespaces/inkscape"
   version="1.1"
   id="Layer_1"
   x="0px"
   y="0px"
   width="23.76px"
   height="23.76px"
   viewBox="0 0 23.76 23.76"
   enable-background="new 0 0 23.76 23.76"
   xml:space="preserve"
   inkscape:version="0.48.2 r9819"
   sodipodi:docname="swim_33px.svg"><metadata
   id="metadata9676"><rdf:RDF><cc:Work
       rdf:about=""><dc:format>image/svg+xml</dc:format><dc:type
         rdf:resource="http://purl.org/dc/dcmitype/StillImage" /><dc:title></dc:title></cc:Work></rdf:RDF></metadata><defs
   id="defs9674"><filter
   inkscape:collect="always"
   id="filter10208"><feGaussianBlur
     inkscape:collect="always"
     stdDeviation="0.21111501"
     id="feGaussianBlur10210" /></filter>
	
	
<filter
   inkscape:collect="always"
   id="filter10226"><feGaussianBlur
     inkscape:collect="always"
     stdDeviation="0.13755"
     id="feGaussianBlur10228" /></filter></defs><sodipodi:namedview
   pagecolor="#ffffff"
   bordercolor="#666666"
   borderopacity="1"
   objecttolerance="10"
   gridtolerance="10"
   guidetolerance="10"
   inkscape:pageopacity="0"
   inkscape:pageshadow="2"
   inkscape:window-width="1920"
   inkscape:window-height="1033"
   id="namedview9672"
   showgrid="false"
   inkscape:zoom="35.479798"
   inkscape:cx="7.2858364"
   inkscape:cy="11.88"
   inkscape:window-x="-4"
   inkscape:window-y="-4"
   inkscape:window-maximized="1"
   inkscape:current-layer="Layer_1" />
<g
   id="g10250"><g
     style="opacity:0.65;fill:#000000;fill-opacity:0.64705882;filter:url(#filter10208)"
     transform="translate(1.042847,0.70462636)"
     id="g9678">
	<g
   style="fill:#000000;fill-opacity:0.64705882"
   id="g9680">
		<path
   style="fill:#000000;fill-opacity:0.64705882"
   inkscape:connector-curvature="0"
   d="M 19.157,0.432 H 4.524 c -1.306,0 -2.364,1.06 -2.364,2.365 v 14.637 c 0,1.306 1.06,2.363 2.364,2.363 h 3.821 l 3.499,3.498 3.494,-3.498 h 3.817 c 1.307,0 2.365,-1.06 2.365,-2.363 V 2.797 C 21.522,1.491 20.463,0.432 19.157,0.432 z"
   id="path9682" />
	</g>
	<g
   style="fill:#000000;fill-opacity:0.64705882"
   id="g9684">
		<path
   style="fill:#000000;fill-opacity:0.64705882"
   inkscape:connector-curvature="0"
   d="m 19.665,16.366 c -0.348,0 -0.682,-0.079 -0.982,-0.219 -0.305,-0.14 -0.649,-0.225 -1.012,-0.225 -0.363,0 -0.71,0.086 -1.016,0.225 -0.299,0.14 -0.633,0.219 -0.982,0.219 -0.352,0 -0.686,-0.079 -0.982,-0.219 -0.311,-0.14 -0.657,-0.225 -1.016,-0.225 -0.361,0 -0.708,0.086 -1.016,0.225 -0.297,0.14 -0.635,0.219 -0.98,0.219 -0.352,0 -0.686,-0.079 -0.986,-0.219 -0.307,-0.14 -0.652,-0.225 -1.011,-0.225 -0.362,0 -0.708,0.086 -1.015,0.225 -0.297,0.14 -0.636,0.219 -0.988,0.219 -0.344,0 -0.682,-0.079 -0.98,-0.219 -0.307,-0.14 -0.653,-0.225 -1.016,-0.225 -0.357,0 -0.701,0.086 -1.007,0.225 -0.304,0.14 -0.637,0.219 -0.987,0.219 v -1.491 c 0.351,0 0.684,-0.081 0.987,-0.214 0.306,-0.146 0.649,-0.229 1.007,-0.229 0.362,0 0.709,0.085 1.016,0.229 0.299,0.133 0.637,0.214 0.98,0.214 0.352,0 0.691,-0.081 0.988,-0.214 0.307,-0.146 0.652,-0.229 1.015,-0.229 0.358,0 0.704,0.085 1.011,0.229 0.301,0.133 0.635,0.214 0.986,0.214 0.346,0 0.684,-0.081 0.98,-0.214 0.308,-0.146 0.654,-0.229 1.016,-0.229 0.357,0 0.703,0.085 1.016,0.229 0.299,0.133 0.633,0.214 0.982,0.214 0.349,0 0.684,-0.081 0.982,-0.214 0.306,-0.146 0.652,-0.229 1.016,-0.229 0.361,0 0.707,0.085 1.012,0.229 0.301,0.133 0.635,0.214 0.982,0.214 v 1.491 z"
   id="path9686" />
		<path
   style="fill:#000000;fill-opacity:0.64705882"
   inkscape:connector-curvature="0"
   d="m 17.353,12.147 c 1.049,0 1.9,-0.864 1.9,-1.926 0,-1.062 -0.852,-1.924 -1.9,-1.924 -1.053,0 -1.901,0.861 -1.901,1.924 -0.002,1.061 0.774,1.926 1.901,1.926 z"
   id="path9688" />
		<path
   style="fill:#000000;fill-opacity:0.64705882"
   inkscape:connector-curvature="0"
   d="m 6.279,13.229 c 0.148,0.036 0.286,0.088 0.419,0.148 0.299,0.137 0.637,0.217 0.982,0.217 0.351,0 0.689,-0.08 0.986,-0.217 0.307,-0.142 0.652,-0.229 1.015,-0.229 0.359,0 0.704,0.089 1.011,0.229 0.301,0.137 0.635,0.217 0.986,0.217 0.346,0 0.684,-0.08 0.982,-0.217 0.306,-0.142 0.651,-0.229 1.016,-0.229 0.354,0 0.703,0.089 1.015,0.229 0.297,0.137 0.631,0.217 0.981,0.217 0.255,0 0.5,-0.043 0.731,-0.115 L 13.231,7.692 16.92,7.01 c 0.542,-0.104 0.937,-0.533 0.937,-1.085 0,-0.607 -0.49,-1.093 -1.086,-1.093 -0.045,0 -0.084,0 -0.125,0.003 L 10.95,5.884 c -0.399,0.093 -0.929,0.685 -0.628,1.411 0.017,0.041 0.031,0.078 0.049,0.117 l 1.486,2.715 -5.578,3.102 z"
   id="path9690" />
	</g>
</g><g
     transform="translate(0.02818505,-0.33822064)"
     id="g9660">
		<path
   d="M 19.157,0.432 H 4.524 c -1.306,0 -2.364,1.06 -2.364,2.365 v 14.637 c 0,1.306 1.06,2.363 2.364,2.363 h 3.821 l 3.499,3.498 3.494,-3.498 h 3.817 c 1.307,0 2.365,-1.06 2.365,-2.363 V 2.797 C 21.522,1.491 20.463,0.432 19.157,0.432 z"
   id="path9662"
   inkscape:connector-curvature="0"
   style="fill:#3871b8" />
	</g><g
     id="g10240"><g
       transform="translate(0.45096085,0.19729537)"
       id="g10218"
       style="fill:#808080;fill-opacity:0.64705884000000002;filter:url(#filter10226)">
		<path
   d="m 19.665,16.366 c -0.348,0 -0.682,-0.079 -0.982,-0.219 -0.305,-0.14 -0.649,-0.225 -1.012,-0.225 -0.363,0 -0.71,0.086 -1.016,0.225 -0.299,0.14 -0.633,0.219 -0.982,0.219 -0.352,0 -0.686,-0.079 -0.982,-0.219 -0.311,-0.14 -0.657,-0.225 -1.016,-0.225 -0.361,0 -0.708,0.086 -1.016,0.225 -0.297,0.14 -0.635,0.219 -0.98,0.219 -0.352,0 -0.686,-0.079 -0.986,-0.219 -0.307,-0.14 -0.652,-0.225 -1.011,-0.225 -0.362,0 -0.708,0.086 -1.015,0.225 -0.297,0.14 -0.636,0.219 -0.988,0.219 -0.344,0 -0.682,-0.079 -0.98,-0.219 -0.307,-0.14 -0.653,-0.225 -1.016,-0.225 -0.357,0 -0.701,0.086 -1.007,0.225 -0.304,0.14 -0.637,0.219 -0.987,0.219 v -1.491 c 0.351,0 0.684,-0.081 0.987,-0.214 0.306,-0.146 0.649,-0.229 1.007,-0.229 0.362,0 0.709,0.085 1.016,0.229 0.299,0.133 0.637,0.214 0.98,0.214 0.352,0 0.691,-0.081 0.988,-0.214 0.307,-0.146 0.652,-0.229 1.015,-0.229 0.358,0 0.704,0.085 1.011,0.229 0.301,0.133 0.635,0.214 0.986,0.214 0.346,0 0.684,-0.081 0.98,-0.214 0.308,-0.146 0.654,-0.229 1.016,-0.229 0.357,0 0.703,0.085 1.016,0.229 0.299,0.133 0.633,0.214 0.982,0.214 0.349,0 0.684,-0.081 0.982,-0.214 0.306,-0.146 0.652,-0.229 1.016,-0.229 0.361,0 0.707,0.085 1.012,0.229 0.301,0.133 0.635,0.214 0.982,0.214 v 1.491 z"
   id="path10220"
   inkscape:connector-curvature="0"
   style="fill:#808080;fill-opacity:0.64705884" />
		<path
   d="m 17.353,12.147 c 1.049,0 1.9,-0.864 1.9,-1.926 0,-1.062 -0.852,-1.924 -1.9,-1.924 -1.053,0 -1.901,0.861 -1.901,1.924 -0.002,1.061 0.774,1.926 1.901,1.926 z"
   id="path10222"
   inkscape:connector-curvature="0"
   style="fill:#808080;fill-opacity:0.64705884" />
		<path
   d="m 6.279,13.229 c 0.148,0.036 0.286,0.088 0.419,0.148 0.299,0.137 0.637,0.217 0.982,0.217 0.351,0 0.689,-0.08 0.986,-0.217 0.307,-0.142 0.652,-0.229 1.015,-0.229 0.359,0 0.704,0.089 1.011,0.229 0.301,0.137 0.635,0.217 0.986,0.217 0.346,0 0.684,-0.08 0.982,-0.217 0.306,-0.142 0.651,-0.229 1.016,-0.229 0.354,0 0.703,0.089 1.015,0.229 0.297,0.137 0.631,0.217 0.981,0.217 0.255,0 0.5,-0.043 0.731,-0.115 L 13.231,7.692 16.92,7.01 c 0.542,-0.104 0.937,-0.533 0.937,-1.085 0,-0.607 -0.49,-1.093 -1.086,-1.093 -0.045,0 -0.084,0 -0.125,0.003 L 10.95,5.884 c -0.399,0.093 -0.929,0.685 -0.628,1.411 0.017,0.041 0.031,0.078 0.049,0.117 l 1.486,2.715 -5.578,3.102 z"
   id="path10224"
   inkscape:connector-curvature="0"
   style="fill:#808080;fill-opacity:0.64705884" />
	</g><g
       id="g9664"
       transform="translate(0.02818505,-0.33822064)">
		<path
   style="fill:#ffffff"
   inkscape:connector-curvature="0"
   id="path9666"
   d="m 19.665,16.366 c -0.348,0 -0.682,-0.079 -0.982,-0.219 -0.305,-0.14 -0.649,-0.225 -1.012,-0.225 -0.363,0 -0.71,0.086 -1.016,0.225 -0.299,0.14 -0.633,0.219 -0.982,0.219 -0.352,0 -0.686,-0.079 -0.982,-0.219 -0.311,-0.14 -0.657,-0.225 -1.016,-0.225 -0.361,0 -0.708,0.086 -1.016,0.225 -0.297,0.14 -0.635,0.219 -0.98,0.219 -0.352,0 -0.686,-0.079 -0.986,-0.219 -0.307,-0.14 -0.652,-0.225 -1.011,-0.225 -0.362,0 -0.708,0.086 -1.015,0.225 -0.297,0.14 -0.636,0.219 -0.988,0.219 -0.344,0 -0.682,-0.079 -0.98,-0.219 -0.307,-0.14 -0.653,-0.225 -1.016,-0.225 -0.357,0 -0.701,0.086 -1.007,0.225 -0.304,0.14 -0.637,0.219 -0.987,0.219 v -1.491 c 0.351,0 0.684,-0.081 0.987,-0.214 0.306,-0.146 0.649,-0.229 1.007,-0.229 0.362,0 0.709,0.085 1.016,0.229 0.299,0.133 0.637,0.214 0.98,0.214 0.352,0 0.691,-0.081 0.988,-0.214 0.307,-0.146 0.652,-0.229 1.015,-0.229 0.358,0 0.704,0.085 1.011,0.229 0.301,0.133 0.635,0.214 0.986,0.214 0.346,0 0.684,-0.081 0.98,-0.214 0.308,-0.146 0.654,-0.229 1.016,-0.229 0.357,0 0.703,0.085 1.016,0.229 0.299,0.133 0.633,0.214 0.982,0.214 0.349,0 0.684,-0.081 0.982,-0.214 0.306,-0.146 0.652,-0.229 1.016,-0.229 0.361,0 0.707,0.085 1.012,0.229 0.301,0.133 0.635,0.214 0.982,0.214 v 1.491 z" />
		<path
   style="fill:#ffffff"
   inkscape:connector-curvature="0"
   id="path9668"
   d="m 17.353,12.147 c 1.049,0 1.9,-0.864 1.9,-1.926 0,-1.062 -0.852,-1.924 -1.9,-1.924 -1.053,0 -1.901,0.861 -1.901,1.924 -0.002,1.061 0.774,1.926 1.901,1.926 z" />
		<path
   style="fill:#ffffff"
   inkscape:connector-curvature="0"
   id="path9670"
   d="m 6.279,13.229 c 0.148,0.036 0.286,0.088 0.419,0.148 0.299,0.137 0.637,0.217 0.982,0.217 0.351,0 0.689,-0.08 0.986,-0.217 0.307,-0.142 0.652,-0.229 1.015,-0.229 0.359,0 0.704,0.089 1.011,0.229 0.301,0.137 0.635,0.217 0.986,0.217 0.346,0 0.684,-0.08 0.982,-0.217 0.306,-0.142 0.651,-0.229 1.016,-0.229 0.354,0 0.703,0.089 1.015,0.229 0.297,0.137 0.631,0.217 0.981,0.217 0.255,0 0.5,-0.043 0.731,-0.115 L 13.231,7.692 16.92,7.01 c 0.542,-0.104 0.937,-0.533 0.937,-1.085 0,-0.607 -0.49,-1.093 -1.086,-1.093 -0.045,0 -0.084,0 -0.125,0.003 L 10.95,5.884 c -0.399,0.093 -0.929,0.685 -0.628,1.411 0.017,0.041 0.031,0.078 0.049,0.117 l 1.486,2.715 -5.578,3.102 z" />
	</g></g></g>
</svg>