<?xml version="1.0" encoding="UTF-8" standalone="no"?>
<!-- Generator: Adobe Illustrator 16.0.0, SVG Export Plug-In . SVG Version: 6.00 Build 0)  -->

<svg
   xmlns:osb="http://www.openswatchbook.org/uri/2009/osb"
   xmlns:dc="http://purl.org/dc/elements/1.1/"
   xmlns:cc="http://creativecommons.org/ns#"
   xmlns:rdf="http://www.w3.org/1999/02/22-rdf-syntax-ns#"
   xmlns:svg="http://www.w3.org/2000/svg"
   xmlns="http://www.w3.org/2000/svg"
   xmlns:sodipodi="http://sodipodi.sourceforge.net/DTD/sodipodi-0.dtd"
   xmlns:inkscape="http://www.inkscape.org/namespaces/inkscape"
   version="1.1"
   id="Layer_1"
   x="0px"
   y="0px"
   width="104.4px"
   height="104.4px"
   viewBox="0 0 104.4 104.4"
   enable-background="new 0 0 104.4 104.4"
   xml:space="preserve"
   inkscape:version="0.48.2 r9819"
   sodipodi:docname="wildlife_100px.svg"><metadata
   id="metadata3017"><rdf:RDF><cc:Work
       rdf:about=""><dc:format>image/svg+xml</dc:format><dc:type
         rdf:resource="http://purl.org/dc/dcmitype/StillImage" /><dc:title></dc:title></cc:Work></rdf:RDF></metadata><defs
   id="defs3015"><linearGradient
   id="linearGradient5329"
   osb:paint="solid"><stop
     style="stop-color:#000000;stop-opacity:1;"
     offset="0"
     id="stop5331" /></linearGradient>
	
	

		
	<filter
   inkscape:collect="always"
   id="filter5435"><feGaussianBlur
     inkscape:collect="always"
     stdDeviation="0.925045"
     id="feGaussianBlur5437" /></filter><filter
   color-interpolation-filters="sRGB"
   inkscape:collect="always"
   id="filter5435-3"><feGaussianBlur
     inkscape:collect="always"
     stdDeviation="0.925045"
     id="feGaussianBlur5437-1" /></filter><filter
   inkscape:collect="always"
   id="filter5586"><feGaussianBlur
     inkscape:collect="always"
     stdDeviation="0.66583864"
     id="feGaussianBlur5588" /></filter></defs><sodipodi:namedview
   pagecolor="#ffffff"
   bordercolor="#666666"
   borderopacity="1"
   objecttolerance="10"
   gridtolerance="10"
   guidetolerance="10"
   inkscape:pageopacity="0"
   inkscape:pageshadow="2"
   inkscape:window-width="1920"
   inkscape:window-height="1033"
   id="namedview3013"
   showgrid="false"
   inkscape:zoom="8.0189683"
   inkscape:cx="54.5252"
   inkscape:cy="51.029564"
   inkscape:window-x="-4"
   inkscape:window-y="-4"
   inkscape:window-maximized="1"
   inkscape:current-layer="Layer_1" />
<path
   d="m 86.909687,32.404506 c -0.18,-2.994 -1.086,-3.643 -4.416,-5.896 0.367,-0.744 0.582,-1.582 0.582,-2.461 0,-3.277 -2.885,-5.928 -6.436,-5.928 -2.391,0 -4.479,1.203 -5.588,2.992 -0.68,-0.443 -1.148,-0.873 -1.293,-1.299 -0.561,-1.896 -2.486,-3.109 -4.582,-3.1 -0.836,-2.236 -3.051,-3.836 -5.66,-3.836 -2.129,0 -4.008,1.08 -5.072,2.701 -0.65,0.154 -1.33,0.35 -1.976,0.592 -2.853,-0.447 -4.626,-0.408 -5.708,-0.465 -2.186,1.555 -8.939,7.939 -8.939,7.939 0,0 -2.826,3.465 -2.645,4.379 -1.639,0.732 -16.695,11.682 -18.156,13.506 0,0 -5.203,3.74 1.279,10.401 6.475,6.658 12.678,7.572 15.053,4.742 2.373,-2.826 11.859,-16.604 11.953,-18.61 1.457,-1.369 2.371,-2.646 2.371,-2.646 l 5.385,0.549 1.641,-1.557 c 0,0 1.277,1.645 3.561,1.098 1.73,1.553 4.285,3.926 4.285,3.926 l 5.48,2.92 c 0,0 -13.51,14.503 -14.787,17.515 -1.275,3.012 0.82,8.943 8.666,12.412 7.852,3.465 11.594,1.912 13.398,-2.555 0,0 5.125,-13.32 6.225,-19.98 3.008,-7.027 5.561,-14.328 5.379,-17.339 z m -54.881,20.233 c -5.492,0 -10.08,-4.11 -11.254,-9.612 1.928,0.383 4.232,1.486 6.412,3.199 2.572,2.02 4.367,4.413 4.998,6.413 -0.052,0 -0.103,0 -0.156,0 z m 37.106,15.166 c -5.238,0 -9.662,-3.746 -11.072,-8.875 2.295,-0.262 5.316,0.438 8.227,2.082 3.051,1.73 5.258,4.088 6.137,6.273 -1.042,0.335 -2.148,0.52 -3.292,0.52 z"
   id="path5439"
   inkscape:connector-curvature="0"
   style="fill:#ffffff;opacity:1;fill-opacity:0" /><path
   style="fill:#000000;opacity:1;fill-opacity:0"
   inkscape:connector-curvature="0"
   id="path5520"
   d="m 85.169855,33.417635 c -0.18,-2.994 -1.086,-3.643 -4.416,-5.896 0.367,-0.744 0.582,-1.582 0.582,-2.461 0,-3.277 -2.885,-5.928 -6.436,-5.928 -2.391,0 -4.479001,1.203 -5.588001,2.992 -0.68,-0.443 -1.148,-0.873 -1.293,-1.299 -0.561,-1.896 -2.486,-3.109 -4.582,-3.1 -0.836,-2.236 -3.051,-3.836 -5.66,-3.836 -2.129,0 -4.008,1.08 -5.072,2.701 -0.65,0.154 -1.33,0.35 -1.976,0.592 -2.853,-0.447 -4.626,-0.408 -5.708,-0.465 -2.186,1.555 -8.939,7.939 -8.939,7.939 0,0 -2.826,3.465 -2.645,4.379 -1.639,0.732 -16.695,11.682 -18.156,13.506 0,0 -5.203001,3.74 1.279,10.401 6.475,6.658 12.678,7.572 15.053,4.742 2.373,-2.826 11.859,-16.604 11.953,-18.61 1.457,-1.369 2.371,-2.646 2.371,-2.646 l 5.385,0.549 1.641,-1.557 c 0,0 1.277,1.645 3.561,1.098 1.73,1.553 4.285,3.926 4.285,3.926 l 5.48,2.92 c 0,0 -13.51,14.503 -14.787,17.515 -1.275,3.012 0.82,8.943 8.666,12.412 7.852,3.465003 11.594001,1.912 13.398001,-2.555 0,0 5.125,-13.32 6.225,-19.98 3.008,-7.027 5.561,-14.328 5.379,-17.339 z m -54.881001,20.233 c -5.492,0 -10.08,-4.11 -11.254,-9.612 1.928,0.383 4.232,1.486 6.412,3.199 2.572,2.02 4.367,4.413 4.998,6.413 -0.052,0 -0.103,0 -0.156,0 z m 37.106,15.166 c -5.238,0 -9.662,-3.746 -11.072,-8.875 2.295,-0.262 5.316,0.438 8.227,2.082 3.051,1.73 5.258,4.088 6.137,6.273 -1.042,0.335 -2.148,0.52 -3.292,0.52 z" /><g
   id="g5634"><g
     id="g5594"><g
       style="opacity:0.65;fill:#000000;fill-opacity:0.64705882;stroke:none;filter:url(#filter5435)"
       id="g5411"
       transform="translate(5.3984477,1.8585812)"><path
         d="M 84.148,2.046 H 20.035 c -5.723,0 -10.359,4.637 -10.359,10.363 v 64.128 c 0,5.723 4.641,10.363 10.359,10.363 H 36.777 L 52.104,102.224 67.414,86.9 h 16.734 c 5.719,0 10.359,-4.643 10.359,-10.363 V 12.409 C 94.508,6.683 89.867,2.046 84.148,2.046 z"
         id="path5413"
         inkscape:connector-curvature="0"
         style="fill:#000000;fill-opacity:0.64705882;stroke:none" /></g><g
       id="g3005"
       transform="translate(3.7552452,2.6273997)">
		<path
   style="fill:#f47423"
   inkscape:connector-curvature="0"
   id="path3007"
   d="m 82.651548,-2.0692425 h -64.113 c -5.723,0 -10.3589998,4.637 -10.3589998,10.363 V 72.421757 c 0,5.723 4.6409998,10.363 10.3589998,10.363 h 16.742 l 15.327,15.324 15.31,-15.324 h 16.734 c 5.719,0 10.359,-4.643 10.359,-10.363 V 8.2937575 c 0.001,-5.726 -4.64,-10.363 -10.359,-10.363 z" />
	</g></g><g
     id="g5630"><path
       style="fill:#808080;fill-opacity:0.64705882;filter:url(#filter5586)"
       inkscape:connector-curvature="0"
       id="path5564"
       d="m 91.400271,33.043523 c -0.18,-2.994 -1.086,-3.643 -4.416,-5.896 0.367,-0.744 0.582,-1.582 0.582,-2.461 0,-3.277 -2.885,-5.928 -6.436,-5.928 -2.391,0 -4.479001,1.203 -5.588001,2.992 -0.68,-0.443 -1.148,-0.873 -1.293,-1.299 -0.561,-1.896 -2.486,-3.109 -4.582,-3.1 -0.836,-2.236 -3.051,-3.836 -5.66,-3.836 -2.129,0 -4.008,1.08 -5.072,2.701 -0.65,0.154 -1.33,0.35 -1.976,0.592 -2.853,-0.447 -4.626,-0.408 -5.708,-0.465 -2.186,1.555 -8.939,7.939 -8.939,7.939 0,0 -2.826,3.465 -2.645,4.379 -1.639,0.732 -16.695,11.682 -18.156,13.506 0,0 -5.203001,3.74 1.279,10.401 6.475,6.658 12.678,7.572 15.053,4.742 2.373,-2.826 11.859,-16.604 11.953,-18.61 1.457,-1.369 2.371,-2.646 2.371,-2.646 l 5.385,0.549 1.641,-1.557 c 0,0 1.277,1.645 3.561,1.098 1.73,1.553 4.285,3.926 4.285,3.926 l 5.48,2.92 c 0,0 -13.51,14.503 -14.787,17.515 -1.275,3.012 0.82,8.943 8.666,12.412 7.852,3.465003 11.594001,1.912 13.398001,-2.555 0,0 5.125,-13.32 6.225,-19.98 3.008,-7.027 5.561,-14.328 5.379,-17.339 z m -54.881001,20.233 c -5.492,0 -10.08,-4.11 -11.254,-9.612 1.928,0.383 4.232,1.486 6.412,3.199 2.572,2.02 4.367,4.413 4.998,6.413 -0.052,0 -0.103,0 -0.156,0 z m 37.106,15.166 c -5.238,0 -9.662,-3.746 -11.072,-8.875 2.295,-0.262 5.316,0.438 8.227,2.082 3.051,1.73 5.258,4.088 6.137,6.273 -1.042,0.335 -2.148,0.52 -3.292,0.52 z" /><path
       d="m 90.277932,30.798845 c -0.18,-2.994 -1.086,-3.643 -4.416,-5.896 0.367,-0.744 0.582,-1.582 0.582,-2.461 0,-3.277 -2.885,-5.928 -6.436,-5.928 -2.391,0 -4.479001,1.203 -5.588001,2.992 -0.68,-0.443 -1.148,-0.873 -1.293,-1.299 -0.561,-1.896 -2.486,-3.109 -4.582,-3.1 -0.836,-2.236 -3.051,-3.836 -5.66,-3.836 -2.129,0 -4.008,1.08 -5.072,2.701 -0.65,0.154 -1.33,0.35 -1.976,0.592 -2.853,-0.447 -4.626,-0.408 -5.708,-0.465 -2.186,1.555 -8.939,7.939 -8.939,7.939 0,0 -2.826,3.465 -2.645,4.379 -1.639,0.732 -16.695,11.682 -18.156,13.506 0,0 -5.203001,3.74 1.279,10.401 6.475,6.658 12.678,7.572 15.053,4.742 2.373,-2.826 11.859,-16.604 11.953,-18.61 1.457,-1.369 2.371,-2.646 2.371,-2.646 l 5.385,0.549 1.641,-1.557 c 0,0 1.277,1.645 3.561,1.098 1.73,1.553 4.285,3.926 4.285,3.926 l 5.48,2.92 c 0,0 -13.51,14.503 -14.787,17.515 -1.275,3.012 0.82,8.943 8.666,12.412 7.852,3.465003 11.594001,1.912 13.398001,-2.555 0,0 5.125,-13.32 6.225,-19.98 3.008,-7.027 5.561,-14.328 5.379,-17.339 z m -54.881001,20.233 c -5.492,0 -10.08,-4.11 -11.254,-9.612 1.928,0.383 4.232,1.486 6.412,3.199 2.572,2.02 4.367,4.413 4.998,6.413 -0.052,0 -0.103,0 -0.156,0 z m 37.106,15.166 c -5.238,0 -9.662,-3.746 -11.072,-8.875 2.295,-0.262 5.316,0.438 8.227,2.082 3.051,1.73 5.258,4.088 6.137,6.273 -1.042,0.335 -2.148,0.52 -3.292,0.52 z"
       id="path3011"
       inkscape:connector-curvature="0"
       style="fill:#ffffff;fill-opacity:1" /></g></g>
<g
   id="g3057"
   transform="translate(1.9814947,1.8576512)">
		
	</g></svg>