<?xml version="1.0" encoding="UTF-8" standalone="no"?>
<!-- Created with Inkscape (http://www.inkscape.org/) -->

<svg
   xmlns:dc="http://purl.org/dc/elements/1.1/"
   xmlns:cc="http://creativecommons.org/ns#"
   xmlns:rdf="http://www.w3.org/1999/02/22-rdf-syntax-ns#"
   xmlns:svg="http://www.w3.org/2000/svg"
   xmlns="http://www.w3.org/2000/svg"
   xmlns:sodipodi="http://sodipodi.sourceforge.net/DTD/sodipodi-0.dtd"
   xmlns:inkscape="http://www.inkscape.org/namespaces/inkscape"
   width="23.851824"
   height="23.854235"
   id="svg19793"
   version="1.1"
   inkscape:version="0.91 r13725"
   sodipodi:docname="archery.svg">
  <defs
     id="defs19795" />
  <sodipodi:namedview
     id="base"
     pagecolor="#ffffff"
     bordercolor="#666666"
     borderopacity="1.0"
     inkscape:pageopacity="0.0"
     inkscape:pageshadow="2"
     inkscape:zoom="7.9195959"
     inkscape:cx="6.9362779"
     inkscape:cy="12.970911"
     inkscape:document-units="px"
     inkscape:current-layer="layer1"
     showgrid="false"
     fit-margin-top="0"
     fit-margin-left="0"
     fit-margin-right="0"
     fit-margin-bottom="0"
     inkscape:window-width="1169"
     inkscape:window-height="480"
     inkscape:window-x="297"
     inkscape:window-y="200"
     inkscape:window-maximized="0" />
  <metadata
     id="metadata19798">
    <rdf:RDF>
      <cc:Work
         rdf:about="">
        <dc:format>image/svg+xml</dc:format>
        <dc:type
           rdf:resource="http://purl.org/dc/dcmitype/StillImage" />
        <dc:title></dc:title>
      </cc:Work>
    </rdf:RDF>
  </metadata>
  <g
     inkscape:label="Layer 1"
     inkscape:groupmode="layer"
     id="layer1"
     transform="translate(-368.95472,-514.55312)">
    <g
       transform="matrix(2.4117112,0,0,-2.4117112,-959.41291,2234.8231)"
       id="g17477">
      <g
         transform="translate(551.9805,713.0979)"
         id="g2360">
        <path
           inkscape:connector-curvature="0"
           id="path2362"
           style="fill:#ffffff;fill-opacity:1;fill-rule:nonzero;stroke:none"
           d="m 0,0 c -0.541,0 -0.982,-0.44 -0.982,-0.981 l 0,-7.527 C -0.982,-9.05 -0.541,-9.49 0,-9.49 l 7.526,0 c 0.541,0 0.982,0.44 0.982,0.982 l 0,7.527 C 8.508,-0.44 8.067,0 7.526,0 L 0,0 Z" />
      </g>
      <g
         transform="translate(555.2119,710.6751)"
         id="g2364">
        <path
           inkscape:connector-curvature="0"
           id="path2366"
           style="fill:#ffffff;fill-opacity:1;fill-rule:nonzero;stroke:none"
           d="m 0,0 -1.653,0 c -0.399,0 -0.399,-0.519 0,-0.519 l 1.653,0 C 0.397,-0.52 0.397,0 0,0" />
      </g>
      <g
         transform="translate(555.2119,710.6751)"
         id="g2368">
        <path
           inkscape:connector-curvature="0"
           id="path2370"
           style="fill:#ffffff;fill-opacity:1;fill-rule:nonzero;stroke:none"
           d="m 0,0 -1.653,0 c -0.399,0 -0.399,-0.519 0,-0.519 l 1.653,0 C 0.397,-0.52 0.397,0 0,0" />
      </g>
      <g
         transform="translate(559.5068,703.4075)"
         id="g2372">
        <path
           inkscape:connector-curvature="0"
           id="path2374"
           style="fill:#373535;fill-opacity:1;fill-rule:nonzero;stroke:none"
           d="m 0,0 c 0.652,0 1.182,0.529 1.182,1.183 l 0,7.526 C 1.182,9.361 0.652,9.891 0,9.891 l -7.526,0 c -0.653,0 -1.182,-0.53 -1.182,-1.182 l 0,-7.526 C -8.708,0.529 -8.179,0 -7.526,0 L 0,0 Z" />
      </g>
      <g
         transform="translate(555.0204,710.8084)"
         id="g2376">
        <path
           inkscape:connector-curvature="0"
           id="path2378"
           style="fill:#ffffff;fill-opacity:1;fill-rule:nonzero;stroke:none"
           d="M 0,0 C 0.386,0 0.695,0.312 0.695,0.695 0.695,1.079 0.386,1.391 0,1.391 -0.384,1.391 -0.695,1.079 -0.695,0.695 -0.695,0.312 -0.384,0 0,0" />
      </g>
      <g
         transform="translate(555.1826,710.6316)"
         id="g2380">
        <path
           inkscape:connector-curvature="0"
           id="path2382"
           style="fill:#ffffff;fill-opacity:1;fill-rule:nonzero;stroke:none"
           d="m 0,0 -1.736,0 c -0.418,0 -0.418,-0.544 0,-0.544 l 1.736,0 C 0.416,-0.545 0.416,0 0,0" />
      </g>
      <g
         transform="translate(558.1318,710.6316)"
         id="g2384">
        <path
           inkscape:connector-curvature="0"
           id="path2386"
           style="fill:#ffffff;fill-opacity:1;fill-rule:nonzero;stroke:none"
           d="M 0,0 -2.244,0 C -1.832,0.41 -1.06,1.182 -0.667,1.575 -0.287,1.13 -0.056,0.581 0,0 m 0,-0.544 c -0.058,-0.577 -0.287,-1.123 -0.665,-1.568 -0.349,0.346 -0.99,0.991 -1.419,1.42 l 0,0.148 2.084,0 z m -2.865,-2.771 0,0.024 c 0,-0.004 0.002,-0.006 0.002,-0.011 l -0.002,-0.013 z m 3.219,3.046 c 0,0.77 -0.276,1.506 -0.779,2.086 0.002,0.002 -0.127,0.14 -0.127,0.14 L -2.511,0 -2.543,-0.032 c 0.006,-0.009 0.014,-0.015 0.019,-0.025 0.03,-0.053 0.047,-0.113 0.052,-0.172 0.002,-0.025 0,-0.05 -0.002,-0.076 -0.003,-0.051 -0.014,-0.102 -0.037,-0.15 L -2.513,-0.46 C -2.517,-0.469 -2.518,-0.479 -2.524,-0.489 -2.529,-0.496 -2.533,-0.5 -2.537,-0.506 -2.623,-0.638 -2.771,-0.715 -2.949,-0.715 l -0.956,0 0,-2.55 c 0,-0.002 0.002,-0.003 0.002,-0.006 l -0.538,-2.706 c -0.041,-0.211 0.096,-0.416 0.307,-0.458 0.21,-0.042 0.413,0.094 0.456,0.306 l 0.559,2.807 0,0.003 0.254,0 0,-0.003 0.557,-2.807 c 0.043,-0.212 0.246,-0.348 0.46,-0.306 0.209,0.042 0.347,0.247 0.306,0.458 l -0.544,2.731 0,2.287 1.534,-1.534 c 0,0 0.129,0.139 0.129,0.139 0.501,0.581 0.777,1.317 0.777,2.085" />
      </g>
    </g>
  </g>
</svg>
