<?xml version="1.0" encoding="UTF-8" standalone="no"?>
<!-- Created with Inkscape (http://www.inkscape.org/) -->

<svg
   xmlns:dc="http://purl.org/dc/elements/1.1/"
   xmlns:cc="http://creativecommons.org/ns#"
   xmlns:rdf="http://www.w3.org/1999/02/22-rdf-syntax-ns#"
   xmlns:svg="http://www.w3.org/2000/svg"
   xmlns="http://www.w3.org/2000/svg"
   xmlns:sodipodi="http://sodipodi.sourceforge.net/DTD/sodipodi-0.dtd"
   xmlns:inkscape="http://www.inkscape.org/namespaces/inkscape"
   width="12.35375"
   height="12.35375"
   id="svg19793"
   version="1.1"
   inkscape:version="0.48.4 r"
   sodipodi:docname="first_aid.svg">
  <defs
     id="defs19795" />
  <sodipodi:namedview
     id="base"
     pagecolor="#ffffff"
     bordercolor="#666666"
     borderopacity="1.0"
     inkscape:pageopacity="0.0"
     inkscape:pageshadow="2"
     inkscape:zoom="15.839192"
     inkscape:cx="6.1768725"
     inkscape:cy="6.1768954"
     inkscape:document-units="px"
     inkscape:current-layer="layer1"
     showgrid="false"
     fit-margin-top="0"
     fit-margin-left="0"
     fit-margin-right="0"
     fit-margin-bottom="0"
     inkscape:window-width="484"
     inkscape:window-height="480"
     inkscape:window-x="784"
     inkscape:window-y="243"
     inkscape:window-maximized="0" />
  <metadata
     id="metadata19798">
    <rdf:RDF>
      <cc:Work
         rdf:about="">
        <dc:format>image/svg+xml</dc:format>
        <dc:type
           rdf:resource="http://purl.org/dc/dcmitype/StillImage" />
        <dc:title></dc:title>
      </cc:Work>
    </rdf:RDF>
  </metadata>
  <g
     inkscape:label="Layer 1"
     inkscape:groupmode="layer"
     id="layer1"
     transform="translate(-370.15676,-527.257)">
    <g
       transform="matrix(1.25,0,0,-1.25,325.35063,1756.5932)"
       id="g20564">
      <path
         d="m 37.0254,983.2691 c -0.542,0 -0.981,-0.44 -0.981,-0.981 l 0,-7.521 c 0,-0.541 0.439,-0.981 0.981,-0.981 l 7.521,0 c 0.542,0 0.982,0.44 0.982,0.981 l 0,7.521 c 0,0.541 -0.44,0.981 -0.982,0.981 l -7.521,0 z"
         style="fill:#ffffff;fill-opacity:1;fill-rule:nonzero;stroke:none"
         id="path6634"
         inkscape:connector-curvature="0" />
      <path
         d="m 44.5469,973.586 c 0.652,0 1.182,0.528 1.182,1.181 l 0,7.521 c 0,0.652 -0.53,1.181 -1.182,1.181 l -7.521,0 c -0.653,0 -1.182,-0.529 -1.182,-1.181 l 0,-7.521 c 0,-0.653 0.529,-1.181 1.182,-1.181 l 7.521,0 z"
         style="fill:#373535;fill-opacity:1;fill-rule:nonzero;stroke:none"
         id="path6638"
         inkscape:connector-curvature="0" />
      <path
         d="m 44.7227,974.9708 c -1.904,-0.028 -3.895,0.335 -5.418,1.559 -0.01,0.01 -0.014,0.021 -0.014,0.035 0,0.028 0.024,0.051 0.051,0.051 l 1.502,-0.002 c 0.072,0 0.133,0.06 0.133,0.133 0,0.055 -0.025,0.093 -0.084,0.122 l -1.357,0.648 c -0.026,0.016 -0.043,0.044 -0.043,0.076 0,0.025 0.009,0.047 0.025,0.063 0,0 1.654,1.462 5.205,1.43 l 0,-4.115 z m -3.184,2.316 c 0.178,0 0.321,0.144 0.321,0.322 0,0.177 -0.143,0.321 -0.321,0.321 -0.177,0 -0.322,-0.144 -0.322,-0.321 0,-0.178 0.145,-0.322 0.322,-0.322"
         style="fill:#ffffff;fill-opacity:1;fill-rule:nonzero;stroke:none"
         id="path6642"
         inkscape:connector-curvature="0" />
      <path
         d="m 43.9976,982.2598 c -1.177,-0.013 -2.328,-0.515 -3.619,-1.574 -0.048,0.014 -0.154,0.042 -0.154,0.042 -0.205,0 -0.372,-0.166 -0.372,-0.371 0,0 0.015,-0.069 0.023,-0.112 -0.039,-0.037 -1.043,-0.979 -1.043,-0.979 l -0.887,-0.836 c -0.084,-0.076 -0.191,-0.114 -0.304,-0.109 -0.112,0.005 -0.215,0.054 -0.29,0.137 -0.073,0.08 -0.108,0.181 -0.108,0.283 0,0.114 0.046,0.228 0.136,0.31 0,0 0.067,0.037 0.117,0.066 0.011,-0.076 0.043,-0.308 0.043,-0.308 l 0.723,0.922 -0.798,-0.272 c -0.211,-0.072 -0.297,-0.178 -0.3,-0.183 -0.293,-0.264 -0.316,-0.728 -0.045,-1.028 0.271,-0.299 0.736,-0.321 1.035,-0.049 l 0.008,0.009 0.841,0.801 c 0,0 1.039,0.983 1.073,1.015 0.05,-0.013 0.148,-0.038 0.148,-0.038 0.204,0 0.37,0.166 0.37,0.371 0,0 -0.01,0.054 -0.017,0.093 1.249,1.028 2.341,1.515 3.435,1.528 0.224,0.002 0.404,-0.028 0.699,-0.09 l 0.061,-0.014 0,0.293 -0.04,0.008 c -0.304,0.065 -0.504,0.088 -0.735,0.085"
         style="fill:#ffffff;fill-opacity:1;fill-rule:nonzero;stroke:none"
         id="path6646"
         inkscape:connector-curvature="0" />
    </g>
  </g>
</svg>
