<?xml version="1.0" encoding="utf-8"?>
<!-- Generator: Adobe Illustrator 16.0.0, SVG Export Plug-In . SVG Version: 6.00 Build 0)  -->
<!DOCTYPE svg PUBLIC "-//W3C//DTD SVG 1.1//EN" "http://www.w3.org/Graphics/SVG/1.1/DTD/svg11.dtd">
<svg version="1.1"
	 id="svg19793" sodipodi:docname="fitness.svg" inkscape:version="0.91 r13725" xmlns:dc="http://purl.org/dc/elements/1.1/" xmlns:cc="http://creativecommons.org/ns#" xmlns:rdf="http://www.w3.org/1999/02/22-rdf-syntax-ns#" xmlns:svg="http://www.w3.org/2000/svg" xmlns:sodipodi="http://sodipodi.sourceforge.net/DTD/sodipodi-0.dtd" xmlns:inkscape="http://www.inkscape.org/namespaces/inkscape"
	 xmlns="http://www.w3.org/2000/svg" xmlns:xlink="http://www.w3.org/1999/xlink" x="0px" y="0px" width="24.708px"
	 height="24.708px" viewBox="0 0 24.708 24.708" enable-background="new 0 0 24.708 24.708" xml:space="preserve">
<sodipodi:namedview  inkscape:window-maximized="0" inkscape:window-y="173" inkscape:window-x="169" inkscape:window-height="480" inkscape:window-width="1147" fit-margin-bottom="0" inkscape:current-layer="layer1" inkscape:pageshadow="2" inkscape:document-units="px" inkscape:pageopacity="0.0" fit-margin-right="0" fit-margin-left="0" fit-margin-top="0" showgrid="false" inkscape:cy="8.0701987" inkscape:cx="-3.9190613" inkscape:zoom="7.919596" borderopacity="1.0" bordercolor="#666666" pagecolor="#ffffff" id="base">
	</sodipodi:namedview>
<g id="layer1" transform="translate(-373.63163,-518.45329)" inkscape:groupmode="layer" inkscape:label="Layer 1">
	<g id="g3441" transform="matrix(1.9998397,0,0,2.0000421,-373.57176,-543.18414)">
		<path id="path6578" inkscape:connector-curvature="0" fill="#6AB03E" d="M384.511,543.161c0.815,0,1.476-0.658,1.476-1.475v-9.401
			c0-0.816-0.661-1.478-1.476-1.478h-9.403c-0.815,0-1.476,0.661-1.476,1.478v9.401c0,0.816,0.661,1.475,1.476,1.475H384.511z"/>
		<g id="g1393" transform="matrix(0.61380975,0,0,0.61380975,265.27684,450.78824)">
			<path id="path1395" inkscape:connector-curvature="0" fill="#FFFFFF" d="M190.565,132.24v0.94h-1.559
				c0,0-0.044-0.236-0.182-0.372c-0.121-0.119-0.391-0.146-0.503,0.009c-0.045,0.063-0.024,0.157-0.056,0.306l0.003,0.058h-3.455
				l0.003-0.058c-0.031-0.148-0.011-0.243-0.056-0.306c-0.112-0.155-0.382-0.128-0.503-0.009c-0.138,0.136-0.182,0.372-0.182,0.372
				h-1.454v-0.94h-1.163v16.675h1.163v-15.412h1.428l-0.122,1.508c-0.147,2.152,1.274,3.043,1.274,3.043h0.035v3.748v4.255
				c0,0.336,0.271,0.607,0.605,0.607c0.334,0,0.606-0.271,0.606-0.607v-4.255h0.217v4.255c0,0.336,0.272,0.607,0.606,0.607
				c0.336,0,0.607-0.271,0.607-0.607v-4.255v-3.748c0,0,1.422-0.891,1.272-3.043l-0.121-1.508h1.532v15.412h1.163V132.24H190.565
				L190.565,132.24z M188.366,135.003c0,0,0.146,1.319-0.77,2.284h-2.107c-0.916-0.965-0.769-2.284-0.769-2.284l0.078-1.5h3.487
				L188.366,135.003z"/>
			<ellipse id="ellipse1397" fill="#FFFFFF" cx="186.53" cy="135.741" rx="1.092" ry="1.101"/>
		</g>
	</g>
</g>
</svg>
