<?xml version="1.0" encoding="UTF-8" standalone="no"?>
<!-- Created with Inkscape (http://www.inkscape.org/) -->

<svg
   xmlns:dc="http://purl.org/dc/elements/1.1/"
   xmlns:cc="http://creativecommons.org/ns#"
   xmlns:rdf="http://www.w3.org/1999/02/22-rdf-syntax-ns#"
   xmlns:svg="http://www.w3.org/2000/svg"
   xmlns="http://www.w3.org/2000/svg"
   xmlns:sodipodi="http://sodipodi.sourceforge.net/DTD/sodipodi-0.dtd"
   xmlns:inkscape="http://www.inkscape.org/namespaces/inkscape"
   width="24.077999"
   height="24.078001"
   id="svg19793"
   version="1.1"
   inkscape:version="0.91 r13725"
   sodipodi:docname="geocache.svg">
  <defs
     id="defs19795">
    <clipPath
       clipPathUnits="userSpaceOnUse"
       id="clipPath1734">
      <path
         d="M 0,792 1008,792 1008,0 0,0 0,792 Z"
         id="path1736"
         inkscape:connector-curvature="0" />
    </clipPath>
  </defs>
  <sodipodi:namedview
     id="base"
     pagecolor="#ffffff"
     bordercolor="#666666"
     borderopacity="1.0"
     inkscape:pageopacity="0.0"
     inkscape:pageshadow="2"
     inkscape:zoom="11.2"
     inkscape:cx="-0.86260761"
     inkscape:cy="11.554375"
     inkscape:document-units="px"
     inkscape:current-layer="layer1"
     showgrid="false"
     fit-margin-top="0"
     fit-margin-left="0"
     fit-margin-right="0"
     fit-margin-bottom="0"
     inkscape:window-width="1169"
     inkscape:window-height="480"
     inkscape:window-x="297"
     inkscape:window-y="200"
     inkscape:window-maximized="0" />
  <metadata
     id="metadata19798">
    <rdf:RDF>
      <cc:Work
         rdf:about="">
        <dc:format>image/svg+xml</dc:format>
        <dc:type
           rdf:resource="http://purl.org/dc/dcmitype/StillImage" />
        <dc:title></dc:title>
      </cc:Work>
    </rdf:RDF>
  </metadata>
  <g
     inkscape:label="Layer 1"
     inkscape:groupmode="layer"
     id="layer1"
     transform="translate(-368.94934,-514.6887)">
    <g
       transform="matrix(2.4358118,0,0,-2.4363048,-172.53357,1094.7261)"
       id="g22056">
      <path
         d="m 223.4823,237.8814 c -0.542,0 -0.981,-0.439 -0.981,-0.98 l 0,-7.522 c 0,-0.541 0.439,-0.982 0.981,-0.982 l 7.521,0 c 0.542,0 0.982,0.441 0.982,0.982 l 0,7.522 c 0,0.541 -0.44,0.98 -0.982,0.98 l -7.521,0 z"
         style="fill:#ffffff;fill-opacity:1;fill-rule:nonzero;stroke:none"
         id="path7690"
         inkscape:connector-curvature="0" />
      <path
         d="m 231.0038,228.1978 c 0.652,0 1.182,0.529 1.182,1.182 l 0,7.521 c 0,0.652 -0.53,1.18 -1.182,1.18 l -7.521,0 c -0.653,0 -1.182,-0.528 -1.182,-1.18 l 0,-7.521 c 0,-0.653 0.529,-1.182 1.182,-1.182 l 7.521,0 z"
         style="fill:#373535;fill-opacity:1;fill-rule:nonzero;stroke:none"
         id="path7694"
         inkscape:connector-curvature="0" />
      <path
         d="m 227.7184,236.5754 c 1.535,-0.211 2.75,-1.425 2.961,-2.961 l 0.369,-0.12 0.408,-0.133 c -0.112,2.154 -1.837,3.879 -3.991,3.991 l 0.133,-0.408 0.12,-0.369 z"
         style="fill:#ffffff;fill-opacity:1;fill-rule:nonzero;stroke:none"
         id="path7698"
         inkscape:connector-curvature="0" />
      <path
         d="m 226.7678,229.7034 c -1.535,0.21 -2.75,1.425 -2.96,2.96 l -0.37,0.121 -0.408,0.133 c 0.112,-2.154 1.837,-3.879 3.991,-3.991 l -0.133,0.408 -0.12,0.369 z"
         style="fill:#ffffff;fill-opacity:1;fill-rule:nonzero;stroke:none"
         id="path7702"
         inkscape:connector-curvature="0" />
      <path
         d="m 230.679,232.6639 c -0.21,-1.535 -1.425,-2.75 -2.961,-2.96 l -0.12,-0.37 -0.133,-0.408 c 2.154,0.112 3.879,1.837 3.991,3.991 l -0.408,-0.133 -0.369,-0.12 z"
         style="fill:#ffffff;fill-opacity:1;fill-rule:nonzero;stroke:none"
         id="path7706"
         inkscape:connector-curvature="0" />
      <path
         d="m 223.8075,233.6147 c 0.21,1.536 1.425,2.75 2.96,2.961 l 0.12,0.369 0.133,0.408 c -2.154,-0.112 -3.879,-1.837 -3.991,-3.991 l 0.408,0.133 0.37,0.12 z"
         style="fill:#ffffff;fill-opacity:1;fill-rule:nonzero;stroke:none"
         id="path7710"
         inkscape:connector-curvature="0" />
      <path
         d="m 228.3125,234.7499 0.012,-0.038 0.121,-0.37 0.37,-0.121 0.038,-0.012 0.038,-0.013 0.552,1.037 0.121,0.228 -0.228,-0.121 -1.036,-0.552 0.012,-0.038 z"
         style="fill:#ffffff;fill-opacity:1;fill-rule:nonzero;stroke:none"
         id="path7714"
         inkscape:connector-curvature="0" />
      <path
         d="m 225.043,235.2332 0.552,-1.037 0.038,0.012 0.038,0.013 0.37,0.12 0.12,0.371 0.013,0.038 0.012,0.038 -1.037,0.552 -0.227,0.121 0.121,-0.228 z"
         style="fill:#ffffff;fill-opacity:1;fill-rule:nonzero;stroke:none"
         id="path7718"
         inkscape:connector-curvature="0" />
      <path
         d="m 226.1738,231.5288 -0.012,0.038 -0.121,0.37 -0.37,0.121 -0.038,0.012 -0.038,0.013 -0.552,-1.037 -0.121,-0.228 0.228,0.121 1.036,0.552 -0.012,0.038 z"
         style="fill:#ffffff;fill-opacity:1;fill-rule:nonzero;stroke:none"
         id="path7722"
         inkscape:connector-curvature="0" />
      <path
         d="m 228.8537,232.07 -0.038,-0.012 -0.37,-0.121 -0.121,-0.37 -0.012,-0.038 -0.013,-0.038 1.037,-0.552 0.228,-0.121 -0.121,0.228 -0.552,1.036 -0.038,-0.012 z"
         style="fill:#ffffff;fill-opacity:1;fill-rule:nonzero;stroke:none"
         id="path7726"
         inkscape:connector-curvature="0" />
      <path
         d="m 230.7106,233.067 0.222,0.072 -0.222,0.073 -2.562,0.833 -0.905,2.784 -0.073,-0.222 -0.833,-2.562 -2.562,-0.833 -0.222,-0.073 0.222,-0.072 2.562,-0.833 0.833,-2.562 0.073,-0.222 0.072,0.222 0.833,2.562 2.562,0.833 z"
         style="fill:#ffffff;fill-opacity:1;fill-rule:nonzero;stroke:none"
         id="path7730"
         inkscape:connector-curvature="0" />
    </g>
  </g>
</svg>
