<?xml version="1.0" encoding="UTF-8" standalone="no"?>
<!-- Created with Inkscape (http://www.inkscape.org/) -->

<svg
   xmlns:dc="http://purl.org/dc/elements/1.1/"
   xmlns:cc="http://creativecommons.org/ns#"
   xmlns:rdf="http://www.w3.org/1999/02/22-rdf-syntax-ns#"
   xmlns:svg="http://www.w3.org/2000/svg"
   xmlns="http://www.w3.org/2000/svg"
   xmlns:sodipodi="http://sodipodi.sourceforge.net/DTD/sodipodi-0.dtd"
   xmlns:inkscape="http://www.inkscape.org/namespaces/inkscape"
   width="24.708"
   height="24.708"
   id="svg19793"
   version="1.1"
   inkscape:version="0.91 r13725"
   sodipodi:docname="golf.svg">
  <defs
     id="defs19795" />
  <sodipodi:namedview
     id="base"
     pagecolor="#ffffff"
     bordercolor="#666666"
     borderopacity="1.0"
     inkscape:pageopacity="0.0"
     inkscape:pageshadow="2"
     inkscape:zoom="15.839192"
     inkscape:cx="6.1806237"
     inkscape:cy="6.1819617"
     inkscape:document-units="px"
     inkscape:current-layer="layer1"
     showgrid="false"
     fit-margin-top="0"
     fit-margin-left="0"
     fit-margin-right="0"
     fit-margin-bottom="0"
     inkscape:window-width="1320"
     inkscape:window-height="848"
     inkscape:window-x="256"
     inkscape:window-y="110"
     inkscape:window-maximized="0" />
  <metadata
     id="metadata19798">
    <rdf:RDF>
      <cc:Work
         rdf:about="">
        <dc:format>image/svg+xml</dc:format>
        <dc:type
           rdf:resource="http://purl.org/dc/dcmitype/StillImage" />
        <dc:title></dc:title>
      </cc:Work>
    </rdf:RDF>
  </metadata>
  <g
     inkscape:label="Layer 1"
     inkscape:groupmode="layer"
     id="layer1"
     transform="translate(-370.15301,-514.90782)">
    <g
       transform="matrix(2.4985337,0,0,-2.4980285,280.60731,2844.7538)"
       id="g20779">
      <g
         transform="translate(37.0703,932.4737)"
         id="g6804">
        <path
           inkscape:connector-curvature="0"
           id="path6806"
           style="fill:#ffffff;fill-opacity:1;fill-rule:nonzero;stroke:none"
           d="m 0,0 c -0.569,0 -1.031,-0.463 -1.031,-1.033 l 0,-7.425 c 0,-0.569 0.462,-1.032 1.031,-1.032 l 7.426,0 c 0.569,0 1.032,0.463 1.032,1.032 l 0,7.425 C 8.458,-0.463 7.995,0 7.426,0 L 0,0 Z" />
      </g>
      <g
         transform="translate(37.0703,932.6739)"
         id="g6808">
        <path
           inkscape:connector-curvature="0"
           id="path6810"
           style="fill:#373535;fill-opacity:1;fill-rule:nonzero;stroke:none"
           d="m 0,0 c -0.679,0 -1.231,-0.555 -1.231,-1.233 l 0,-7.425 c 0,-0.68 0.552,-1.233 1.231,-1.233 l 7.426,0 c 0.679,0 1.232,0.553 1.232,1.233 l 0,7.425 C 8.658,-0.555 8.105,0 7.426,0 L 0,0 Z" />
      </g>
      <g
         transform="translate(40.1758,930.5811)"
         id="g6812">
        <path
           inkscape:connector-curvature="0"
           id="path6814"
           style="fill:#ffffff;fill-opacity:1;fill-rule:nonzero;stroke:none"
           d="m 0,0 c -0.357,0 -0.646,-0.285 -0.646,-0.637 0,-0.352 0.289,-0.637 0.646,-0.637 0.355,0 0.645,0.285 0.645,0.637 C 0.645,-0.285 0.355,0 0,0" />
      </g>
      <g
         transform="translate(43.4502,929.3213)"
         id="g6816">
        <path
           inkscape:connector-curvature="0"
           id="path6818"
           style="fill:#ffffff;fill-opacity:1;fill-rule:nonzero;stroke:none"
           d="M 0,0 C -0.024,0.138 -0.137,0.216 -0.143,0.221 L -3.938,2.722 -4.29,2.211 c -0.065,-0.101 -0.037,-0.234 0.064,-0.3 0.1,-0.066 0.234,-0.039 0.299,0.062 L -3.721,2.268 -0.64,0.234 -3.164,-0.22 c -0.179,-0.03 -0.308,-0.209 -0.268,-0.384 l 0.549,-2.123 -1.776,-2.666 c -0.107,-0.181 -0.042,-0.415 0.141,-0.519 0.186,-0.106 0.421,-0.041 0.528,0.141 0,0 1.853,2.787 1.86,2.804 0,0 0.096,-0.387 0.096,-0.388 l -0.279,-2.091 c -0.035,-0.208 0.107,-0.403 0.317,-0.438 0.21,-0.035 0.409,0.105 0.444,0.312 l 0.287,2.15 c 0.009,0.055 -0.002,0.176 -0.014,0.229 l -0.634,2.518 1.648,0.297 C -0.088,-0.347 0.031,-0.177 0,0" />
      </g>
    </g>
  </g>
</svg>
