<?xml version="1.0" encoding="utf-8"?>
<!-- Generator: Adobe Illustrator 16.0.0, SVG Export Plug-In . SVG Version: 6.00 Build 0)  -->
<!DOCTYPE svg PUBLIC "-//W3C//DTD SVG 1.1//EN" "http://www.w3.org/Graphics/SVG/1.1/DTD/svg11.dtd">
<svg version="1.1"
	 id="svg19793" sodipodi:docname="hike.svg" inkscape:version="0.91 r13725" xmlns:dc="http://purl.org/dc/elements/1.1/" xmlns:cc="http://creativecommons.org/ns#" xmlns:rdf="http://www.w3.org/1999/02/22-rdf-syntax-ns#" xmlns:svg="http://www.w3.org/2000/svg" xmlns:sodipodi="http://sodipodi.sourceforge.net/DTD/sodipodi-0.dtd" xmlns:inkscape="http://www.inkscape.org/namespaces/inkscape"
	 xmlns="http://www.w3.org/2000/svg" xmlns:xlink="http://www.w3.org/1999/xlink" x="0px" y="0px" width="23.086px"
	 height="23.086px" viewBox="0 0 23.086 23.086" enable-background="new 0 0 23.086 23.086" xml:space="preserve">
<sodipodi:namedview  inkscape:window-maximized="0" inkscape:window-y="200" inkscape:window-x="297" inkscape:window-height="480" inkscape:window-width="1169" fit-margin-bottom="0" inkscape:current-layer="layer1" inkscape:pageshadow="2" inkscape:document-units="px" inkscape:pageopacity="0.0" fit-margin-right="0" fit-margin-left="0" fit-margin-top="0" showgrid="false" inkscape:cy="12.203011" inkscape:cx="6.9259706" inkscape:zoom="7.9195959" borderopacity="1.0" bordercolor="#666666" pagecolor="#ffffff" id="base">
	</sodipodi:namedview>
<g id="layer1" transform="translate(-368.96503,-514.55283)" inkscape:label="Layer 1" inkscape:groupmode="layer">
	<g id="g19313" transform="matrix(2.3359932,0,0,-2.3359932,-917.71124,1972.8363)">
		<path id="path10988" inkscape:connector-curvature="0" fill="#FFFFFF" d="M551.986,624.068c-0.542,0-0.981-0.439-0.981-0.98
			v-7.524c0-0.539,0.439-0.978,0.981-0.978h7.521c0.541,0,0.98,0.439,0.98,0.978v7.524c0,0.541-0.439,0.98-0.98,0.98H551.986z"/>
		<path id="path10992" inkscape:connector-curvature="0" fill="#6AB03E" d="M559.508,614.384c0.65,0,1.18,0.527,1.18,1.18v7.523
			c0,0.652-0.53,1.18-1.18,1.18h-7.521c-0.653,0-1.182-0.528-1.182-1.18v-7.523c0-0.653,0.529-1.18,1.182-1.18H559.508z"/>
		<path id="path10996" inkscape:connector-curvature="0" fill="#FFFFFF" d="M555.857,622.208c0.365,0,0.66,0.297,0.66,0.662
			c0,0.365-0.295,0.66-0.66,0.66c-0.365,0-0.662-0.295-0.662-0.66C555.196,622.505,555.493,622.208,555.857,622.208"/>
		<path id="path11000" inkscape:connector-curvature="0" fill="#FFFFFF" d="M554.74,622.099c0.025,0.102-0.039,0.203-0.139,0.228
			l-0.55,0.133c-0.104,0.024-0.206-0.037-0.229-0.138l-0.463-1.916c-0.025-0.102,0.037-0.204,0.139-0.229l0.553-0.133
			c0.099-0.025,0.203,0.037,0.226,0.139L554.74,622.099z"/>
		<path id="path11004" inkscape:connector-curvature="0" fill="#FFFFFF" d="M557.282,615.284c0-0.004-0.002-0.008-0.002-0.01
			c0-0.084,0.068-0.152,0.152-0.152c0.077,0,0.141,0.058,0.151,0.133l1.109,6.017v0.012c0,0.082-0.066,0.15-0.15,0.15
			c-0.076,0-0.135-0.058-0.151-0.132L557.282,615.284L557.282,615.284z"/>
		<path id="path11008" inkscape:connector-curvature="0" fill="#FFFFFF" d="M553.592,615.679c-0.006-0.031-0.008-0.062-0.008-0.094
			c0-0.258,0.207-0.465,0.465-0.465c0.211,0,0.389,0.141,0.445,0.332l0.799,3.307l0.762-3.287c0.049-0.203,0.232-0.352,0.449-0.352
			c0.258,0,0.465,0.207,0.465,0.465c0,0.035-0.004,0.069-0.01,0.102l-1.045,4.367l0.088,0.385l0.069-0.303
			c0.062-0.197,0.242-0.217,0.242-0.217l1.076-0.273c0.021-0.004,0.043-0.006,0.064-0.006c0.176,0,0.319,0.141,0.319,0.316
			c0,0.151-0.104,0.278-0.244,0.311l-0.932,0.234l-0.256,1.039c-0.121,0.58-0.676,0.567-0.676,0.567
			c-0.539,0.013-0.674-0.553-0.674-0.553L553.592,615.679L553.592,615.679z"/>
	</g>
</g>
</svg>
