<?xml version="1.0" encoding="UTF-8" standalone="no"?>
<!-- Created with Inkscape (http://www.inkscape.org/) -->

<svg
   xmlns:dc="http://purl.org/dc/elements/1.1/"
   xmlns:cc="http://creativecommons.org/ns#"
   xmlns:rdf="http://www.w3.org/1999/02/22-rdf-syntax-ns#"
   xmlns:svg="http://www.w3.org/2000/svg"
   xmlns="http://www.w3.org/2000/svg"
   xmlns:sodipodi="http://sodipodi.sourceforge.net/DTD/sodipodi-0.dtd"
   xmlns:inkscape="http://www.inkscape.org/namespaces/inkscape"
   width="24.708"
   height="24.708"
   id="svg19793"
   version="1.1"
   inkscape:version="0.91 r13725"
   sodipodi:docname="picnic.svg">
  <defs
     id="defs19795" />
  <sodipodi:namedview
     id="base"
     pagecolor="#ffffff"
     bordercolor="#666666"
     borderopacity="1.0"
     inkscape:pageopacity="0.0"
     inkscape:pageshadow="2"
     inkscape:zoom="15.839192"
     inkscape:cx="9.470714"
     inkscape:cy="6.1768772"
     inkscape:document-units="px"
     inkscape:current-layer="layer1"
     showgrid="false"
     fit-margin-top="0"
     fit-margin-left="0"
     fit-margin-right="0"
     fit-margin-bottom="0"
     inkscape:window-width="1920"
     inkscape:window-height="1018"
     inkscape:window-x="-8"
     inkscape:window-y="-8"
     inkscape:window-maximized="1" />
  <metadata
     id="metadata19798">
    <rdf:RDF>
      <cc:Work
         rdf:about="">
        <dc:format>image/svg+xml</dc:format>
        <dc:type
           rdf:resource="http://purl.org/dc/dcmitype/StillImage" />
        <dc:title></dc:title>
      </cc:Work>
    </rdf:RDF>
  </metadata>
  <g
     inkscape:label="Layer 1"
     inkscape:groupmode="layer"
     id="layer1"
     transform="translate(-370.15614,-514.90273)">
    <g
       transform="matrix(2.4997977,0,0,-2.5000506,279.17325,2497.0576)"
       id="g21211">
      <path
         d="m 37.5767,792.6465 c -0.54,0 -0.98,-0.441 -0.98,-0.982 l 0,-7.522 c 0,-0.539 0.44,-0.978 0.98,-0.978 l 7.522,0 c 0.541,0 0.981,0.439 0.981,0.978 l 0,7.522 c 0,0.541 -0.44,0.982 -0.981,0.982 l -7.522,0 z"
         style="fill:#ffffff;fill-opacity:1;fill-rule:nonzero;stroke:none"
         id="path6574"
         inkscape:connector-curvature="0" />
      <path
         d="m 45.0991,782.9629 c 0.652,0 1.181,0.527 1.181,1.18 l 0,7.521 c 0,0.653 -0.529,1.182 -1.181,1.182 l -7.522,0 c -0.652,0 -1.181,-0.529 -1.181,-1.182 l 0,-7.521 c 0,-0.653 0.529,-1.18 1.181,-1.18 l 7.522,0 z"
         style="fill:#373535;fill-opacity:1;fill-rule:nonzero;stroke:none"
         id="path6578"
         inkscape:connector-curvature="0" />
      <path
         d="m 38.6782,790.004 0,0.728 5.291,0 0,-0.728 -1.336,0 0.796,-1.971 1.971,0 0,-0.728 -1.674,0 0.931,-2.295 -0.904,0 -0.931,2.295 -3.01,0 -0.925,-2.295 -0.904,0 0.924,2.295 -1.66,0 0,0.728 1.957,0 0.797,1.971 -1.323,0 z m 1.35,-1.971 2.416,0 -0.796,1.971 -0.824,0 -0.796,-1.971 z"
         style="fill:#ffffff;fill-opacity:1;fill-rule:nonzero;stroke:none"
         id="path6582"
         inkscape:connector-curvature="0" />
    </g>
  </g>
</svg>
