<?xml version="1.0" encoding="UTF-8" standalone="no"?>
<!-- Created with Inkscape (http://www.inkscape.org/) -->

<svg
   xmlns:dc="http://purl.org/dc/elements/1.1/"
   xmlns:cc="http://creativecommons.org/ns#"
   xmlns:rdf="http://www.w3.org/1999/02/22-rdf-syntax-ns#"
   xmlns:svg="http://www.w3.org/2000/svg"
   xmlns="http://www.w3.org/2000/svg"
   xmlns:sodipodi="http://sodipodi.sourceforge.net/DTD/sodipodi-0.dtd"
   xmlns:inkscape="http://www.inkscape.org/namespaces/inkscape"
   width="12.35499"
   height="12.35374"
   id="svg19793"
   version="1.1"
   inkscape:version="0.48.4 r"
   sodipodi:docname="nps_cm_kayak.svg">
  <defs
     id="defs19795" />
  <sodipodi:namedview
     id="base"
     pagecolor="#ffffff"
     bordercolor="#666666"
     borderopacity="1.0"
     inkscape:pageopacity="0.0"
     inkscape:pageshadow="2"
     inkscape:zoom="7.919596"
     inkscape:cx="10.742657"
     inkscape:cy="-1.8858645"
     inkscape:document-units="px"
     inkscape:current-layer="layer1"
     showgrid="false"
     fit-margin-top="0"
     fit-margin-left="0"
     fit-margin-right="0"
     fit-margin-bottom="0"
     inkscape:window-width="586"
     inkscape:window-height="480"
     inkscape:window-x="734"
     inkscape:window-y="225"
     inkscape:window-maximized="0" />
  <metadata
     id="metadata19798">
    <rdf:RDF>
      <cc:Work
         rdf:about="">
        <dc:format>image/svg+xml</dc:format>
        <dc:type
           rdf:resource="http://purl.org/dc/dcmitype/StillImage" />
        <dc:title></dc:title>
      </cc:Work>
    </rdf:RDF>
  </metadata>
  <g
     inkscape:label="Layer 1"
     inkscape:groupmode="layer"
     id="layer1"
     transform="translate(-373.63164,-530.80754)">
    <g
       id="g33928">
      <g
         id="g33919">
        <path
           inkscape:connector-curvature="0"
           id="path6578"
           style="fill:#373535;fill-opacity:1;fill-rule:nonzero;stroke:none"
           d="m 384.51038,543.16128 c 0.815,0 1.47625,-0.65875 1.47625,-1.47499 l 0,-9.40125 c 0,-0.81625 -0.66125,-1.4775 -1.47625,-1.4775 l -9.4025,0 c -0.815,0 -1.47624,0.66125 -1.47624,1.4775 l 0,9.40125 c 0,0.81625 0.66124,1.47499 1.47624,1.47499 l 9.4025,0 z" />
        <g
           transform="matrix(0.63299347,0,0,0.63299347,246.55768,429.52934)"
           id="g33879">
          <path
             d="m 210.404,169.894 c 0.59,0.016 1.081,-0.448 1.098,-1.037 0.018,-0.59 -0.447,-1.081 -1.035,-1.099 -0.591,-0.017 -1.083,0.446 -1.1,1.036 -0.017,0.59 0.447,1.082 1.037,1.1 l 0,0 z"
             id="path18257"
             inkscape:connector-curvature="0"
             style="fill:#ffffff" />
          <path
             d="m 208.408,169.433 c 0.196,-0.003 0.815,0.096 1.225,0.41 0.409,0.313 0.682,0.672 0.792,0.857 0.034,0.055 0.073,0.118 0.084,0.193 0.015,-0.074 0.039,-0.145 0.067,-0.184 0.075,-0.118 0.411,-0.555 0.579,-0.699 0.307,-0.262 0.647,-0.519 1.476,-0.593 l -0.006,1.123 c -0.15,0.006 -0.47,0.095 -0.747,0.325 -0.282,0.238 -0.593,0.695 -0.691,1.021 -0.098,0.326 -0.114,0.597 -0.12,0.791 l -0.016,2.183 -1.053,0.005 -0.004,-2.178 c -0.003,-0.205 -0.044,-0.624 -0.154,-0.831 -0.109,-0.208 -0.348,-0.779 -0.777,-1.055 -0.132,-0.084 -0.331,-0.258 -0.651,-0.259 l -0.004,-1.109 0,0 z"
             id="path18259"
             inkscape:connector-curvature="0"
             style="fill:#ffffff" />
          <path
             d="m 210.503,166.685 c 0.027,0.034 0.075,0.087 0.123,0.12 0.063,0.043 0.856,0.548 1.646,1.34 0.248,0.249 0.918,1.055 0.922,2.05 0.003,0.889 -0.499,1.527 -0.56,1.593 -0.188,0.211 -0.873,0.757 -1.271,0.807 l -0.006,1.156 c 0.495,-0.098 1.329,-0.419 1.802,-0.896 0.473,-0.479 0.866,-1.053 1.042,-1.778 0.203,-0.833 0.055,-1.782 -0.203,-2.33 -0.344,-0.735 -0.936,-1.431 -1.678,-2.023 l -1.822,-1.353 -1.816,1.36 c -0.74,0.598 -1.326,1.296 -1.668,2.032 -0.256,0.55 -0.4,1.5 -0.191,2.332 0.18,0.724 0.575,1.297 1.05,1.772 0.476,0.476 1.311,0.793 1.806,0.888 l -0.011,-1.155 c -0.398,-0.047 -1.086,-0.592 -1.274,-0.802 -0.062,-0.063 -0.566,-0.7 -0.566,-1.589 -0.001,-0.995 0.665,-1.804 0.911,-2.054 0.786,-0.798 1.576,-1.305 1.64,-1.349 0.049,-0.033 0.095,-0.087 0.124,-0.121 l 0,0 z"
             id="path18261"
             inkscape:connector-curvature="0"
             style="fill:#ffffff" />
          <polygon
             style="fill:#ffffff"
             id="polygon18267"
             points="216.785,176.466 204.235,176.466 204.235,166.689 204.85,166.689 204.85,175.852 216.173,175.852 216.173,166.689 216.785,166.689 " />
          <polygon
             style="fill:#ffffff"
             id="polygon18269"
             points="210.511,163.048 218.606,167.331 218.32,167.874 210.511,163.742 202.701,167.874 202.414,167.331 " />
        </g>
      </g>
    </g>
  </g>
</svg>
