<?xml version="1.0" encoding="UTF-8" standalone="no"?>
<!-- Created with Inkscape (http://www.inkscape.org/) -->

<svg
   xmlns:dc="http://purl.org/dc/elements/1.1/"
   xmlns:cc="http://creativecommons.org/ns#"
   xmlns:rdf="http://www.w3.org/1999/02/22-rdf-syntax-ns#"
   xmlns:svg="http://www.w3.org/2000/svg"
   xmlns="http://www.w3.org/2000/svg"
   xmlns:sodipodi="http://sodipodi.sourceforge.net/DTD/sodipodi-0.dtd"
   xmlns:inkscape="http://www.inkscape.org/namespaces/inkscape"
   width="24.708"
   height="24.708"
   id="svg19793"
   version="1.1"
   inkscape:version="0.91 r13725"
   sodipodi:docname="horse.svg">
  <defs
     id="defs19795">
    <sodipodi:namedview
       id="namedview4042"
       borderopacity="1"
       objecttolerance="10"
       pagecolor="#ffffff"
       guidetolerance="10"
       inkscape:cy="11.88"
       gridtolerance="10"
       inkscape:cx="7.2858364"
       inkscape:zoom="35.479798"
       bordercolor="#666666"
       showgrid="false"
       inkscape:pageopacity="0"
       inkscape:pageshadow="2"
       inkscape:window-width="1920"
       inkscape:window-height="1033"
       inkscape:window-x="-4"
       inkscape:window-y="-4"
       inkscape:current-layer="Layer_1"
       inkscape:window-maximized="1" />
    <sodipodi:namedview
       id="namedview4662"
       borderopacity="1"
       objecttolerance="10"
       pagecolor="#ffffff"
       guidetolerance="10"
       inkscape:cy="11.88"
       gridtolerance="10"
       inkscape:cx="7.2858364"
       inkscape:zoom="35.479798"
       bordercolor="#666666"
       showgrid="false"
       inkscape:pageopacity="0"
       inkscape:pageshadow="2"
       inkscape:window-width="1920"
       inkscape:window-height="1033"
       inkscape:window-x="-4"
       inkscape:window-y="-4"
       inkscape:current-layer="Layer_1"
       inkscape:window-maximized="1" />
  </defs>
  <sodipodi:namedview
     id="base"
     pagecolor="#ffffff"
     bordercolor="#666666"
     borderopacity="1.0"
     inkscape:pageopacity="0.0"
     inkscape:pageshadow="2"
     inkscape:zoom="11.2"
     inkscape:cx="-5.0910002"
     inkscape:cy="6.8990046"
     inkscape:document-units="px"
     inkscape:current-layer="layer1"
     showgrid="false"
     fit-margin-top="0"
     fit-margin-left="0"
     fit-margin-right="0"
     fit-margin-bottom="0"
     inkscape:window-width="1920"
     inkscape:window-height="1018"
     inkscape:window-x="-8"
     inkscape:window-y="-8"
     inkscape:window-maximized="1"
     showguides="false" />
  <metadata
     id="metadata19798">
    <rdf:RDF>
      <cc:Work
         rdf:about="">
        <dc:format>image/svg+xml</dc:format>
        <dc:type
           rdf:resource="http://purl.org/dc/dcmitype/StillImage" />
        <dc:title></dc:title>
      </cc:Work>
    </rdf:RDF>
  </metadata>
  <g
     inkscape:label="Layer 1"
     inkscape:groupmode="layer"
     id="layer1"
     transform="translate(-370.15551,-514.90273)">
    <g
       id="g3556"
       transform="matrix(1.9996358,0,0,2.0000421,-370.0207,-539.63343)">
      <path
         d="m 371.63238,527.5076 c -0.6775,0 -1.22625,0.55126 -1.22625,1.2275 l 0,9.4025 c 0,0.67375 0.54875,1.2225 1.22625,1.2225 l 9.40125,0 c 0.67751,0 1.22751,-0.54875 1.22751,-1.2225 l 0,-9.4025 c 0,-0.67625 -0.54999,-1.2275 -1.22751,-1.2275 l -9.40125,0 z"
         style="fill:#ffffff;fill-opacity:1;fill-rule:nonzero;stroke:none"
         id="path6702"
         inkscape:connector-curvature="0" />
      <path
         d="m 381.03426,539.61072 c 0.815,0 1.4775,-0.65875 1.4775,-1.47499 l 0,-9.40125 c 0,-0.81625 -0.6625,-1.4775 -1.4775,-1.4775 l -9.40125,0 c -0.81625,0 -1.4775,0.66125 -1.4775,1.4775 l 0,9.40125 c 0,0.81625 0.66125,1.47499 1.4775,1.47499 l 9.40125,0 z"
         style="fill:#373535;fill-opacity:1;fill-rule:nonzero;stroke:none"
         id="path6706"
         inkscape:connector-curvature="0" />
      <path
         style="fill:#ffffff"
         d="m 379.00523,532.41679 -1.01523,2.07312 0,2.84582 c 0,0.24253 -0.19988,0.44302 -0.44424,0.44302 -0.24375,0 -0.44363,-0.19865 -0.44363,-0.44302 l 0,-2.90859 -2.24009,0 -0.40097,0.68495 0.83912,1.99755 c 0.12126,0.21451 0.0457,0.48447 -0.16575,0.6033 -0.21451,0.12126 -0.48385,0.0451 -0.60573,-0.16759 l -0.97806,-2.30529 0,-0.73187 -0.43815,0.68678 0,2.14137 c 0,0.24254 -0.19744,0.44302 -0.44302,0.44302 -0.24436,0 -0.44424,-0.19866 -0.44424,-0.44302 l 0,-2.47226 0.36685,-0.57221 0,-1.94151 -0.36441,0.55698 0,1.61669 -0.69957,0 0,-1.63375 c 0,-0.54418 0.44058,-0.98537 0.98293,-0.98537 l 4.41071,0 2.72212,-2.81657 -0.0804,0.73187 1.34064,0.89093 c 0.2206,0.12735 0.30225,0.41315 0.17428,0.63558 -0.0981,0.1761 -0.29677,0.26143 -0.48324,0.22608 l -0.10786,-0.0201 -0.24558,-0.0457 -0.70932,-0.1365 -0.41377,0.82023 -0.11335,0.22608 z"
         inkscape:connector-curvature="0"
         id="path4660" />
    </g>
  </g>
</svg>
