<?xml version="1.0" encoding="utf-8"?>
<!-- Generator: Adobe Illustrator 16.0.0, SVG Export Plug-In . SVG Version: 6.00 Build 0)  -->
<!DOCTYPE svg PUBLIC "-//W3C//DTD SVG 1.1//EN" "http://www.w3.org/Graphics/SVG/1.1/DTD/svg11.dtd">
<svg version="1.1"
	 id="svg19793" sodipodi:docname="mtnbike.svg" inkscape:version="0.91 r13725" xmlns:dc="http://purl.org/dc/elements/1.1/" xmlns:cc="http://creativecommons.org/ns#" xmlns:rdf="http://www.w3.org/1999/02/22-rdf-syntax-ns#" xmlns:svg="http://www.w3.org/2000/svg" xmlns:sodipodi="http://sodipodi.sourceforge.net/DTD/sodipodi-0.dtd" xmlns:inkscape="http://www.inkscape.org/namespaces/inkscape"
	 xmlns="http://www.w3.org/2000/svg" xmlns:xlink="http://www.w3.org/1999/xlink" x="0px" y="0px" width="24.708px"
	 height="24.708px" viewBox="0 0 24.708 24.708" enable-background="new 0 0 24.708 24.708" xml:space="preserve">
<sodipodi:namedview  inkscape:window-maximized="1" inkscape:window-y="-8" inkscape:window-x="-8" inkscape:window-height="1018" inkscape:window-width="1920" fit-margin-bottom="0" inkscape:current-layer="layer1" inkscape:pageshadow="2" inkscape:document-units="px" inkscape:pageopacity="0.0" fit-margin-right="0" fit-margin-left="0" fit-margin-top="0" showgrid="false" inkscape:cy="5.8766397" inkscape:cx="-8.5833462" inkscape:zoom="15.839192" borderopacity="1.0" bordercolor="#666666" pagecolor="#ffffff" id="base">
	</sodipodi:namedview>
<g id="layer1" transform="translate(-385.75099,-514.90276)" inkscape:label="Layer 1" inkscape:groupmode="layer">
	<g id="g62435" transform="matrix(2.0000405,0,0,2.0000405,-354.5775,-539.63259)">
		<path id="path6586" inkscape:connector-curvature="0" fill="#FFFFFF" d="M371.632,527.507c-0.676,0-1.225,0.549-1.225,1.225v9.402
			c0,0.677,0.549,1.225,1.225,1.225h9.401c0.676,0,1.227-0.548,1.227-1.225v-9.402c0-0.676-0.551-1.225-1.227-1.225H371.632z"/>
		<path id="path6590" inkscape:connector-curvature="0" fill="#6AB03E" d="M381.034,539.61c0.815,0,1.476-0.661,1.476-1.477v-9.401
			c0-0.815-0.661-1.475-1.476-1.475h-9.401c-0.816,0-1.476,0.66-1.476,1.475v9.401c0,0.816,0.66,1.477,1.476,1.477H381.034z"/>
		<g id="g62383" transform="matrix(0.63001711,0,0,0.63001711,305.85202,445.5927)">
			<path id="path13571" inkscape:connector-curvature="0" fill="#FFFFFF" d="M104.023,140.33v6.846h14.504
				c0,0-0.417-0.654-1.49-0.811c-1.353-0.195-2.156-0.439-3.319-1.019c-1.322-0.66-2.325-0.601-2.64-1.307l-1.098,0.209
				c0,0-0.598,0.157-1.475-0.653c-0.877-0.809-1.113-0.987-1.113-0.987l-1.019-0.567l-0.705-0.823c0,0-0.314-0.22-0.549-0.37
				c-0.235-0.152-0.418-0.596-0.522-0.518C104.493,140.408,104.023,140.33,104.023,140.33L104.023,140.33z"/>
			
				<ellipse id="ellipse13575" transform="matrix(0.0055 -1 1 0.0055 -16.862 248.649)" fill="#FFFFFF" cx="116.58" cy="132.802" rx="1.126" ry="1.176"/>
			<path id="path13577" inkscape:connector-curvature="0" fill="#FFFFFF" d="M108.813,136.33c-1.766-0.01-3.207,1.38-3.217,3.104
				c-0.01,1.722,1.416,3.128,3.182,3.138c1.768,0.011,3.207-1.38,3.217-3.103C112.004,137.745,110.58,136.34,108.813,136.33z
				 M108.782,141.792c-1.324-0.008-2.393-1.062-2.386-2.354c0.007-1.293,1.087-2.336,2.411-2.328
				c1.326,0.007,2.395,1.063,2.388,2.355C111.188,140.758,110.108,141.799,108.782,141.792z"/>
			<path id="path13579" inkscape:connector-curvature="0" fill="#FFFFFF" d="M116.541,139.69c-1.767-0.01-3.207,1.379-3.217,3.104
				c-0.01,1.723,1.414,3.129,3.181,3.139s3.207-1.38,3.216-3.104C119.731,141.105,118.308,139.7,116.541,139.69z M116.511,145.152
				c-1.324-0.009-2.394-1.063-2.387-2.354c0.007-1.293,1.087-2.334,2.413-2.327c1.324,0.008,2.393,1.062,2.386,2.354
				C118.916,144.117,117.835,145.16,116.511,145.152z"/>
			<path id="path13581" inkscape:connector-curvature="0" fill="#FFFFFF" d="M117.783,137.091c-0.014-0.003-0.026,0-0.039,0
				c0.12,0.263,0.095,0.543-0.087,0.679c-0.166,0.126-0.412,0.094-0.622-0.057l-3.239-0.301l-1.987-0.182l-0.147-0.014
				c-0.011-0.001-0.022,0.001-0.035,0.001c-0.029-0.004-0.06,0-0.082,0.018l-2.791,2.073l-0.032-0.002
				c-0.03-0.002-0.059,0.036-0.074,0.089c-0.03,0.035-0.033,0.089-0.011,0.141c0.01,0.063,0.036,0.108,0.07,0.109l2.359,0.102
				c0.013,0,0.022-0.005,0.035-0.014c0.018-0.001,0.035-0.001,0.055-0.008l1.693-0.467l1.529-0.422l2.815-0.776
				c0.041-0.011,0.094,0,0.094,0l-0.953,4.473c-0.026,0.12,0.065,0.24,0.208,0.271c0.142,0.029,0.276-0.04,0.301-0.161l1.147-5.279
				C118.017,137.244,117.924,137.122,117.783,137.091L117.783,137.091z M114.428,138.499l-1.451,0.4l-1.876,0.518
				c-0.008-0.004-0.014-0.008-0.021-0.009l-1.833-0.079l2.422-1.8l0.443,0.042l1.987,0.184l2.27,0.209L114.428,138.499
				L114.428,138.499z"/>
			<path id="path13585" inkscape:connector-curvature="0" fill="#FFFFFF" d="M112.138,141.238c-0.134,0.373,0.031,0.773,0.369,0.894
				c0.336,0.122,0.715-0.084,0.851-0.454l1.021-2.84l-1.529,0.422L112.138,141.238z"/>
			<path id="path13587" inkscape:connector-curvature="0" fill="#FFFFFF" d="M114.231,137.903l-0.132-0.148l-1.987-0.184
				l0.957,1.076l-0.092,0.252l1.452-0.4c-0.002-0.021,0-0.042-0.002-0.062C114.434,138.252,114.37,138.06,114.231,137.903
				L114.231,137.903z"/>
			<path id="path13589" inkscape:connector-curvature="0" fill="#FFFFFF" d="M117.744,137.091c-0.028-0.06-0.06-0.117-0.101-0.174
				l-2.542-3.374c-0.228-0.304-0.594-0.416-0.814-0.248c-0.102,0.077-0.853,0.495-1.211,0.707l-0.946,0.561
				c-0.562,0.332-0.944,0.792-1.063,1.211c-0.106,0.244-0.061,0.554,0.142,0.781l0.6,0.676l1.987,0.182l-0.852-0.955
				c0.08-0.038,0.159-0.076,0.235-0.121l0.947-0.562c0.359-0.212,0.642-0.479,0.833-0.751l1.883,2.499
				c0.057,0.075,0.122,0.141,0.191,0.19c0.21,0.15,0.456,0.183,0.622,0.057C117.838,137.634,117.864,137.354,117.744,137.091z"/>
		</g>
	</g>
</g>
</svg>
