<?xml version="1.0" encoding="utf-8"?>
<!-- Generator: Adobe Illustrator 16.0.0, SVG Export Plug-In . SVG Version: 6.00 Build 0)  -->
<!DOCTYPE svg PUBLIC "-//W3C//DTD SVG 1.1//EN" "http://www.w3.org/Graphics/SVG/1.1/DTD/svg11.dtd">
<svg version="1.1" id="Layer_1" xmlns="http://www.w3.org/2000/svg" xmlns:xlink="http://www.w3.org/1999/xlink" x="0px" y="0px"
	 width="50px" height="50px" viewBox="0 0 50 50" enable-background="new 0 0 50 50" xml:space="preserve">
<g>
	<path fill="none" stroke="#000000" stroke-width="2.31" d="M45.102,39.758c0,3.033-2.457,5.49-5.492,5.49H10.549
		c-3.033,0-5.492-2.457-5.492-5.49V10.691c0-3.031,2.459-5.488,5.492-5.488H39.61c3.035,0,5.492,2.457,5.492,5.488V39.758z"/>
</g>
<g>
	<g>
		<path d="M33.952,23.197c-0.555,0-1.092,0.079-1.604,0.215l-1.229-2.564l1.426-3.957h2.775c0.615,0,1.111-0.498,1.111-1.112
			c0-0.612-0.496-1.109-1.111-1.109h-4.336l-1.846,5.128h-7.018l-0.275-0.59h2.021c0.613,0,1.109-0.495,1.109-1.11
			c0-0.611-0.496-1.108-1.109-1.108h-3.797c-0.002,0-0.006,0-0.008,0h-2.76c-0.615,0-1.109,0.497-1.109,1.108
			c0,0.615,0.494,1.11,1.109,1.11h2.096l0.504,1.082c-0.018,0.027-0.035,0.055-0.051,0.085l-1.717,3.128
			c-0.607-0.197-1.254-0.305-1.926-0.305c-3.469,0-6.293,2.82-6.293,6.294c0,3.468,2.824,6.291,6.293,6.291
			c3.02,0,5.547-2.138,6.152-4.978h3.146c0.379,0,0.732-0.193,0.938-0.512c0.203-0.32,0.229-0.724,0.07-1.064l-3.359-7.212h6.064
			l1.115,2.331c-1.617,1.141-2.678,3.018-2.678,5.144c0,3.468,2.822,6.291,6.293,6.291c3.469,0,6.291-2.823,6.291-6.291
			C40.243,26.017,37.42,23.197,33.952,23.197z M16.209,33.562c-2.246,0-4.074-1.828-4.074-4.071c0-2.247,1.828-4.073,4.074-4.073
			c0.283,0,0.561,0.029,0.828,0.084L15.03,29.16c-0.189,0.348-0.182,0.764,0.02,1.1c0.197,0.339,0.561,0.545,0.953,0.545h4.043
			C19.497,32.402,17.993,33.562,16.209,33.562z M20.172,28.583h-2.295L19,26.539C19.575,27.083,19.991,27.787,20.172,28.583z
			 M23.768,28.583h-1.34c-0.236-1.633-1.098-3.061-2.334-4.036l0.971-1.767L23.768,28.583z M33.952,33.562
			c-2.246,0-4.074-1.828-4.074-4.071c0-1.239,0.568-2.337,1.443-3.085l1.803,3.767c0.193,0.401,0.588,0.632,1.002,0.632
			c0.158,0,0.324-0.033,0.479-0.105c0.553-0.269,0.787-0.93,0.523-1.484l-1.789-3.735c0.201-0.031,0.402-0.062,0.613-0.062
			c2.246,0,4.072,1.826,4.072,4.073C38.024,31.734,36.198,33.562,33.952,33.562z"/>
	</g>
</g>
</svg>
