<?xml version="1.0" encoding="utf-8"?>
<!-- Generator: Adobe Illustrator 16.0.0, SVG Export Plug-In . SVG Version: 6.00 Build 0)  -->
<!DOCTYPE svg PUBLIC "-//W3C//DTD SVG 1.1//EN" "http://www.w3.org/Graphics/SVG/1.1/DTD/svg11.dtd">
<svg version="1.1" id="Layer_1" xmlns="http://www.w3.org/2000/svg" xmlns:xlink="http://www.w3.org/1999/xlink" x="0px" y="0px"
	 width="50px" height="50px" viewBox="0 0 50 50" enable-background="new 0 0 50 50" xml:space="preserve">
<g>
	<path fill="none" stroke="#000000" stroke-width="2.31" d="M45.102,39.756c0,3.035-2.462,5.492-5.496,5.492H10.524
		c-3.035,0-5.492-2.457-5.492-5.492V10.691c0-3.031,2.457-5.488,5.492-5.488h29.083c3.033,0,5.496,2.457,5.496,5.488V39.756z"/>
</g>
<g>
	<path d="M32.201,23.98l-5.684-5.025l-9.074,3.697c-0.965,0.393-1.427,1.488-1.036,2.453c0.395,0.967,1.496,1.426,2.457,1.035
		l3.805-1.551l-0.565,2.041l-6.938,5.105c-0.838,0.615-1.019,1.791-0.403,2.631c0.372,0.502,0.94,0.768,1.521,0.768
		c0.389,0,0.78-0.117,1.114-0.367l6.778-4.984l1.36,6.836c0.178,0.901,0.963,1.52,1.847,1.52c0.121,0,0.244-0.012,0.367-0.035
		c1.021-0.205,1.683-1.196,1.481-2.217l-2.292-11.531l2.764,2.443c0.357,0.316,0.807,0.473,1.249,0.473
		c0.52,0,1.04-0.213,1.411-0.635C33.057,25.857,32.98,24.667,32.201,23.98z"/>
	<path d="M26.686,18.443c1.694,0,3.066-1.373,3.066-3.062c0-1.695-1.372-3.068-3.066-3.068c-1.695,0-3.069,1.373-3.069,3.068
		C23.617,17.07,24.991,18.443,26.686,18.443z"/>
</g>
</svg>
