<?xml version="1.0" encoding="utf-8"?>
<!-- Generator: Adobe Illustrator 16.0.0, SVG Export Plug-In . SVG Version: 6.00 Build 0)  -->
<!DOCTYPE svg PUBLIC "-//W3C//DTD SVG 1.1//EN" "http://www.w3.org/Graphics/SVG/1.1/DTD/svg11.dtd">
<svg version="1.1" id="Layer_1" xmlns="http://www.w3.org/2000/svg" xmlns:xlink="http://www.w3.org/1999/xlink" x="0px" y="0px"
	 width="50px" height="50px" viewBox="0 0 50 50" enable-background="new 0 0 50 50" xml:space="preserve">
<g>
	<path fill="none" stroke="#000000" stroke-width="2.31" d="M44.958,39.758c0,3.033-2.458,5.49-5.492,5.49H10.405
		c-3.032,0-5.492-2.457-5.492-5.49V10.691c0-3.032,2.46-5.489,5.492-5.489h29.062c3.034,0,5.492,2.457,5.492,5.489V39.758z"/>
	<path d="M36.148,35.809v-7.405c0,0,0.428-12.511-1.657-14.604c-2.373-2.382-16.314-2.302-18.937,0.074
		c-2.094,1.897-1.859,14.53-1.859,14.53v7.405h1.847v1.431v0.003c0,0.886,0.719,1.603,1.604,1.603c0.884,0,1.604-0.717,1.604-1.603
		V37.24v-1.431h12.308v1.431v0.003c0,0.886,0.716,1.603,1.604,1.603c0.884,0,1.603-0.717,1.603-1.603V37.24v-1.431H36.148z
		 M21.816,13.412h6.389v1.691h-6.389V13.412z M18.519,32.116c-0.887,0-1.605-0.718-1.605-1.602c0-0.886,0.719-1.602,1.605-1.602
		c0.885,0,1.604,0.716,1.604,1.602C20.123,31.398,19.404,32.116,18.519,32.116z M31.354,32.116c-0.888,0-1.606-0.718-1.606-1.602
		c0-0.886,0.719-1.602,1.606-1.602c0.884,0,1.6,0.716,1.6,1.602C32.954,31.398,32.238,32.116,31.354,32.116z M33.435,25.334H16.51
		c0,0-0.872-7.512,2.009-8.276c3.712-0.983,9.018-1.039,12.835,0.105C34.579,18.134,33.435,25.334,33.435,25.334z"/>
</g>
</svg>
