<?xml version="1.0" standalone="no"?>
<!DOCTYPE svg PUBLIC "-//W3C//DTD SVG 20010904//EN"
 "http://www.w3.org/TR/2001/REC-SVG-20010904/DTD/svg10.dtd">
<svg version="1.0" xmlns="http://www.w3.org/2000/svg"
 width="700.000000pt" height="700.000000pt" viewBox="0 0 700.000000 700.000000"
 preserveAspectRatio="xMidYMid meet">
<metadata>
Created by potrace 1.11, written by Peter Selinger 2001-2013
</metadata>
<g transform="translate(0.000000,700.000000) scale(0.100000,-0.100000)"
fill="#000000" stroke="none">
<path d="M3025 6344 c-231 -173 -427 -320 -435 -327 -8 -7 -85 -64 -170 -127
-85 -63 -175 -132 -200 -154 -25 -21 -70 -59 -100 -84 -123 -104 -473 -465
-530 -546 -8 -12 -39 -53 -70 -92 -30 -39 -62 -81 -70 -94 -8 -12 -28 -40 -43
-62 -83 -117 -216 -360 -267 -488 -68 -168 -129 -427 -145 -610 -3 -36 -8 -87
-11 -115 -6 -61 -6 -305 1 -360 2 -22 6 -62 9 -90 33 -328 159 -679 345 -960
25 -38 48 -75 51 -80 6 -13 123 -168 131 -175 3 -3 25 -27 49 -55 227 -268
484 -450 853 -604 113 -47 291 -105 385 -127 37 -8 75 -17 85 -20 18 -6 18 11
15 372 l-3 377 -61 17 c-186 51 -521 267 -732 473 -165 161 -313 463 -384 783
-18 83 -21 130 -22 294 0 212 15 308 71 483 15 45 27 84 28 87 11 36 80 190
112 249 159 292 329 496 653 787 30 27 57 51 60 54 3 3 34 30 70 60 36 30 67
58 70 61 24 28 371 291 530 401 52 37 108 80 123 96 l29 30 26 -28 c15 -16 89
-72 166 -125 370 -259 656 -495 936 -775 186 -186 330 -386 447 -623 46 -92
124 -299 139 -370 44 -204 56 -344 42 -501 -9 -106 -16 -160 -28 -206 -5 -19
-11 -46 -14 -60 -6 -34 -63 -206 -84 -255 -65 -152 -179 -338 -258 -421 -90
-93 -384 -324 -413 -324 -5 0 -11 -4 -13 -8 -5 -13 -139 -86 -229 -125 -76
-32 -111 -44 -144 -46 -6 -1 -10 -132 -9 -374 0 -204 1 -375 2 -378 3 -9 244
55 307 80 11 5 70 27 130 51 181 71 389 179 517 270 24 17 54 38 67 48 145
103 361 345 515 576 187 280 315 612 360 927 24 168 25 512 2 664 -1 11 -6 45
-11 75 -41 292 -149 589 -303 838 -29 46 -52 85 -52 87 0 17 -224 313 -310
410 -258 292 -461 473 -850 760 -283 208 -573 423 -585 432 -37 29 -354 263
-357 263 -1 -1 -192 -143 -423 -316z"/>
<path d="M3290 5085 c-287 -51 -501 -258 -568 -550 -14 -60 -7 -258 11 -320
73 -248 228 -402 497 -495 55 -20 254 -22 328 -5 205 48 379 183 473 367 78
154 96 362 44 524 -106 332 -446 540 -785 479z"/>
<path d="M4829 3926 c-2 -2 -35 -7 -74 -11 -92 -9 -270 -47 -369 -80 -211 -69
-378 -175 -551 -349 -171 -173 -344 -398 -365 -477 l-11 -39 -38 74 c-21 41
-71 118 -111 173 -73 98 -299 332 -375 388 -22 17 -42 32 -45 36 -26 29 -186
117 -295 162 -134 55 -330 102 -460 109 l-50 3 -1 -362 c0 -253 3 -363 10
-364 6 -1 22 -3 36 -4 99 -10 175 -38 280 -103 259 -159 383 -307 565 -672
141 -282 150 -369 131 -1345 -13 -682 -13 -705 -1 -706 15 -1 240 -1 502 0
l231 1 -5 472 c-11 901 -9 1170 12 1230 2 7 6 29 9 48 36 231 146 464 323 682
150 185 311 301 500 362 45 14 95 26 110 26 58 0 56 -12 57 374 2 322 -1 386
-15 372z"/>
</g>
</svg>
