<?xml version="1.0" standalone="no"?>
<!DOCTYPE svg PUBLIC "-//W3C//DTD SVG 20010904//EN"
 "http://www.w3.org/TR/2001/REC-SVG-20010904/DTD/svg10.dtd">
<svg version="1.0" xmlns="http://www.w3.org/2000/svg"
 width="520.000000pt" height="520.000000pt" viewBox="0 0 520.000000 520.000000"
 preserveAspectRatio="xMidYMid meet">
<metadata>
Created by potrace 1.11, written by Peter Selinger 2001-2013
</metadata>
<g transform="translate(0.000000,520.000000) scale(0.100000,-0.100000)"
fill="#000000" stroke="none">
<path d="M2515 5147 c-39 -28 -93 -68 -120 -87 -28 -19 -54 -38 -60 -43 -5 -4
-89 -65 -186 -135 -97 -70 -187 -135 -200 -145 -13 -9 -73 -53 -134 -97 -60
-43 -114 -83 -120 -87 -5 -5 -43 -32 -84 -62 -40 -29 -85 -63 -100 -76 -14
-12 -62 -53 -106 -90 -115 -97 -316 -303 -416 -425 -84 -103 -199 -261 -212
-290 -4 -8 -16 -28 -27 -45 -41 -65 -138 -264 -163 -335 -38 -111 -70 -245
-83 -345 -3 -22 -9 -67 -14 -100 -9 -66 -5 -429 5 -485 22 -123 47 -229 70
-297 27 -82 28 -84 69 -176 14 -32 26 -59 26 -61 0 -21 168 -287 225 -355 64
-78 177 -203 225 -250 179 -174 444 -321 765 -424 91 -29 232 -67 251 -67 3 0
4 140 2 310 l-3 310 -55 16 c-30 9 -83 29 -116 45 -34 16 -64 29 -67 29 -20 0
-246 154 -351 238 -140 113 -208 200 -296 380 -205 420 -189 846 50 1276 114
205 243 360 460 555 197 177 319 276 525 429 83 62 155 115 160 120 6 4 33 23
60 41 28 19 59 42 70 52 20 18 23 17 150 -72 195 -137 569 -424 641 -494 6 -5
49 -44 95 -86 184 -168 256 -249 365 -409 147 -218 241 -455 270 -686 11 -91
6 -268 -11 -344 -8 -38 -17 -89 -18 -97 0 -9 -48 -148 -70 -203 -51 -133 -157
-299 -241 -380 -175 -168 -477 -358 -624 -391 l-52 -12 0 -313 0 -312 68 15
c165 37 434 139 592 225 223 122 370 248 556 478 232 285 378 625 412 953 9
91 9 382 -1 462 -51 438 -202 752 -562 1175 -72 84 -309 313 -410 395 -92 75
-404 303 -689 505 -35 25 -150 107 -255 183 -106 75 -193 137 -194 137 -1 0
-34 -24 -72 -53z"/>
<path d="M2404 3890 c-175 -45 -310 -153 -386 -305 -110 -219 -68 -476 107
-650 166 -166 392 -220 620 -148 282 89 456 390 390 672 -51 213 -234 391
-450 436 -94 20 -195 18 -281 -5z"/>
<path d="M1424 2926 c-3 -7 -3 -142 -2 -301 l3 -289 35 -3 c136 -10 343 -125
475 -265 123 -129 298 -432 329 -568 45 -197 45 -194 31 -955 -4 -214 -8 -424
-9 -465 l-1 -75 315 0 315 0 -2 310 c0 171 -2 463 -3 650 -1 187 0 354 3 370
35 212 58 287 123 413 84 162 230 343 344 428 98 72 282 154 348 154 15 0 32
4 38 8 7 5 11 107 13 305 l2 299 -68 -7 c-188 -17 -336 -57 -488 -131 -94 -45
-244 -152 -310 -219 -51 -53 -177 -218 -258 -336 l-65 -96 -13 26 c-62 119
-364 458 -484 543 -152 108 -382 186 -628 212 -24 3 -40 0 -43 -8z"/>
</g>
</svg>
